<?xml version="1.0" encoding="UTF-8"?>
<svg version="1.1" xmlns="http://www.w3.org/2000/svg" width="900" height="900">
<path d="M0 0 C2.44522725 0.84378939 4.19572139 1.97398727 6.30249023 3.47485352 C7.10428711 4.04139648 7.90608398 4.60793945 8.73217773 5.19165039 C9.58682617 5.80459961 10.44147461 6.41754883 11.32202148 7.04907227 C12.21405273 7.68135742 13.10608398 8.31364258 14.02514648 8.96508789 C15.85812218 10.264858 17.68933865 11.56711253 19.51879883 12.87182617 C23.21472608 15.50664905 26.92483032 18.12118659 30.63452148 20.73657227 C32.00562515 21.70530823 33.37671874 22.67405847 34.74780273 23.64282227 C39.76534294 27.18434339 44.79243291 30.71218903 49.82202148 34.23657227 C50.65991211 34.82438477 51.49780273 35.41219727 52.36108398 36.01782227 C53.15643555 36.57469727 53.95178711 37.13157227 54.77124023 37.70532227 C55.46950928 38.19452148 56.16777832 38.6837207 56.88720703 39.18774414 C59.21397418 40.8550397 59.21397418 40.8550397 62.23240662 42.38043213 C65.13452148 44.73657227 65.13452148 44.73657227 65.85604858 48.0269165 C65.84272491 49.33263611 65.82940125 50.63835571 65.81567383 51.98364258 C65.81654999 52.70599091 65.81742615 53.42833923 65.81832886 54.1725769 C65.81415661 56.55439344 65.76753032 58.93337451 65.72045898 61.31469727 C65.70926534 62.96806296 65.70072595 64.62144858 65.69473267 66.27484131 C65.67184699 70.62206172 65.61292763 74.96807514 65.54650879 79.31481934 C65.48507964 83.75211254 65.45771641 88.18960122 65.42749023 92.62719727 C65.36318267 101.33087556 65.26080822 110.03357368 65.13452148 118.73657227 C66.89831831 117.61768773 68.66165832 116.49808306 70.42480469 115.37817383 C71.40681351 114.75477112 72.38882233 114.13136841 73.40058899 113.48907471 C76.42514729 111.55027562 79.37996123 109.54804345 82.32202148 107.48657227 C83.41946118 106.72063689 84.51712845 105.95502751 85.61499023 105.18969727 C86.18266113 104.79331055 86.75033203 104.39692383 87.33520508 103.98852539 C90.59134629 101.72292266 93.86389898 99.48119373 97.13452148 97.23657227 C104.14654363 92.42051601 111.14431288 87.58423406 118.13452148 82.73657227 C123.741099 85.80826101 128.92428936 89.28818208 134.13452148 92.98657227 C135.91549859 94.24216777 137.69675992 95.4973602 139.47827148 96.75219727 C140.40381836 97.40510742 141.32936523 98.05801758 142.28295898 98.73071289 C147.05289946 102.08600664 151.84435632 105.410248 156.63452148 108.73657227 C163.81025375 113.72370619 170.97826093 118.72153813 178.13452148 123.73657227 C189.11530008 131.43089264 200.12453172 139.08413508 211.13452148 146.73657227 C215.03061472 149.44453198 218.92640107 152.15293242 222.82202148 154.86157227 C224.08236206 155.73724854 224.08236206 155.73724854 225.36816406 156.63061523 C227.1283898 157.85452867 228.8616122 159.11801932 230.56855774 160.41520691 C233.26940414 162.33221069 235.94279799 163.48236533 239.03036499 164.6650238 C245.41566228 167.49517102 250.37513318 170.72765903 254.13452148 176.73657227 C258.40410187 189.38816401 256.77222886 204.57385404 256.52464747 217.70559764 C256.44003551 223.16746809 256.4610885 228.62906559 256.46766663 234.09144592 C256.46289025 243.25430237 256.38030867 252.41383567 256.24755859 261.57568359 C256.09484183 272.16049777 256.0512447 282.74133993 256.06883138 293.32715124 C256.08449934 303.53122469 256.03745829 313.7339725 255.9569416 323.93771553 C255.92298851 328.27221877 255.90835963 332.60614725 255.90885735 336.94077873 C255.90558758 342.0419996 255.84654664 347.13966874 255.74457359 352.23984146 C255.71569123 354.10889502 255.70531304 355.97834143 255.71494675 357.84759331 C255.76973124 371.96945973 255.76973124 371.96945973 251.73359871 376.33116341 C248.9282258 378.13429693 246.19985407 379.44079422 243.13452148 380.73657227 C241.67129903 381.70879618 240.22873846 382.71420247 238.82592773 383.77172852 C238.15231201 384.26358643 237.47869629 384.75544434 236.78466797 385.26220703 C236.09574463 385.76937256 235.40682129 386.27653809 234.69702148 386.79907227 C228.20211932 391.53452058 221.6640689 396.19977712 215.07202148 400.79907227 C214.23445313 401.38358154 213.39688477 401.96809082 212.53393555 402.5703125 C210.8686066 403.73239157 209.20324255 404.89442034 207.5378418 406.05639648 C203.83277648 408.64663008 200.13901953 411.25276019 196.44702148 413.86157227 C195.75511719 414.35036865 195.06321289 414.83916504 194.3503418 415.34277344 C192.27816744 416.80704198 190.20628787 418.27172656 188.13452148 419.73657227 C178.30117962 426.68925222 168.45239325 433.61896396 158.58325195 440.52075195 C150.41605429 446.2344812 142.27309677 451.98217971 134.13452148 457.73657227 C124.30117962 464.68925222 114.45239325 471.61896396 104.58325195 478.52075195 C97.11062342 483.74856423 89.65792524 489.00420607 82.21118164 494.26879883 C77.97642265 497.26190617 73.73904696 500.25130835 69.50219727 503.24145508 C65.99729819 505.71521783 62.49296682 508.18977526 58.98999023 510.66625977 C51.38442081 516.04162462 43.76658363 521.39887825 36.13452148 526.73657227 C32.80081168 529.06936814 29.46754182 531.40279143 26.13452148 533.73657227 C24.97243164 534.54989014 24.97243164 534.54989014 23.78686523 535.37963867 C21.56789718 536.93396299 19.35105441 538.49127808 17.13452148 540.04907227 C16.09376465 540.77634521 16.09376465 540.77634521 15.03198242 541.51831055 C11.81192192 543.78253613 8.65494323 546.08479018 5.58764648 548.55297852 C5.04237305 548.98634521 4.49709961 549.41971191 3.93530273 549.86621094 C2.49420542 551.02349013 1.07134783 552.20338236 -0.34985352 553.38500977 C-2.86547852 554.73657227 -2.86547852 554.73657227 -5.26782227 554.27172852 C-8.57030671 552.3200347 -11.62955435 550.11810656 -14.67797852 547.79907227 C-19.95966441 543.85246834 -25.29165078 540.01166794 -30.74047852 536.29907227 C-47.71974799 524.71195198 -47.71974799 524.71195198 -53.13085938 520.54272461 C-55.48585422 518.98730528 -57.57594402 517.97414116 -60.14892578 516.87182617 C-65.38410606 514.35252804 -69.72995532 511.75354216 -72.86547852 506.73657227 C-75.56363183 496.61578799 -74.548105 485.67815989 -74.03277588 475.31750488 C-73.85741576 471.41709547 -73.78093184 467.51480436 -73.69555664 463.61157227 C-73.51435458 455.98143267 -73.22514905 448.36060884 -72.86547852 440.73657227 C-83.34392496 448.20958863 -83.34392496 448.20958863 -93.78662109 455.73242188 C-95.23493165 456.78034218 -96.68546378 457.82519605 -98.13769531 458.86767578 C-101.7793 461.48427052 -105.3922987 464.12455949 -108.94750977 466.85766602 C-109.57979492 467.33461914 -110.21208008 467.81157227 -110.86352539 468.30297852 C-112.04151947 469.1931312 -113.20901081 470.0974213 -114.36352539 471.01782227 C-115.94750977 472.20141602 -115.94750977 472.20141602 -118.86547852 473.73657227 C-122.55221741 472.64310232 -125.45268557 470.80736101 -128.57641602 468.60375977 C-129.4794043 467.97083008 -130.38239258 467.33790039 -131.31274414 466.68579102 C-132.27889648 466.00129883 -133.24504883 465.31680664 -134.24047852 464.61157227 C-136.32111515 463.15050299 -138.40184694 461.68956921 -140.48266602 460.22875977 C-141.54453125 459.48078125 -142.60639648 458.73280273 -143.70043945 457.9621582 C-148.57532812 454.53424359 -153.4707329 451.13604076 -158.36547852 447.73657227 C-160.27834519 446.40599584 -162.19110523 445.0752661 -164.10375977 443.74438477 C-167.9755986 441.05087446 -171.84805657 438.3582574 -175.72094727 435.66625977 C-184.92556746 429.26722318 -194.12402329 422.85988127 -203.30297852 416.42407227 C-209.77151235 411.88907788 -216.26191437 407.38857271 -222.78027344 402.92553711 C-229.05972908 398.61939942 -235.29151849 394.24577372 -241.51391602 389.85766602 C-242.29508789 389.30852539 -243.07625977 388.75938477 -243.88110352 388.19360352 C-244.6243796 387.6515348 -245.36765568 387.10946608 -246.13345528 386.55097103 C-248.83781048 384.65731231 -248.83781048 384.65731231 -251.91706657 383.31152439 C-259.88784163 379.23346156 -259.88784163 379.23346156 -261.5761323 374.9215591 C-262.78900101 369.32107103 -262.60798224 363.59149061 -262.5769043 357.890625 C-262.60956392 355.96298123 -262.64715901 354.03541573 -262.68930054 352.10795593 C-262.78657076 346.88390369 -262.80665951 341.66229378 -262.80670023 336.43743396 C-262.81217284 332.06651454 -262.85141008 327.69613284 -262.88928783 323.32539421 C-262.97655682 313.00404171 -262.99704383 302.68396456 -262.97924805 292.36230469 C-262.96238315 281.74091627 -263.07122538 271.12594776 -263.24033749 260.50603527 C-263.38059265 251.36737415 -263.43506567 242.23078584 -263.42346942 233.09106213 C-263.41782413 227.64083236 -263.44526413 222.19596619 -263.55832291 216.74679375 C-264.19424349 183.729816 -264.19424349 183.729816 -258.68922806 175.47213364 C-253.63940618 170.43619148 -248.01571083 167.38588758 -241.42214203 164.79632759 C-237.94003751 163.35297035 -235.24961887 161.42404382 -232.24829102 159.15844727 C-230.9218457 158.23322266 -230.9218457 158.23322266 -229.56860352 157.28930664 C-228.29243164 156.39695312 -228.29243164 156.39695312 -226.99047852 155.48657227 C-220.62904836 151.04986053 -214.26283969 146.6213366 -207.86547852 142.23657227 C-201.34462937 137.76640126 -194.85295403 133.25502082 -188.36547852 128.73657227 C-178.60633526 121.94023906 -168.81836417 115.18770851 -159.0090332 108.46411133 C-149.42975987 101.89618136 -139.88626642 95.2782225 -130.35546875 88.64013672 C-124.25246361 84.39134933 -118.13563655 80.16391331 -112.00219727 75.95922852 C-106.10481017 71.91153106 -100.23493187 67.82463511 -94.36547852 63.73657227 C-87.26002669 58.78763889 -80.14416174 53.85529221 -73.00219727 48.95922852 C-67.10480986 44.91153085 -61.23495988 40.82459534 -55.36547852 36.73657227 C-46.85672428 30.81101841 -38.33083586 24.91183167 -29.77905273 19.04858398 C-27.04286422 17.17255986 -24.30748354 15.2953649 -21.57324219 13.41650391 C-20.20604348 12.47784691 -18.83775031 11.54078167 -17.46826172 10.60546875 C-14.5352768 8.59799537 -11.63826043 6.56860345 -8.77954102 4.45532227 C-7.90040039 3.80563477 -7.02125977 3.15594727 -6.11547852 2.48657227 C-5.00946289 1.64352539 -5.00946289 1.64352539 -3.88110352 0.78344727 C-1.86547852 -0.26342773 -1.86547852 -0.26342773 0 0 Z " fill="#C76978" transform="translate(453.865478515625,121.263427734375)"/>
<path d="M0 0 C2.44522725 0.84378939 4.19572139 1.97398727 6.30249023 3.47485352 C7.10428711 4.04139648 7.90608398 4.60793945 8.73217773 5.19165039 C9.58682617 5.80459961 10.44147461 6.41754883 11.32202148 7.04907227 C12.21405273 7.68135742 13.10608398 8.31364258 14.02514648 8.96508789 C15.85812218 10.264858 17.68933865 11.56711253 19.51879883 12.87182617 C23.21472608 15.50664905 26.92483032 18.12118659 30.63452148 20.73657227 C32.00562515 21.70530823 33.37671874 22.67405847 34.74780273 23.64282227 C39.76534294 27.18434339 44.79243291 30.71218903 49.82202148 34.23657227 C50.65991211 34.82438477 51.49780273 35.41219727 52.36108398 36.01782227 C53.15643555 36.57469727 53.95178711 37.13157227 54.77124023 37.70532227 C55.46950928 38.19452148 56.16777832 38.6837207 56.88720703 39.18774414 C59.21425921 40.85454225 59.21425921 40.85454225 62.23042297 42.38439941 C65.13452148 44.73657227 65.13452148 44.73657227 65.86950684 48 C65.86221558 49.29365479 65.85492432 50.58730957 65.84741211 51.92016602 C65.85150085 52.63608917 65.8555896 53.35201233 65.85980225 54.08963013 C65.86581046 56.45215653 65.82890006 58.81187868 65.79077148 61.17407227 C65.78465392 62.81786407 65.78090349 64.46166624 65.77941895 66.10546875 C65.77021768 69.54898831 65.74139086 72.99157108 65.69702148 76.43481445 C65.64045612 80.84670929 65.61859813 85.25786671 65.60965729 89.67008972 C65.60133952 93.06391767 65.58169694 96.45759691 65.5579071 99.85134888 C65.54651933 101.47802546 65.53699612 103.10471621 65.52937317 104.73141479 C65.5156078 107.00552381 65.48832629 109.27905507 65.45678711 111.55297852 C65.4363031 113.49346069 65.4363031 113.49346069 65.41540527 115.47314453 C65.15264812 118.52596926 64.81459045 120.21917951 63.13452148 122.73657227 C61.25952148 124.22094727 61.25952148 124.22094727 59.13452148 125.48657227 C58.43327148 125.91454102 57.73202148 126.34250977 57.00952148 126.78344727 C55.13452148 127.73657227 55.13452148 127.73657227 53.13452148 127.73657227 C53.18337494 128.91848648 53.23222839 130.1004007 53.28256226 131.31813049 C53.73045954 142.51073898 54.05918378 153.70151144 54.27438927 164.90107822 C54.38877345 170.65858042 54.54352791 176.40880093 54.79418945 182.16210938 C56.42192426 220.51081216 56.42192426 220.51081216 51.0713501 228.22442627 C46.1631075 233.3756246 40.62620348 236.13175892 34.0116272 238.54226685 C29.08341697 240.58799918 25.0093884 243.80893722 20.75952148 246.98657227 C19.10933114 248.15293491 17.45612775 249.31505857 15.79858398 250.47094727 C14.6176416 251.29949219 14.6176416 251.29949219 13.4128418 252.14477539 C10.00051196 254.52887211 6.56894883 256.88446792 3.13452148 259.23657227 C-3.59167257 263.84521373 -10.27563981 268.51229296 -16.95141602 273.19360352 C-23.41228737 277.7230763 -29.88609031 282.23363366 -36.36547852 286.73657227 C-44.80980165 292.60526619 -53.24168593 298.49135245 -61.66040039 304.39672852 C-62.43448242 304.93942383 -63.20856445 305.48211914 -64.00610352 306.04125977 C-64.68189453 306.51547363 -65.35768555 306.9896875 -66.05395508 307.47827148 C-67.64481557 308.58329776 -69.25380758 309.66212497 -70.86547852 310.73657227 C-71.31449701 313.05688881 -71.31449701 313.05688881 -71.2305603 315.80281067 C-71.23852882 317.41161354 -71.23852882 317.41161354 -71.24665833 319.05291748 C-71.23272285 320.82569061 -71.23272285 320.82569061 -71.21850586 322.63427734 C-71.22174614 324.49535378 -71.22174614 324.49535378 -71.22505188 326.39402771 C-71.22814715 329.09633601 -71.22588987 331.79805233 -71.2150383 334.50028419 C-71.19870653 338.77393705 -71.20712968 343.04731666 -71.21987915 347.32096863 C-71.25003111 358.70751813 -71.24854801 370.09401941 -71.2296263 381.48058861 C-71.21729144 388.95759118 -71.21915999 396.43428519 -71.24801409 403.9112522 C-71.26325188 408.15850709 -71.2557605 412.40492514 -71.23130393 416.65212786 C-71.21886055 419.9183776 -71.23881222 423.1844612 -71.25366211 426.45068359 C-71.23365395 428.21434769 -71.23365395 428.21434769 -71.21324158 430.01364136 C-71.29402749 437.98745211 -71.29402749 437.98745211 -74.28855896 441.91300964 C-75.13894241 442.51478531 -75.98932587 443.11656097 -76.86547852 443.73657227 C-77.47351318 444.21932617 -78.08154785 444.70208008 -78.70800781 445.19946289 C-79.27946533 445.59327148 -79.85092285 445.98708008 -80.43969727 446.39282227 C-81.09856934 446.85164795 -81.75744141 447.31047363 -82.4362793 447.78320312 C-83.13479004 448.26281494 -83.83330078 448.74242676 -84.55297852 449.23657227 C-86.06536153 450.28900375 -87.57705642 451.34242465 -89.08813477 452.39672852 C-89.86946777 452.94087402 -90.65080078 453.48501953 -91.45581055 454.0456543 C-95.49666192 456.88121019 -99.49349195 459.77716229 -103.49047852 462.67407227 C-107.81831799 465.80948471 -107.81831799 465.80948471 -109.89379883 467.29077148 C-111.21150144 468.25702147 -112.50330792 469.25957927 -113.7668457 470.2956543 C-115.57641602 471.74047852 -115.57641602 471.74047852 -118.86547852 473.73657227 C-122.56458415 472.69418557 -125.456968 470.80434002 -128.57641602 468.60375977 C-129.4794043 467.97083008 -130.38239258 467.33790039 -131.31274414 466.68579102 C-132.27889648 466.00129883 -133.24504883 465.31680664 -134.24047852 464.61157227 C-136.32111515 463.15050299 -138.40184694 461.68956921 -140.48266602 460.22875977 C-141.54453125 459.48078125 -142.60639648 458.73280273 -143.70043945 457.9621582 C-148.57532812 454.53424359 -153.4707329 451.13604076 -158.36547852 447.73657227 C-160.27834519 446.40599584 -162.19110523 445.0752661 -164.10375977 443.74438477 C-167.9755986 441.05087446 -171.84805657 438.3582574 -175.72094727 435.66625977 C-184.92556746 429.26722318 -194.12402329 422.85988127 -203.30297852 416.42407227 C-209.77151235 411.88907788 -216.26191437 407.38857271 -222.78027344 402.92553711 C-229.05972908 398.61939942 -235.29151849 394.24577372 -241.51391602 389.85766602 C-242.29508789 389.30852539 -243.07625977 388.75938477 -243.88110352 388.19360352 C-244.6243796 387.6515348 -245.36765568 387.10946608 -246.13345528 386.55097103 C-248.83781048 384.65731231 -248.83781048 384.65731231 -251.91706657 383.31152439 C-259.88784163 379.23346156 -259.88784163 379.23346156 -261.5761323 374.9215591 C-262.78900101 369.32107103 -262.60798224 363.59149061 -262.5769043 357.890625 C-262.60956392 355.96298123 -262.64715901 354.03541573 -262.68930054 352.10795593 C-262.78657076 346.88390369 -262.80665951 341.66229378 -262.80670023 336.43743396 C-262.81217284 332.06651454 -262.85141008 327.69613284 -262.88928783 323.32539421 C-262.97655682 313.00404171 -262.99704383 302.68396456 -262.97924805 292.36230469 C-262.96238315 281.74091627 -263.07122538 271.12594776 -263.24033749 260.50603527 C-263.38059265 251.36737415 -263.43506567 242.23078584 -263.42346942 233.09106213 C-263.41782413 227.64083236 -263.44526413 222.19596619 -263.55832291 216.74679375 C-264.19424349 183.729816 -264.19424349 183.729816 -258.68922806 175.47213364 C-253.63940618 170.43619148 -248.01571083 167.38588758 -241.42214203 164.79632759 C-237.94003751 163.35297035 -235.24961887 161.42404382 -232.24829102 159.15844727 C-230.9218457 158.23322266 -230.9218457 158.23322266 -229.56860352 157.28930664 C-228.29243164 156.39695312 -228.29243164 156.39695312 -226.99047852 155.48657227 C-220.62904836 151.04986053 -214.26283969 146.6213366 -207.86547852 142.23657227 C-201.34462937 137.76640126 -194.85295403 133.25502082 -188.36547852 128.73657227 C-178.60633526 121.94023906 -168.81836417 115.18770851 -159.0090332 108.46411133 C-149.42975987 101.89618136 -139.88626642 95.2782225 -130.35546875 88.64013672 C-124.25246361 84.39134933 -118.13563655 80.16391331 -112.00219727 75.95922852 C-106.10481017 71.91153106 -100.23493187 67.82463511 -94.36547852 63.73657227 C-87.26002669 58.78763889 -80.14416174 53.85529221 -73.00219727 48.95922852 C-67.10480986 44.91153085 -61.23495988 40.82459534 -55.36547852 36.73657227 C-46.85672428 30.81101841 -38.33083586 24.91183167 -29.77905273 19.04858398 C-27.04286422 17.17255986 -24.30748354 15.2953649 -21.57324219 13.41650391 C-20.20604348 12.47784691 -18.83775031 11.54078167 -17.46826172 10.60546875 C-14.5352768 8.59799537 -11.63826043 6.56860345 -8.77954102 4.45532227 C-7.90040039 3.80563477 -7.02125977 3.15594727 -6.11547852 2.48657227 C-5.00946289 1.64352539 -5.00946289 1.64352539 -3.88110352 0.78344727 C-1.86547852 -0.26342773 -1.86547852 -0.26342773 0 0 Z " fill="#008B7C" transform="translate(453.865478515625,121.263427734375)"/>
<path d="M0 0 C5.60657752 3.07168874 10.78976788 6.55160981 16 10.25 C17.7809771 11.50559551 19.56223843 12.76078793 21.34375 14.015625 C22.26929688 14.66853516 23.19484375 15.32144531 24.1484375 15.99414062 C28.91837798 19.34943437 33.70983483 22.67367574 38.5 26 C45.67573226 30.98713392 52.84373945 35.98496586 60 41 C70.9807786 48.69432038 81.99001024 56.34756282 93 64 C107.35114504 73.9746901 121.68942972 83.96716202 136 94 C133.50039686 95.97984604 131.22887664 97.47757411 128.25390625 98.62109375 C127.515354 98.90992432 126.77680176 99.19875488 126.01586914 99.49633789 C125.20625732 99.80692139 124.39664551 100.11750488 123.5625 100.4375 C121.73889923 101.15190203 119.91602401 101.86815797 118.09375 102.5859375 C117.10890625 102.97362305 116.1240625 103.36130859 115.109375 103.76074219 C109.56931128 105.96876382 104.06829062 108.27066301 98.5625 110.5625 C86.44312521 115.59722393 74.28902702 120.54242635 62.1222229 125.46130371 C51.64497898 129.69817573 41.1862059 133.97554962 30.75 138.3125 C22.08495059 141.91212002 13.4041348 145.46459184 4.6875 148.9375 C-4.48472104 152.59411989 -13.6546123 156.25615856 -22.81015015 159.95437622 C-24.20653079 160.51764391 -25.60350606 161.07944018 -27.00112915 161.63961792 C-31.35271827 163.38435542 -35.68317465 165.17078943 -40 167 C-40.97630371 167.40645752 -41.95260742 167.81291504 -42.95849609 168.23168945 C-49.01855482 170.96283261 -52.23655205 173.96913257 -55.75 179.5625 C-56.76502412 181.08503618 -57.78067571 182.60715418 -58.796875 184.12890625 C-59.31701172 184.92441895 -59.83714844 185.71993164 -60.37304688 186.53955078 C-63.16025385 190.75465762 -66.08874061 194.87009246 -69 199 C-70.18677614 200.69490777 -71.37297793 202.39021786 -72.55859375 204.0859375 C-79.76344086 214.37742718 -87.00119455 224.64119815 -94.375 234.8125 C-99.04415164 241.26081158 -103.67075123 247.73749831 -108.25 254.25 C-108.79188965 255.01675049 -109.3337793 255.78350098 -109.89208984 256.57348633 C-111.61655019 259.03466725 -113.31126431 261.51417198 -115 264 C-115.70560059 265.02101807 -116.41120117 266.04203613 -117.13818359 267.09399414 C-123.3241099 276.2286821 -127.79408934 285.81609588 -132.125 295.9375 C-133.12706442 298.24896428 -134.13259794 300.55889685 -135.13848877 302.86869812 C-135.79818392 304.38380824 -136.45668402 305.89943929 -137.11395264 307.41560364 C-141.02547874 316.41507639 -145.20460691 325.28385086 -149.46875 334.12109375 C-150.14656955 335.55954915 -150.82368614 336.99833606 -151.5 338.4375 C-152.03753906 339.52321289 -152.03753906 339.52321289 -152.5859375 340.63085938 C-158.97523463 354.43718941 -148.85878033 375.15373411 -144.78125 388.9453125 C-141.94331886 398.56699511 -139.19425487 408.2088411 -136.59765625 417.8984375 C-136.39075165 418.67043488 -136.18384705 419.44243225 -135.97067261 420.23782349 C-135.12165773 423.4092943 -134.27362622 426.58101549 -133.42993164 429.75390625 C-130.85269502 439.43673878 -128.12589962 449.03351261 -125.04394531 458.56884766 C-123.69757735 462.99397755 -122.7349883 467.43649057 -122 472 C-129.55506635 467.42369329 -136.68878096 462.38442529 -143.81982422 457.18286133 C-149.31391781 453.1872084 -154.87753273 449.3125187 -160.5 445.5 C-169.23015012 439.577132 -177.7925301 433.44003834 -186.30859375 427.21411133 C-187.84853714 426.10872183 -189.42276278 425.05149148 -191 424 C-191.36749268 422.03927612 -191.36749268 422.03927612 -191.35644531 419.56201172 C-191.35931549 418.60901688 -191.36218567 417.65602203 -191.36514282 416.67414856 C-191.35292694 415.60347641 -191.34071106 414.53280426 -191.328125 413.4296875 C-191.32743011 412.27067429 -191.32673523 411.11166107 -191.32601929 409.91752625 C-191.3184 405.90305304 -191.2869573 401.88928256 -191.25 397.875 C-191.23787601 396.4577547 -191.2258945 395.04050817 -191.21405029 393.6232605 C-191.20800089 392.90186921 -191.20195148 392.18047792 -191.19571877 391.4372263 C-191.16991514 388.30525865 -191.14535236 385.1732824 -191.12143326 382.04129982 C-191.10802038 380.3390919 -191.09368307 378.63689104 -191.0784874 376.9346981 C-190.96103822 363.37992813 -191.05010094 349.83330905 -191.23548126 336.27960205 C-191.3918599 324.75305285 -191.48193212 313.22689342 -191.53505707 301.69941711 C-191.57117909 294.40417629 -191.64045838 287.1119931 -191.78625488 279.8180542 C-191.91262298 273.495404 -191.97597758 267.17581166 -191.96302712 260.85185438 C-191.95845434 257.56737127 -191.99351135 254.29162931 -192.08826828 251.0083065 C-192.62552289 231.4978829 -192.62552289 231.4978829 -188.26210785 225.68467331 C-184.08706699 221.67899705 -179.40659522 218.84821093 -174.28152943 216.21821404 C-170.75273533 214.33402773 -167.55430556 212.020682 -164.3125 209.6875 C-163.00221552 208.79033116 -161.69123212 207.89418015 -160.37890625 207 C-155.14904879 203.42494493 -149.94957878 199.80639307 -144.75 196.1875 C-143.77192383 195.506875 -142.79384766 194.82625 -141.78613281 194.125 C-134.53661998 189.07687237 -127.30078645 184.00940043 -120.06738281 178.93823242 C-114.43001207 174.9901539 -108.76725901 171.08099368 -103.08959961 167.19116211 C-95.95510816 162.29635003 -88.87277954 157.32725185 -81.7890625 152.359375 C-80.62358887 151.54436523 -80.62358887 151.54436523 -79.43457031 150.71289062 C-77.69841335 149.49138268 -75.96933314 148.25979048 -74.24511719 147.02148438 C-73.34696289 146.38017578 -72.44880859 145.73886719 -71.5234375 145.078125 C-70.70536621 144.4893457 -69.88729492 143.90056641 -69.04443359 143.29394531 C-67 142 -67 142 -65 142 C-65.03330917 140.19715042 -65.03330917 140.19715042 -65.06729126 138.35787964 C-65.27004661 127.02865951 -65.41992825 115.69980751 -65.51812172 104.36918449 C-65.57030293 98.54385624 -65.64106777 92.71999286 -65.75439453 86.89550781 C-65.86309011 81.27383176 -65.92284918 75.65356389 -65.94877243 70.03091812 C-65.96724387 67.88651476 -66.00331735 65.7421882 -66.05730057 63.59838486 C-66.46521035 46.72757778 -66.46521035 46.72757778 -62.84783936 42.46246338 C-60.18896484 40.88720703 -60.18896484 40.88720703 -57.54379272 39.93655396 C-54.54712192 38.83326285 -53.12838678 37.33940273 -51 35 C-49.73380402 34.03792575 -48.43970719 33.11153066 -47.12109375 32.22265625 C-46.37424316 31.71573242 -45.62739258 31.20880859 -44.85791016 30.68652344 C-44.0591748 30.1505957 -43.26043945 29.61466797 -42.4375 29.0625 C-40.72518794 27.90245072 -39.0129505 26.74229129 -37.30078125 25.58203125 C-35.9852124 24.69378662 -35.9852124 24.69378662 -34.64306641 23.78759766 C-30.45927272 20.9579526 -26.29224207 18.10393966 -22.125 15.25 C-21.3407666 14.71358887 -20.5565332 14.17717773 -19.74853516 13.62451172 C-13.14816719 9.10817837 -6.56793721 4.56336032 0 0 Z " fill="#EA788B" transform="translate(572,204)"/>
<path d="M0 0 C0.04633418 9.57930265 0.08187471 19.15856675 0.10362434 28.737957 C0.1140629 33.18602201 0.12822345 37.63401036 0.15087891 42.08203125 C0.17260467 46.37436934 0.18456808 50.66663369 0.18975449 54.95902252 C0.19345072 56.59688732 0.20066849 58.23474807 0.21146011 59.87258148 C0.22597155 62.16611972 0.2279781 64.45935295 0.22705078 66.75292969 C0.231492 68.05864929 0.23593323 69.3643689 0.24050903 70.70965576 C0.01472518 73.79854846 -0.29375289 75.46331289 -2 78 C-3.875 79.484375 -3.875 79.484375 -6 80.75 C-6.70125 81.17796875 -7.4025 81.6059375 -8.125 82.046875 C-10 83 -10 83 -12 83 C-11.95114655 84.18191422 -11.90229309 85.36382843 -11.85195923 86.58155823 C-11.40406194 97.77416671 -11.0753377 108.96493917 -10.86013222 120.16450596 C-10.74574803 125.92200816 -10.59099357 131.67222867 -10.34033203 137.42553711 C-8.71259722 175.77423989 -8.71259722 175.77423989 -14.06317139 183.487854 C-18.97141398 188.63905233 -24.50831801 191.39518666 -31.12289429 193.80569458 C-36.05110451 195.85142691 -40.12513308 199.07236495 -44.375 202.25 C-46.02519035 203.41636265 -47.67839374 204.5784863 -49.3359375 205.734375 C-50.51687988 206.56291992 -50.51687988 206.56291992 -51.72167969 207.40820312 C-55.13400953 209.79229984 -58.56557266 212.14789566 -62 214.5 C-68.72619406 219.10864146 -75.4101613 223.77572069 -82.0859375 228.45703125 C-88.54680885 232.98650404 -95.0206118 237.4970614 -101.5 242 C-109.94432313 247.86869393 -118.37620741 253.75478018 -126.79492188 259.66015625 C-127.56900391 260.20285156 -128.34308594 260.74554688 -129.140625 261.3046875 C-129.81641602 261.77890137 -130.49220703 262.25311523 -131.18847656 262.74169922 C-132.77933706 263.8467255 -134.38832906 264.92555271 -136 266 C-136.44901849 268.32031654 -136.44901849 268.32031654 -136.36508179 271.0662384 C-136.37039413 272.13877365 -136.37570648 273.2113089 -136.38117981 274.31634521 C-136.3718895 275.49819397 -136.36259918 276.68004272 -136.35302734 277.89770508 C-136.35518753 279.1384227 -136.35734772 280.37914032 -136.35957336 281.65745544 C-136.36266864 284.35976374 -136.36041136 287.06148006 -136.34955978 289.76371193 C-136.33322802 294.03736479 -136.34165116 298.3107444 -136.35440063 302.58439636 C-136.3845526 313.97094587 -136.3830695 325.35744715 -136.36414778 336.74401635 C-136.35181293 344.22101891 -136.35368147 351.69771292 -136.38253558 359.17467993 C-136.39777337 363.42193482 -136.39028198 367.66835287 -136.36582541 371.9155556 C-136.35338204 375.18180534 -136.37333371 378.44788894 -136.38818359 381.71411133 C-136.36817543 383.47777542 -136.36817543 383.47777542 -136.34776306 385.27706909 C-136.42854897 393.25087984 -136.42854897 393.25087984 -139.42308044 397.17643738 C-140.2734639 397.77821304 -141.12384735 398.37998871 -142 399 C-142.60803467 399.48275391 -143.21606934 399.96550781 -143.8425293 400.46289062 C-144.41398682 400.85669922 -144.98544434 401.25050781 -145.57421875 401.65625 C-146.23301025 402.11507568 -146.89180176 402.57390137 -147.57055664 403.04663086 C-148.6184436 403.76604858 -148.6184436 403.76604858 -149.6875 404.5 C-151.20124686 405.55234183 -152.71424179 406.60576593 -154.2265625 407.66015625 C-155.00805664 408.20430176 -155.78955078 408.74844727 -156.59472656 409.30908203 C-161.36051711 412.65945407 -166.05976558 416.10336712 -170.75854492 419.546875 C-171.45826416 420.05605469 -172.1579834 420.56523438 -172.87890625 421.08984375 C-173.78491577 421.75294556 -173.78491577 421.75294556 -174.70922852 422.42944336 C-176.82328275 423.87884237 -178.96772209 425.24339685 -181.14317322 426.59815979 C-182.22591727 427.27299581 -182.22591727 427.27299581 -183.33053493 427.96146488 C-184.15692014 428.47553977 -184.15692014 428.47553977 -185 429 C-185.37410339 403.76573505 -185.65607249 378.53188679 -185.82899475 353.29540539 C-185.9114284 341.5769336 -186.02376381 329.86018668 -186.20703125 318.14282227 C-186.36673185 307.92733624 -186.46978179 297.71309937 -186.50541592 287.4963997 C-186.52624202 282.08810476 -186.57500753 276.68338253 -186.69168091 271.27623558 C-186.80074211 266.1803236 -186.83370604 261.08943418 -186.8097229 255.99246597 C-186.81410579 254.12785402 -186.84569318 252.26306505 -186.9072876 250.39946556 C-187.33776108 236.6967124 -187.33776108 236.6967124 -183.41630936 232.17314172 C-179.57290618 228.83358938 -175.34358841 226.32826899 -170.84127045 223.98220313 C-168.5610947 222.76587135 -166.4960674 221.33056669 -164.421875 219.79296875 C-163.80973145 219.35927979 -163.19758789 218.92559082 -162.56689453 218.47875977 C-161.66753174 217.83958618 -161.66753174 217.83958618 -160.75 217.1875 C-159.32573649 216.17938275 -157.9012474 215.17158414 -156.4765625 214.1640625 C-155.74985352 213.65004883 -155.02314453 213.13603516 -154.27441406 212.60644531 C-150.23044164 209.75014019 -146.17889413 206.90470056 -142.125 204.0625 C-141.30064453 203.48363037 -140.47628906 202.90476074 -139.62695312 202.30834961 C-135.27956565 199.26390968 -130.91170752 196.25517747 -126.5078125 193.29296875 C-125.62593262 192.69798584 -124.74405273 192.10300293 -123.83544922 191.48999023 C-122.14059417 190.34936399 -120.44181786 189.21453808 -118.73876953 188.08618164 C-117.60737549 187.32422485 -117.60737549 187.32422485 -116.453125 186.546875 C-115.78442383 186.10182617 -115.11572266 185.65677734 -114.42675781 185.19824219 C-113.95592773 184.80282227 -113.48509766 184.40740234 -113 184 C-113 183.34 -113 182.68 -113 182 C-114.44686637 180.80729154 -114.44686637 180.80729154 -116.3828125 179.671875 C-117.49849609 178.97771484 -117.49849609 178.97771484 -118.63671875 178.26953125 C-119.45785156 177.76808594 -120.27898437 177.26664063 -121.125 176.75 C-122.87796723 175.6620431 -124.63055664 174.57347726 -126.3828125 173.484375 C-127.30481445 172.91396484 -128.22681641 172.34355469 -129.17675781 171.75585938 C-133.80865735 168.8751415 -138.40282184 165.93568474 -143 163 C-149.95113151 158.57190783 -156.90788993 154.1529108 -163.875 149.75 C-165.02415894 149.02224365 -165.02415894 149.02224365 -166.1965332 148.27978516 C-170.02682308 145.85837047 -173.86962196 143.46126094 -177.73828125 141.1015625 C-178.86290771 140.41175293 -178.86290771 140.41175293 -180.01025391 139.70800781 C-181.42933222 138.83918436 -182.85203638 137.97624714 -184.27880859 137.12011719 C-185.88661535 136.13357461 -187.4491364 135.07383935 -189 134 C-189 133.34 -189 132.68 -189 132 C-187.54150391 130.78588867 -187.54150391 130.78588867 -185.4765625 129.41796875 C-184.32957886 128.64815674 -184.32957886 128.64815674 -183.15942383 127.86279297 C-182.32306396 127.30994629 -181.4867041 126.75709961 -180.625 126.1875 C-173.93505652 121.69401988 -167.32293527 117.12504784 -160.8125 112.375 C-154.6620547 107.89940517 -148.45762036 103.52203805 -142.17675781 99.23168945 C-129.83552427 90.79831085 -117.63318067 82.16245197 -105.42724609 73.53491211 C-95.78841352 66.72528243 -86.11034958 59.97155209 -76.43847656 53.20898438 C-67.08951613 46.67149962 -57.74799345 40.1241867 -48.43286133 33.53857422 C-42.96647367 29.67626503 -37.48519188 25.83554558 -32 22 C-25.49224026 17.44847183 -18.989983 12.88934888 -12.5 8.3125 C-11.80003906 7.81943359 -11.10007812 7.32636719 -10.37890625 6.81835938 C-7.75586444 4.96664768 -5.14868208 3.11320113 -2.59375 1.16796875 C-1 0 -1 0 0 0 Z " fill="#051C18" transform="translate(519,166)"/>
<path d="M0 0 C0.66 0 1.32 0 2 0 C2.25694892 25.43405092 2.45093124 50.86790738 2.56993389 76.30299473 C2.62665765 88.11300095 2.70399136 99.92220081 2.82983398 111.73168945 C2.93946542 122.02477217 3.01043798 132.31727099 3.03497344 142.61092132 C3.04931669 148.06184574 3.08302416 153.51109973 3.16303062 158.96148872 C3.23774256 164.09280172 3.26072052 169.22175806 3.24418449 174.35356331 C3.24720895 176.23583288 3.2690704 178.11818181 3.31126022 179.99998093 C3.61473711 194.23518015 3.61473711 194.23518015 -0.38135338 198.60268974 C-3.19341779 200.41033668 -5.92369325 201.70986277 -9 203 C-10.46359982 203.97165573 -11.90628847 204.97696006 -13.30859375 206.03515625 C-13.98220947 206.52701416 -14.6558252 207.01887207 -15.34985352 207.52563477 C-16.03877686 208.03280029 -16.7277002 208.53996582 -17.4375 209.0625 C-23.93240216 213.79794831 -30.47045258 218.46320486 -37.0625 223.0625 C-37.90006836 223.64700928 -38.73763672 224.23151855 -39.60058594 224.83374023 C-41.26591488 225.99581931 -42.93127893 227.15784807 -44.59667969 228.31982422 C-48.301745 230.91005781 -51.99550195 233.51618792 -55.6875 236.125 C-56.3794043 236.61379639 -57.07130859 237.10259277 -57.78417969 237.60620117 C-59.85635405 239.07046971 -61.92823361 240.53515429 -64 242 C-73.83334186 248.95267995 -83.68212824 255.88239169 -93.55126953 262.78417969 C-101.71846719 268.49790894 -109.86142472 274.24560744 -118 280 C-127.83334186 286.95267995 -137.68212824 293.88239169 -147.55126953 300.78417969 C-155.02389806 306.01199197 -162.47659624 311.2676338 -169.92333984 316.53222656 C-174.15809884 319.52533391 -178.39547453 322.51473609 -182.63232422 325.50488281 C-186.13722329 327.97864556 -189.64155467 330.45320299 -193.14453125 332.9296875 C-200.75010015 338.30505199 -208.36786858 343.66240555 -216 349 C-222.42185389 353.4926346 -228.84176043 357.98795966 -235.25 362.5 C-235.91644531 362.96792969 -236.58289063 363.43585938 -237.26953125 363.91796875 C-241.35048813 366.79524946 -245.32090092 369.77215667 -249.22949219 372.88085938 C-251 374 -251 374 -254 374 C-252.2439984 370.16527218 -249.91167846 366.73730946 -247.5625 363.25 C-247.12075439 362.5909668 -246.67900879 361.93193359 -246.22387695 361.25292969 C-242.16697479 355.21574546 -238.0483042 349.22145355 -233.91796875 343.234375 C-230.7659769 338.66490028 -227.63258306 334.08279316 -224.5 329.5 C-219.12664066 321.64200563 -213.73910953 313.79388853 -208.34277344 305.95166016 C-205.59918837 301.96398397 -202.85752065 297.97498904 -200.11572266 293.98608398 C-197.87530066 290.72682038 -195.63405664 287.46813036 -193.390625 284.2109375 C-187.41916299 275.53809982 -181.48062697 266.84320913 -175.55224609 258.14086914 C-171.40190272 252.05049627 -167.23737185 245.9702092 -163.05810547 239.8996582 C-158.46642812 233.22893845 -153.89463988 226.54466996 -149.32421875 219.859375 C-147.12185829 216.63830155 -144.9159621 213.41969592 -142.70703125 210.203125 C-136.86907582 201.69683753 -131.08858158 193.15696965 -125.38085938 184.56274414 C-120.77477703 177.63764841 -116.06977113 170.78330961 -111.34130859 163.94140625 C-109.14012126 160.75541395 -106.94456477 157.56555646 -104.75 154.375 C-104.0847229 153.40796143 -104.0847229 153.40796143 -103.40600586 152.42138672 C-98.76876734 145.67438789 -94.16157152 138.90695213 -89.55224609 132.14086914 C-85.40339013 126.05267895 -81.24057916 119.97441259 -77.0625 113.90625 C-73.53190739 108.77748973 -70.0143608 103.63989409 -66.5 98.5 C-62.50765001 92.66137844 -58.50955531 86.82681997 -54.5 81 C-50.53327979 75.23488878 -46.57606395 69.46335252 -42.625 63.6875 C-42.07884033 62.88924805 -41.53268066 62.09099609 -40.9699707 61.26855469 C-38.26005676 57.30702288 -35.55212005 53.3441609 -32.84765625 49.37890625 C-31.79438527 47.83585938 -30.74099938 46.29289094 -29.6875 44.75 C-28.90366943 43.60108276 -28.90366943 43.60108276 -28.10400391 42.42895508 C-25.03109768 37.93511853 -21.92902012 33.46333364 -18.80078125 29.0078125 C-18.08639893 27.98848633 -17.3720166 26.96916016 -16.63598633 25.91894531 C-15.25031558 23.9442576 -13.86104125 21.9720918 -12.4675293 20.00292969 C-8.61095518 14.50423593 -5.11459557 8.95254177 -2 3 C-1.34 3 -0.68 3 0 3 C0 2.01 0 1.02 0 0 Z " fill="#B76272" transform="translate(706,299)"/>
<path d="M0 0 C2.44522725 0.84378939 4.19572139 1.97398727 6.30249023 3.47485352 C7.10428711 4.04139648 7.90608398 4.60793945 8.73217773 5.19165039 C9.58682617 5.80459961 10.44147461 6.41754883 11.32202148 7.04907227 C12.21405273 7.68135742 13.10608398 8.31364258 14.02514648 8.96508789 C15.85812218 10.264858 17.68933865 11.56711253 19.51879883 12.87182617 C22.53888703 15.02484406 25.56806622 17.16467073 28.59960938 19.30151367 C29.95787952 20.25939153 31.31513767 21.21870599 32.67138672 22.17944336 C36.58545956 24.95050918 40.51580206 27.69593929 44.46264648 30.42016602 C45.3643457 31.0447168 46.26604492 31.66926758 47.19506836 32.31274414 C48.94341852 33.52274973 50.6945773 34.72871064 52.44897461 35.92993164 C56.75520935 38.91544871 60.58430868 41.87607664 64.13452148 45.73657227 C55.93944699 51.82400548 47.68277121 57.78989987 39.25073242 63.54516602 C34.43109898 66.83707534 29.64790971 70.1763246 24.88452148 73.54907227 C18.70900823 77.92051899 12.52183839 82.27465072 6.32202148 86.61157227 C5.48791748 87.19511475 4.65381348 87.77865723 3.79443359 88.37988281 C0.38758609 90.76287696 -3.01971839 93.1452173 -6.42700195 95.52758789 C-15.08436626 101.58145747 -23.73891214 107.63886747 -32.36547852 113.73657227 C-42.69357826 121.03700915 -53.06167474 128.28015743 -63.42700195 135.52758789 C-72.76946317 142.06052791 -82.10588775 148.60135972 -91.4128418 155.18481445 C-95.29647756 157.92996975 -99.18803697 160.66328186 -103.08813477 163.38500977 C-103.97629883 164.00504883 -104.86446289 164.62508789 -105.77954102 165.26391602 C-107.49092761 166.45784796 -109.20311232 167.65063706 -110.91625977 168.84204102 C-112.49029522 169.9402651 -114.06040688 171.04413796 -115.6262207 172.15405273 C-117.08449034 173.18463535 -118.55353926 174.20018456 -120.03442383 175.19799805 C-125.13833045 178.76157986 -128.23766 182.59272628 -131.49047852 187.86157227 C-132.5246302 189.47243044 -133.56118152 191.08175005 -134.59985352 192.68969727 C-135.13288086 193.52049805 -135.6659082 194.35129883 -136.21508789 195.20727539 C-138.95818637 199.41119555 -141.84748832 203.50997478 -144.74047852 207.61157227 C-145.31870361 208.43302734 -145.89692871 209.25448242 -146.49267578 210.10083008 C-147.6759226 211.78179572 -148.85960143 213.46245734 -150.04370117 215.14282227 C-151.93443378 217.83474711 -153.81344383 220.53453833 -155.68969727 223.23657227 C-156.31569824 224.13649902 -156.94169922 225.03642578 -157.58666992 225.96362305 C-158.7797449 227.67936042 -159.97094602 229.39640294 -161.15991211 231.11499023 C-164.21722454 235.50290884 -167.3700915 239.68791169 -170.86547852 243.73657227 C-179.72802263 238.3003681 -188.17990208 232.34669617 -196.64379883 226.31713867 C-200.21031108 223.77981995 -203.78828788 221.25880183 -207.36547852 218.73657227 C-208.78220386 217.7366554 -210.19887045 216.73665527 -211.61547852 215.73657227 C-212.66735352 214.99407227 -212.66735352 214.99407227 -213.74047852 214.23657227 C-215.86547852 212.73657227 -217.99047852 211.23657227 -220.11547852 209.73657227 C-220.81721191 209.24125 -221.51894531 208.74592773 -222.24194336 208.2355957 C-223.65379944 207.23895322 -225.06558369 206.24220898 -226.47729492 205.24536133 C-230.09197121 202.6931378 -233.70800769 200.1428775 -237.32641602 197.59594727 C-240.87167289 195.10005527 -244.41236965 192.5978218 -247.94995117 190.09106445 C-249.75559135 188.81427479 -251.56611771 187.54468965 -253.37719727 186.27563477 C-254.38395508 185.56149414 -255.39071289 184.84735352 -256.42797852 184.11157227 C-257.29551758 183.50055664 -258.16305664 182.88954102 -259.05688477 182.26000977 C-259.6537207 181.75727539 -260.25055664 181.25454102 -260.86547852 180.73657227 C-260.86547852 180.07657227 -260.86547852 179.41657227 -260.86547852 178.73657227 C-259.2109375 177.38647461 -259.2109375 177.38647461 -256.86157227 175.82250977 C-255.98710449 175.234375 -255.11263672 174.64624023 -254.21166992 174.0402832 C-253.25180176 173.40380859 -252.29193359 172.76733398 -251.30297852 172.11157227 C-249.27751617 170.75066819 -247.25280008 169.3886529 -245.22875977 168.02563477 C-244.17769043 167.31955078 -243.12662109 166.6134668 -242.04370117 165.88598633 C-236.99134043 162.46910325 -231.99064898 158.97919364 -226.99047852 155.48657227 C-220.62887193 151.05011215 -214.26284157 146.62133789 -207.86547852 142.23657227 C-201.34462937 137.76640126 -194.85295403 133.25502082 -188.36547852 128.73657227 C-178.60633526 121.94023906 -168.81836417 115.18770851 -159.0090332 108.46411133 C-149.42975987 101.89618136 -139.88626642 95.2782225 -130.35546875 88.64013672 C-124.25246361 84.39134933 -118.13563655 80.16391331 -112.00219727 75.95922852 C-106.10481017 71.91153106 -100.23493187 67.82463511 -94.36547852 63.73657227 C-87.26002669 58.78763889 -80.14416174 53.85529221 -73.00219727 48.95922852 C-67.10480986 44.91153085 -61.23495988 40.82459534 -55.36547852 36.73657227 C-46.85672428 30.81101841 -38.33083586 24.91183167 -29.77905273 19.04858398 C-27.04286422 17.17255986 -24.30748354 15.2953649 -21.57324219 13.41650391 C-20.20604348 12.47784691 -18.83775031 11.54078167 -17.46826172 10.60546875 C-14.5352768 8.59799537 -11.63826043 6.56860345 -8.77954102 4.45532227 C-7.90040039 3.80563477 -7.02125977 3.15594727 -6.11547852 2.48657227 C-5.00946289 1.64352539 -5.00946289 1.64352539 -3.88110352 0.78344727 C-1.86547852 -0.26342773 -1.86547852 -0.26342773 0 0 Z " fill="#399389" transform="translate(453.865478515625,121.263427734375)"/>
<path d="M0 0 C3.61199514 2.40799676 3.72413002 4.13476488 4.96484375 8.125 C6.40543267 12.12603186 8.33383958 15.8284253 10.26367188 19.61279297 C13.99585178 26.94806249 17.60173893 34.34242533 21.1875 41.75 C21.50909088 42.41381683 21.83068176 43.07763367 22.16201782 43.76156616 C27.41356183 54.61124595 32.5185845 65.52301534 37.56591797 76.46899414 C40.68582362 83.21971551 43.88565308 89.91359119 47.25561523 96.54272461 C49.95219823 101.85504319 52.47993607 107.2391036 54.99682617 112.63842773 C57.61350473 118.23055926 60.35828623 123.75054772 63.140625 129.26171875 C65.17513292 133.30670498 67.12220283 137.37899647 69 141.5 C71.07560053 146.04865649 73.24589477 150.53774421 75.5 155 C79.35693195 162.64586236 83.09309107 170.34906401 86.8125 178.0625 C87.11632599 178.69254944 87.42015198 179.32259888 87.73318481 179.97174072 C92.09005446 189.01035517 96.42372457 198.05996749 100.74536133 207.11547852 C104.95482386 215.92653256 109.2114858 224.71453662 113.47018433 233.50186157 C118.12597775 243.10921092 122.75303314 252.72956132 127.33520508 262.37231445 C129.25456296 266.40058286 131.1925403 270.413012 133.23046875 274.3828125 C133.56498047 275.03564209 133.89949219 275.68847168 134.24414062 276.36108398 C135.10625642 278.03020621 135.98025482 279.69317719 136.85546875 281.35546875 C138 284 138 284 138 288 C138.66 288 139.32 288 140 288 C140.33 289.65 140.66 291.3 141 293 C135.39341707 289.92830829 130.21026491 286.44834606 125 282.75 C123.21510613 281.4918152 121.42993915 280.23401777 119.64453125 278.9765625 C118.71850098 278.32333008 117.7924707 277.67009766 116.83837891 276.99707031 C112.13456029 273.68748522 107.4108741 270.40658682 102.6875 267.125 C100.74738802 265.7760529 98.80728391 264.42709449 96.8671875 263.078125 C94.91148436 261.71871255 92.95575514 260.35933763 91 259 C87.10390677 256.29204029 83.20802541 253.5837765 79.3125 250.875 C77.88574951 249.88294556 77.88574951 249.88294556 76.43017578 248.87084961 C70.13190969 244.48923614 63.84463139 240.09220584 57.5625 235.6875 C51.09396617 231.15250561 44.60356414 226.65200044 38.08520508 222.18896484 C31.80574944 217.88282715 25.57396003 213.50920145 19.3515625 209.12109375 C18.57039063 208.57195312 17.78921875 208.0228125 16.984375 207.45703125 C16.24154896 206.91489235 15.49872292 206.37275345 14.73338699 205.8141861 C12.02677424 203.91897728 12.02677424 203.91897728 8.93613815 202.57686615 C0.93917981 198.50152199 0.93917981 198.50152199 -0.68322659 194.18021393 C-1.8012366 188.54885766 -1.50223241 182.8090647 -1.36230469 177.09960938 C-1.35891728 175.16742159 -1.36082475 173.23521837 -1.36761475 171.30303955 C-1.371052 166.07091387 -1.3006115 160.84210283 -1.21672726 155.61074638 C-1.14160601 150.13898499 -1.13465447 144.66714378 -1.12042236 139.19494629 C-1.08315466 128.83885245 -0.98472487 118.48428244 -0.86422849 108.12885904 C-0.73000338 96.33709432 -0.66409715 84.54525602 -0.60388327 72.75291729 C-0.47852061 48.50110068 -0.26751121 24.25063579 0 0 Z " fill="#008C7D" transform="translate(193,302)"/>
<path d="M0 0 C0.04630573 9.59657342 0.0818602 19.19310848 0.10362434 28.78976917 C0.11406913 33.24570978 0.12824099 37.70157404 0.15087891 42.1574707 C0.17258254 46.45628804 0.18456339 50.75503187 0.18975449 55.05389977 C0.19345471 56.69538213 0.20068017 58.3368604 0.21146011 59.97831154 C0.22594217 62.27444838 0.22797934 64.57028004 0.22705078 66.86645508 C0.231492 68.17439529 0.23593323 69.48233551 0.24050903 70.82991028 C0 74 0 74 -2 77 C-2.33 53.24 -2.66 29.48 -3 5 C-6.63 11.27 -10.26 17.54 -14 24 C-16.11860495 27.60832378 -18.24007197 31.2139506 -20.375 34.8125 C-21.47658648 36.67316288 -22.57814826 38.5338404 -23.6796875 40.39453125 C-24.22850586 41.32088379 -24.77732422 42.24723633 -25.34277344 43.20166016 C-28.0654036 47.7990065 -30.78240787 52.39967447 -33.5 57 C-34.57811414 58.82422517 -35.65623916 60.64844391 -36.734375 62.47265625 C-38.95450961 66.22965299 -41.17306736 69.98757542 -43.390625 73.74609375 C-52.77430319 89.64580025 -52.77430319 89.64580025 -57.4375 97.375 C-61.14575422 103.52643964 -64.76439153 109.72833595 -68.375 115.9375 C-74.19749808 125.94813921 -80.08467419 135.91901236 -86 145.875 C-86.40482605 146.55650116 -86.8096521 147.23800232 -87.22674561 147.94015503 C-91.36294088 154.90170246 -95.50952422 161.85677516 -99.68164062 168.796875 C-100.95976638 170.93276515 -102.22439425 173.07602238 -103.484375 175.22265625 C-103.86207031 175.86267578 -104.23976563 176.50269531 -104.62890625 177.16210938 C-105.39572456 178.46195993 -106.15856378 179.76416388 -106.91796875 181.06835938 C-109.77479273 185.88739636 -109.77479273 185.88739636 -112 187 C-111.99613281 186.28714844 -111.99226563 185.57429687 -111.98828125 184.83984375 C-113.59344954 180.33421693 -117.1839573 178.90874747 -121.1875 176.5625 C-122.93155502 175.50223162 -124.67502156 174.44099477 -126.41796875 173.37890625 C-127.33368652 172.82734863 -128.2494043 172.27579102 -129.19287109 171.70751953 C-133.84252467 168.87922964 -138.41729742 165.93505304 -143 163 C-144.85635654 161.81705795 -146.71312589 160.63476345 -148.5703125 159.453125 C-149.4768457 158.87626953 -150.38337891 158.29941406 -151.31738281 157.70507812 C-155.49926569 155.04706302 -159.68621918 152.39712745 -163.875 149.75 C-165.02415894 149.02224365 -165.02415894 149.02224365 -166.1965332 148.27978516 C-170.02682308 145.85837047 -173.86962196 143.46126094 -177.73828125 141.1015625 C-178.86290771 140.41175293 -178.86290771 140.41175293 -180.01025391 139.70800781 C-181.42933222 138.83918436 -182.85203638 137.97624714 -184.27880859 137.12011719 C-185.88661535 136.13357461 -187.4491364 135.07383935 -189 134 C-189 133.34 -189 132.68 -189 132 C-187.54150391 130.78588867 -187.54150391 130.78588867 -185.4765625 129.41796875 C-184.32957886 128.64815674 -184.32957886 128.64815674 -183.15942383 127.86279297 C-182.32306396 127.30994629 -181.4867041 126.75709961 -180.625 126.1875 C-173.93505652 121.69401988 -167.32293527 117.12504784 -160.8125 112.375 C-154.6620547 107.89940517 -148.45762036 103.52203805 -142.17675781 99.23168945 C-129.83552427 90.79831085 -117.63318067 82.16245197 -105.42724609 73.53491211 C-95.78841352 66.72528243 -86.11034958 59.97155209 -76.43847656 53.20898438 C-67.08951613 46.67149962 -57.74799345 40.1241867 -48.43286133 33.53857422 C-42.96647367 29.67626503 -37.48519188 25.83554558 -32 22 C-25.49224026 17.44847183 -18.989983 12.88934888 -12.5 8.3125 C-11.80003906 7.81943359 -11.10007812 7.32636719 -10.37890625 6.81835938 C-7.75586444 4.96664768 -5.14868208 3.11320113 -2.59375 1.16796875 C-1 0 -1 0 0 0 Z " fill="#004036" transform="translate(519,166)"/>
<path d="M0 0 C0.99 0.33 1.98 0.66 3 1 C-3.37215306 10.4242115 -9.74128248 19.81613953 -16.63671875 28.8671875 C-29.13052849 45.4292295 -40.89653135 62.55324246 -52.78442383 79.55151367 C-58.01202572 87.02415104 -63.26769943 94.47668907 -68.53222656 101.92333984 C-70.52118961 104.73739834 -72.50835324 107.55272496 -74.49536133 110.36816406 C-75.49762388 111.78821219 -76.50006501 113.2081343 -77.50268555 114.62792969 C-79.99310561 118.15477599 -82.48128462 121.68316208 -84.96484375 125.21484375 C-90.60036696 133.22268213 -96.29546756 141.18196974 -102.05639648 149.10009766 C-106.71892651 155.54019539 -111.20018178 162.09760039 -115.59936523 168.72021484 C-118.43094885 172.92975425 -121.26474119 176.55999143 -125 180 C-126.0415625 179.26136719 -127.083125 178.52273438 -128.15625 177.76171875 C-135.44437504 172.60136945 -142.74786468 167.46994313 -150.125 162.4375 C-155.94938967 158.45964171 -161.65678882 154.34830999 -167.32299805 150.14892578 C-174.41875745 144.91173671 -181.70593599 139.9553628 -189 135 C-189.66 135.33 -190.32 135.66 -191 136 C-190.62655092 133.49284453 -190.29113643 132.27292358 -188.41552734 130.51464844 C-187.38613037 129.81903809 -187.38613037 129.81903809 -186.3359375 129.109375 C-185.55565186 128.57328613 -184.77536621 128.03719727 -183.97143555 127.48486328 C-183.11461182 126.9123584 -182.25778809 126.33985352 -181.375 125.75 C-179.53504451 124.49235096 -177.69520519 123.23453194 -175.85546875 121.9765625 C-174.40986572 120.99671387 -174.40986572 120.99671387 -172.93505859 119.99707031 C-168.15787303 116.74658138 -163.42562767 113.43202966 -158.6875 110.125 C-156.74379447 108.77299908 -154.79978171 107.42143974 -152.85546875 106.0703125 C-147.06925796 102.04839013 -141.28449862 98.02438435 -135.5 94 C-133.58333997 92.66665713 -131.6666733 91.3333238 -129.75 90 C-128.326875 89.01 -128.326875 89.01 -126.875 88 C-124 86 -121.125 84 -118.25 82 C-117.30068604 81.33959717 -116.35137207 80.67919434 -115.37329102 79.9987793 C-113.4623608 78.66945771 -111.55139093 77.34019311 -109.64038086 76.01098633 C-104.76061498 72.61674652 -99.88160534 69.2214281 -95.00390625 65.82421875 C-86.55928321 59.94405442 -78.11415251 54.06575536 -69.625 48.25 C-63.49188883 44.04821971 -57.41377967 39.77253803 -51.34741211 35.47509766 C-46.01238247 31.70096126 -40.63871906 27.98699991 -35.24584961 24.29614258 C-28.82529236 19.89565995 -22.4532413 15.42672317 -16.08862305 10.94580078 C-14.51139569 9.83777407 -12.93130342 8.73381237 -11.34814453 7.63427734 C-9.72640784 6.50557019 -8.11327232 5.36443946 -6.50732422 4.21337891 C-5.70955566 3.65440918 -4.91178711 3.09543945 -4.08984375 2.51953125 C-3.37562256 2.01139893 -2.66140137 1.5032666 -1.92553711 0.97973633 C-1.29010986 0.65642334 -0.65468262 0.33311035 0 0 Z " fill="#ED7E91" transform="translate(573,299)"/>
<path d="M0 0 C5.67245038 3.10507965 10.9161147 6.63514123 16.1875 10.375 C17.94764849 11.61886916 19.70807389 12.86234654 21.46875 14.10546875 C22.37238281 14.74403809 23.27601563 15.38260742 24.20703125 16.04052734 C27.03121697 18.021901 29.87192202 19.97710608 32.71875 21.92578125 C33.63503174 22.55629395 34.55131348 23.18680664 35.49536133 23.83642578 C37.2646004 25.05292806 39.03777753 26.26372636 40.81518555 27.46826172 C41.612229 28.01885254 42.40927246 28.56944336 43.23046875 29.13671875 C43.93582764 29.61842529 44.64118652 30.10013184 45.36791992 30.59643555 C47 32 47 32 48 35 C47.07885742 36.77075195 47.07885742 36.77075195 45.60546875 38.73828125 C45.06720459 39.46861572 44.52894043 40.1989502 43.97436523 40.95141602 C43.38469971 41.73057373 42.79503418 42.50973145 42.1875 43.3125 C40.97361543 44.9528713 39.76007692 46.59349875 38.546875 48.234375 C37.94166016 49.04583984 37.33644531 49.85730469 36.71289062 50.69335938 C34.41450141 53.78845362 32.17025501 56.91989848 29.9375 60.0625 C29.54409424 60.61373535 29.15068848 61.1649707 28.74536133 61.73291016 C25.96209854 65.63520517 23.19799075 69.55085502 20.43847656 73.4699707 C19.40475825 74.93612677 18.36898384 76.40083555 17.33105469 77.86401367 C15.08774918 81.02652197 12.85898017 84.19244175 10.70703125 87.41796875 C10.04058594 88.39378906 9.37414062 89.36960937 8.6875 90.375 C8.13449219 91.20773437 7.58148437 92.04046875 7.01171875 92.8984375 C4.82694088 95.18078797 2.79273825 96.07487031 -0.12817383 97.19921875 C-3.43901884 98.61562303 -6.26248635 100.73522925 -9.1875 102.8125 C-9.86748047 103.28751953 -10.54746094 103.76253906 -11.24804688 104.25195312 C-13.50280391 105.82886241 -15.75129402 107.4144765 -18 109 C-19.64144463 110.15042827 -21.28338362 111.30015144 -22.92578125 112.44921875 C-25.46896671 114.2285395 -28.01183067 116.00829742 -30.55297852 117.79052734 C-36.5424895 121.98982401 -42.55649574 126.15160724 -48.59204102 130.28442383 C-53.18518127 133.43103666 -57.74363514 136.62359299 -62.27734375 139.85546875 C-64 141 -64 141 -65 141 C-65.23175303 128.5871814 -65.4094082 116.17487768 -65.51812172 103.76033592 C-65.57030159 97.99553367 -65.6410636 92.23221182 -65.75439453 86.46826172 C-65.86309548 80.90493883 -65.92285019 75.34303899 -65.94877243 69.77873611 C-65.96724296 67.65665907 -66.00331475 65.53465957 -66.05730057 63.41318893 C-66.46521972 46.71844706 -66.46521972 46.71844706 -62.84783936 42.47589111 C-60.18896484 40.90087891 -60.18896484 40.90087891 -57.54379272 39.94424438 C-54.55202251 38.83371278 -53.12771509 37.33765114 -51 35 C-49.73380402 34.03792575 -48.43970719 33.11153066 -47.12109375 32.22265625 C-46.37424316 31.71573242 -45.62739258 31.20880859 -44.85791016 30.68652344 C-44.0591748 30.1505957 -43.26043945 29.61466797 -42.4375 29.0625 C-40.72518794 27.90245072 -39.0129505 26.74229129 -37.30078125 25.58203125 C-36.42373535 24.98986816 -35.54668945 24.39770508 -34.64306641 23.78759766 C-30.45927272 20.9579526 -26.29224207 18.10393966 -22.125 15.25 C-20.9486499 14.4453833 -20.9486499 14.4453833 -19.74853516 13.62451172 C-13.14816719 9.10817837 -6.56793721 4.56336032 0 0 Z " fill="#FD8595" transform="translate(572,204)"/>
<path d="M0 0 C5.31346429 2.08304191 9.7299551 4.64228219 14.375 7.9375 C15.06561523 8.41985107 15.75623047 8.90220215 16.46777344 9.39916992 C18.64998198 10.9260761 20.82550528 12.46213328 23 14 C24.37226188 14.96633609 25.74465579 15.9324847 27.1171875 16.8984375 C29.19166951 18.35976969 31.26474375 19.82295774 33.33447266 21.29101562 C37.32039213 24.11790887 41.32200791 26.91956142 45.34375 29.6953125 C46.24319336 30.31817139 47.14263672 30.94103027 48.06933594 31.58276367 C49.81449805 32.79023148 51.56241361 33.99373252 53.31347656 35.19262695 C57.62000702 38.17844753 61.44950157 41.13919378 65 45 C56.8049255 51.08743321 48.54824972 57.05332761 40.11621094 62.80859375 C35.2965775 66.10050307 30.51338823 69.43975234 25.75 72.8125 C19.57448674 77.18394672 13.3873169 81.53807846 7.1875 85.875 C6.353396 86.45854248 5.51929199 87.04208496 4.65991211 87.64331055 C1.2530646 90.0263047 -2.15423987 92.40864503 -5.56152344 94.79101562 C-14.21888774 100.8448852 -22.87343363 106.90229521 -31.5 113 C-41.82809975 120.30043688 -52.19619623 127.54358516 -62.56152344 134.79101562 C-71.21888953 140.84488645 -79.87324216 146.90256401 -88.5 153 C-94.91100762 157.52889102 -101.32638329 162.051507 -107.75 166.5625 C-108.59626953 167.15869141 -109.44253906 167.75488281 -110.31445312 168.36914062 C-114.13813051 171.05096116 -117.94017309 173.68127772 -122 176 C-120.40519985 171.18778328 -117.69298994 167.49651937 -114.75 163.4375 C-113.65835022 161.91181879 -112.56722562 160.3857617 -111.4765625 158.859375 C-110.90583008 158.06337891 -110.33509766 157.26738281 -109.74707031 156.44726562 C-106.8441476 152.38090212 -103.98558967 148.28370046 -101.125 144.1875 C-99.94670554 142.50254056 -98.76831931 140.81764529 -97.58984375 139.1328125 C-97.00058105 138.29008789 -96.41131836 137.44736328 -95.80419922 136.57910156 C-93.97616749 133.96593144 -92.14653548 131.353889 -90.31640625 128.7421875 C-89.71328613 127.88117432 -89.11016602 127.02016113 -88.48876953 126.13305664 C-87.30169608 124.43900726 -86.11388797 122.7454724 -84.92529297 121.05249023 C-82.32040854 117.33775995 -79.72939387 113.61629665 -77.19140625 109.85546875 C-76.7735083 109.23921631 -76.35561035 108.62296387 -75.92504883 107.98803711 C-74.83514811 106.3759442 -73.7531701 104.75850263 -72.671875 103.140625 C-72.12015625 102.43421875 -71.5684375 101.7278125 -71 101 C-70.34 101 -69.68 101 -69 101 C-68.88551514 100.41927734 -68.77103027 99.83855469 -68.65307617 99.24023438 C-67.94490458 96.81100727 -66.99185239 95.22928846 -65.55078125 93.15625 C-64.78447388 92.04491699 -64.78447388 92.04491699 -64.00268555 90.91113281 C-63.44492432 90.11545898 -62.88716309 89.31978516 -62.3125 88.5 C-61.73089111 87.66049805 -61.14928223 86.82099609 -60.55004883 85.95605469 C-58.70661757 83.29938123 -56.85434518 80.64906454 -55 78 C-53.86195429 76.36980903 -52.72393285 74.73960112 -51.5859375 73.109375 C-49.28361527 69.81512482 -46.97687222 66.52401512 -44.66796875 63.234375 C-40.7627658 57.66727131 -36.88064926 52.08423516 -33 46.5 C-14.07182371 19.27491606 -14.07182371 19.27491606 -5.1875 6.8125 C-4.77258301 6.22976318 -4.35766602 5.64702637 -3.93017578 5.04663086 C-1.12367403 1.12367403 -1.12367403 1.12367403 0 0 Z " fill="#399389" transform="translate(453,122)"/>
<path d="M0 0 C0.57234375 0.22171875 1.1446875 0.4434375 1.734375 0.671875 C0.84951416 1.02693115 0.84951416 1.02693115 -0.05322266 1.38916016 C-2.76744532 2.96282225 -3.90547446 4.6032033 -5.6640625 7.1953125 C-6.61949951 8.58786255 -6.61949951 8.58786255 -7.59423828 10.00854492 C-8.2695459 11.01119385 -8.94485352 12.01384277 -9.640625 13.046875 C-11.08296453 15.15520027 -12.52567948 17.26326875 -13.96875 19.37109375 C-14.69126953 20.43247559 -15.41378906 21.49385742 -16.15820312 22.58740234 C-19.19867936 27.0375155 -22.29207635 31.44959618 -25.390625 35.859375 C-26.54185163 37.50247459 -27.69289367 39.14570353 -28.84375 40.7890625 C-30.55394715 43.22955479 -32.26427815 45.66995324 -33.97460938 48.11035156 C-41.56131245 58.93675851 -49.12926959 69.77591057 -56.67333984 80.63208008 C-57.6142749 81.98595825 -57.6142749 81.98595825 -58.57421875 83.3671875 C-59.18249512 84.24407227 -59.79077148 85.12095703 -60.41748047 86.02441406 C-61.68860146 87.84529068 -62.96944995 89.65940297 -64.25830078 91.46777344 C-64.89106934 92.35754883 -65.52383789 93.24732422 -66.17578125 94.1640625 C-66.74562744 94.95925293 -67.31547363 95.75444336 -67.90258789 96.57373047 C-69.42087921 98.71824306 -69.42087921 98.71824306 -70.265625 101.671875 C-72.99711637 103.49286925 -74.61277186 104.15645146 -77.6953125 104.98046875 C-83.81171335 106.75030678 -89.55491977 109.205702 -95.390625 111.734375 C-97.70938704 112.72714282 -100.02840296 113.71931785 -102.34765625 114.7109375 C-103.50861816 115.20883789 -104.66958008 115.70673828 -105.86572266 116.21972656 C-110.9238779 118.38013927 -115.99923092 120.498271 -121.078125 122.609375 C-122.04999756 123.01373779 -123.02187012 123.41810059 -124.02319336 123.8347168 C-137.38434817 129.38945192 -150.75784563 134.91445216 -164.13000488 140.44262695 C-177.18113341 145.83819932 -190.23162457 151.23502848 -203.265625 156.671875 C-211.69447518 160.18592081 -220.12394724 163.69847246 -228.55883789 167.19799805 C-230.38410277 167.95572175 -232.20866701 168.71513253 -234.03320312 169.47460938 C-240.82160524 172.28875238 -247.63863384 174.99534016 -254.5168457 177.58276367 C-256.84552246 178.5054235 -259.0506509 179.50723267 -261.265625 180.671875 C-261.265625 180.011875 -261.265625 179.351875 -261.265625 178.671875 C-259.61108398 177.32177734 -259.61108398 177.32177734 -257.26171875 175.7578125 C-256.38725098 175.16967773 -255.5127832 174.58154297 -254.61181641 173.97558594 C-253.65194824 173.33911133 -252.69208008 172.70263672 -251.703125 172.046875 C-249.67766265 170.68597092 -247.65294657 169.32395563 -245.62890625 167.9609375 C-244.57783691 167.25485352 -243.52676758 166.54876953 -242.44384766 165.82128906 C-237.39148692 162.40440598 -232.39079546 158.91449637 -227.390625 155.421875 C-221.02901841 150.98541489 -214.66298806 146.55664062 -208.265625 142.171875 C-201.74477585 137.701704 -195.25310052 133.19032356 -188.765625 128.671875 C-179.00648175 121.8755418 -169.21851065 115.12301125 -159.40917969 108.39941406 C-149.82990635 101.8314841 -140.2864129 95.21352523 -130.75561523 88.57543945 C-124.65261009 84.32665206 -118.53578303 80.09921604 -112.40234375 75.89453125 C-106.50495665 71.84683379 -100.63507835 67.75993784 -94.765625 63.671875 C-87.66017317 58.72294162 -80.54430822 53.79059495 -73.40234375 48.89453125 C-67.50495634 44.84683358 -61.63510637 40.75989808 -55.765625 36.671875 C-47.25687076 30.74632114 -38.73098234 24.84713441 -30.17919922 18.98388672 C-27.44301071 17.1078626 -24.70763002 15.23066763 -21.97338867 13.35180664 C-20.60618997 12.41314965 -19.23789679 11.47608441 -17.8684082 10.54077148 C-14.93542328 8.53329811 -12.03840691 6.50390619 -9.1796875 4.390625 C-8.30054688 3.7409375 -7.42140625 3.09125 -6.515625 2.421875 C-5.40960938 1.57882813 -5.40960938 1.57882813 -4.28125 0.71875 C-2.265625 -0.328125 -2.265625 -0.328125 0 0 Z " fill="#37A195" transform="translate(454.265625,121.328125)"/>
<path d="M0 0 C3.61199514 2.40799676 3.72413002 4.13476488 4.96484375 8.125 C6.40543267 12.12603186 8.33383958 15.8284253 10.26367188 19.61279297 C13.99585178 26.94806249 17.60173893 34.34242533 21.1875 41.75 C21.50909088 42.41381683 21.83068176 43.07763367 22.16201782 43.76156616 C27.41356183 54.61124595 32.5185845 65.52301534 37.56591797 76.46899414 C40.68582362 83.21971551 43.88565308 89.91359119 47.25561523 96.54272461 C49.95071265 101.85211657 52.47754436 107.23299372 54.99243164 112.62963867 C57.33103938 117.62860698 59.76474844 122.57247622 62.25 127.5 C67.05735803 137.08454678 67.05735803 137.08454678 68.5625 140.25 C68.87316406 140.89453125 69.18382812 141.5390625 69.50390625 142.203125 C70.16189778 144.58640142 69.89151994 145.68944622 69 148 C67.06079102 149.73242188 67.06079102 149.73242188 64.50390625 151.46875 C63.09165771 152.43929321 63.09165771 152.43929321 61.65087891 153.42944336 C60.12213135 154.4543689 60.12213135 154.4543689 58.5625 155.5 C57.51497559 156.21486572 56.46745117 156.92973145 55.38818359 157.66625977 C52.26740127 159.79060763 49.13616571 161.89844566 46 164 C44.78787842 164.81380127 44.78787842 164.81380127 43.55126953 165.64404297 C40.71522086 167.54500624 37.87621872 169.44117624 35.02758789 171.32324219 C30.45487389 174.34606625 25.9174293 177.4170486 21.3984375 180.51953125 C20.24593699 181.30933493 19.09343047 182.09912984 17.94091797 182.88891602 C16.22677317 184.06389603 14.51382086 185.24044708 12.80426025 186.42208862 C11.21602662 187.51978581 9.62372382 188.61158833 8.03125 189.703125 C6.64776367 190.65687012 6.64776367 190.65687012 5.23632812 191.62988281 C3 193 3 193 1 193 C1.33 193.99 1.66 194.98 2 196 C1.34 196 0.68 196 0 196 C0 131.32 0 66.64 0 0 Z " fill="#009A89" transform="translate(193,302)"/>
<path d="M0 0 C0.99 0.495 0.99 0.495 2 1 C-6.73533321 7.51559233 -15.58360528 13.82447468 -24.59692383 19.94995117 C-30.43262214 23.91827262 -36.22620159 27.94220439 -42 32 C-48.5926967 36.63178545 -55.21597012 41.21410992 -61.875 45.75 C-67.9299003 49.8754523 -73.93162349 54.06155567 -79.87792969 58.34179688 C-84.74119859 61.83524973 -89.66994217 65.22765954 -94.61132812 68.609375 C-100.16180432 72.4123807 -105.67860589 76.26204965 -111.1875 80.125 C-117.62469029 84.63889081 -124.07373191 89.13371986 -130.54296875 93.6015625 C-134.97982263 96.67312811 -139.39418027 99.7768689 -143.8125 102.875 C-149.85586587 107.11167951 -155.91121735 111.32884644 -162 115.5 C-170.52575595 121.34238077 -178.9874577 127.27521659 -187.44873047 133.21044922 C-191.56876062 136.10038424 -195.69030616 138.98815229 -199.8125 141.875 C-200.62509277 142.44420166 -201.43768555 143.01340332 -202.27490234 143.59985352 C-206.80386919 146.77013031 -211.33835966 149.93226484 -215.87890625 153.0859375 C-216.87011475 153.77453857 -217.86132324 154.46313965 -218.88256836 155.17260742 C-220.85776837 156.54382198 -222.83382575 157.91380244 -224.81079102 159.2824707 C-229.06300264 162.23213098 -233.29769427 165.19520954 -237.4609375 168.26953125 C-238.1120752 168.7480957 -238.76321289 169.22666016 -239.43408203 169.71972656 C-240.60592972 170.58624475 -241.77151279 171.46133066 -242.92919922 172.34667969 C-244.453125 173.47265625 -244.453125 173.47265625 -247 175 C-247.99 174.67 -248.98 174.34 -250 174 C-249.67427002 173.55422607 -249.34854004 173.10845215 -249.01293945 172.64916992 C-242.67127785 163.95579498 -236.41630602 155.21782583 -230.375 146.3125 C-226.0654202 139.96394462 -221.65273919 133.71699661 -217.08666992 127.55078125 C-209.73286948 117.60940958 -202.69225514 107.44118236 -195.63134766 97.29077148 C-193.83909802 94.72556908 -192.02940012 92.17332665 -190.21875 89.62109375 C-188.30443717 86.91227493 -186.47871489 84.19685749 -184.78125 81.34765625 C-178.98303187 72.22466621 -171.73289447 69.65387477 -161.97021484 66.11181641 C-157.50654668 64.44096775 -153.12763238 62.57814587 -148.73461914 60.73095703 C-137.98515634 56.2127665 -127.17748186 51.85837316 -116.3125 47.625 C-95.09349812 39.35546372 -74.08897932 30.55529638 -53.08007812 21.76855469 C-43.15198473 17.62675255 -33.18219752 13.58777339 -23.21044922 9.55249023 C-22.56353119 9.29045303 -21.91661316 9.02841583 -21.25009155 8.75843811 C-19.98178353 8.2450552 -18.71309373 7.73261431 -17.44400024 7.22117615 C-12.35151593 5.16286739 -7.31053415 2.99299911 -2.28417969 0.77856445 C-1.15351074 0.39317505 -1.15351074 0.39317505 0 0 Z " fill="#D96E7C" transform="translate(701,301)"/>
<path d="M0 0 C5.47975404 2.63660006 10.56193839 5.51633537 15.625 8.875 C17.12314538 9.85631282 18.62187268 10.83673763 20.12109375 11.81640625 C20.91112793 12.33348145 21.70116211 12.85055664 22.51513672 13.38330078 C26.88474333 16.22624979 31.28678815 19.01803822 35.6875 21.8125 C36.60378174 22.39499512 37.52006348 22.97749023 38.46411133 23.57763672 C42.30230115 26.01724047 46.141533 28.45519823 49.98144531 30.89208984 C51.96744972 32.15252597 53.95321094 33.41334537 55.9387207 34.67456055 C57.79345942 35.85270016 59.64872723 37.03000745 61.50463867 38.20629883 C67.0531397 41.73133401 72.54653525 45.32963718 78 49 C76.87061755 52.38814736 76.31024735 52.74794896 73.44921875 54.64453125 C72.69817871 55.14927979 71.94713867 55.65402832 71.17333984 56.17407227 C70.3530127 56.71475342 69.53268555 57.25543457 68.6875 57.8125 C66.94329333 58.98330742 65.19982712 60.15521858 63.45703125 61.328125 C62.5542041 61.93333984 61.65137695 62.53855469 60.72119141 63.16210938 C56.40354436 66.07824494 52.13820199 69.06755793 47.875 72.0625 C47.04427979 72.64523682 46.21355957 73.22797363 45.35766602 73.82836914 C42.90401634 75.5506955 40.45171559 77.27492184 38 79 C37.23880859 79.53544434 36.47761719 80.07088867 35.69335938 80.62255859 C33.50317006 82.16399742 31.31385916 83.70667303 29.125 85.25 C28.43833252 85.73380127 27.75166504 86.21760254 27.04418945 86.71606445 C23.64833572 89.11311377 20.26565923 91.52621766 16.90234375 93.96875 C16.25442871 94.43764648 15.60651367 94.90654297 14.93896484 95.38964844 C13.71883519 96.27418688 12.50154172 97.16265542 11.28759766 98.05566406 C7.22236498 101 7.22236498 101 5 101 C5 164.36 5 227.72 5 293 C4.67 293 4.34 293 4 293 C4 229.64 4 166.28 4 101 C2.35 100.34 0.7 99.68 -1 99 C-3.08005737 97.45921676 -5.07125724 95.89707734 -7.0625 94.25 C-15.25124526 87.64271455 -23.87072905 81.68822208 -32.52539062 75.71289062 C-36.69586132 72.82614808 -40.84758319 69.91262693 -45 67 C-44.36766665 63.47548596 -42.94974804 61.19057912 -40.89453125 58.28125 C-40.24782471 57.35924805 -39.60111816 56.43724609 -38.93481445 55.48730469 C-38.23445068 54.50149414 -37.53408691 53.51568359 -36.8125 52.5 C-36.09215576 51.47551758 -35.37181152 50.45103516 -34.62963867 49.39550781 C-33.14226962 47.28082081 -31.65242331 45.16787411 -30.16015625 43.05664062 C-27.0317172 38.62987108 -23.92153724 34.19040651 -20.8125 29.75 C-20.25062988 28.94908936 -19.68875977 28.14817871 -19.10986328 27.32299805 C-14.34986892 20.52839049 -9.66000566 13.68688793 -4.99731445 6.82519531 C-4.23100708 5.69936035 -4.23100708 5.69936035 -3.44921875 4.55078125 C-2.99893311 3.88731689 -2.54864746 3.22385254 -2.0847168 2.5402832 C-1 1 -1 1 0 0 Z " fill="#00796C" transform="translate(329,299)"/>
<path d="M0 0 C0 61.38 0 122.76 0 186 C-3.06376591 182.17029261 -4.80990935 179.68006198 -6.734375 175.38671875 C-7.46503174 173.77543091 -7.46503174 173.77543091 -8.21044922 172.1315918 C-8.71850098 170.9950415 -9.22655273 169.85849121 -9.75 168.6875 C-10.8288548 166.31164797 -11.90957699 163.936643 -12.9921875 161.5625 C-13.51264648 160.42039062 -14.03310547 159.27828125 -14.56933594 158.1015625 C-16.54703159 153.81408033 -18.64738674 149.60262777 -20.78686523 145.39355469 C-24.21855353 138.61854774 -27.51479906 131.77839727 -30.8125 124.9375 C-31.11686981 124.30627228 -31.42123962 123.67504456 -31.73483276 123.02468872 C-36.08590118 113.99818879 -40.41318153 104.96041591 -44.72998047 95.91748047 C-48.7743435 87.45380979 -52.85305013 79.00687559 -56.9375 70.5625 C-57.26096405 69.89333557 -57.5844281 69.22417114 -57.91769409 68.534729 C-58.54750953 67.2320407 -59.17768275 65.92952531 -59.8082428 64.62719727 C-60.6859821 62.81354249 -61.56153433 60.99882975 -62.43701172 59.18408203 C-63.7453143 56.51883957 -65.11021488 53.89819977 -66.50390625 51.27734375 C-68 48 -68 48 -67 45 C-64.59779991 43.22833898 -62.19920301 41.60394078 -59.6875 40 C-58.05499857 38.93511145 -56.42356256 37.86858851 -54.79296875 36.80078125 C-53.88208496 36.20604004 -52.97120117 35.61129883 -52.03271484 34.99853516 C-46.76978931 31.53030875 -41.55908227 27.98517905 -36.34634399 24.44213867 C-34.53997425 23.21466354 -32.73238502 21.98900315 -30.92456055 20.76367188 C-29.77253858 19.98189625 -28.62060012 19.19999755 -27.46875 18.41796875 C-26.91528397 18.04259979 -26.36181793 17.66723083 -25.7915802 17.28048706 C-21.4470154 14.32544373 -17.16449838 11.28881133 -12.90820312 8.20825195 C-11 7 -11 7 -9 7 C-9 6.34 -9 5.68 -9 5 C-7.28515625 3.7109375 -7.28515625 3.7109375 -5.0625 2.375 C-3.96615234 1.70597656 -3.96615234 1.70597656 -2.84765625 1.0234375 C-1 0 -1 0 0 0 Z " fill="#00796C" transform="translate(332,402)"/>
<path d="M0 0 C0.99 0.33 1.98 0.66 3 1 C-3.37215306 10.4242115 -9.74128248 19.81613953 -16.63671875 28.8671875 C-23.57108449 38.05952026 -30.22765133 47.46801215 -36.88061523 56.86523438 C-37.90964904 58.31753237 -38.94294893 59.76681801 -39.98071289 61.21289062 C-42.52150135 64.77802023 -44.70726127 68.30953886 -46.75 72.1875 C-50.11682986 77.37261779 -56.02511761 78.74183511 -61.63671875 80.515625 C-64.83178732 81.54392293 -67.82758479 82.78819103 -70.87109375 84.203125 C-78.11534309 87.56695138 -85.5184352 90.52446771 -92.92382812 93.51123047 C-95.36436701 94.4957108 -97.80338401 95.48388582 -100.2421875 96.47265625 C-108.17779173 99.6848952 -116.12809588 102.84690382 -124.12646484 105.90039062 C-128.47382274 107.5639845 -132.80195618 109.27434411 -137.125 111 C-137.98681885 111.34393799 -138.8486377 111.68787598 -139.73657227 112.04223633 C-145.04120086 114.17379715 -150.2574319 116.43540569 -155.4375 118.85546875 C-159.45996419 120.65208766 -163.5800776 122.17795379 -167.703125 123.7265625 C-172.07184203 125.41400533 -176.35427543 127.28520264 -180.63671875 129.1796875 C-181.41660156 129.45039063 -182.19648438 129.72109375 -183 130 C-183.66 129.67 -184.32 129.34 -185 129 C-177.35325951 123.13460246 -169.54845771 117.57216628 -161.58984375 112.140625 C-156.28802917 108.52101566 -151.01864553 104.85515655 -145.75 101.1875 C-144.77240723 100.50719727 -143.79481445 99.82689453 -142.78759766 99.12597656 C-135.53755342 94.07758524 -128.30126684 89.00973722 -121.06738281 83.93823242 C-115.42568751 79.98712523 -109.7587677 76.07470101 -104.07641602 72.18237305 C-97.82969665 67.89727831 -91.62957505 63.54652612 -85.4284668 59.19580078 C-80.24232248 55.56036891 -75.03849234 51.952875 -69.8125 48.375 C-64.34196385 44.62911079 -58.91011232 40.83262325 -53.5 37 C-47.44968781 32.71384737 -41.3646563 28.48382834 -35.24584961 24.29614258 C-28.82529236 19.89565995 -22.4532413 15.42672317 -16.08862305 10.94580078 C-14.51139569 9.83777407 -12.93130342 8.73381237 -11.34814453 7.63427734 C-9.72640784 6.50557019 -8.11327232 5.36443946 -6.50732422 4.21337891 C-5.70955566 3.65440918 -4.91178711 3.09543945 -4.08984375 2.51953125 C-3.37562256 2.01139893 -2.66140137 1.5032666 -1.92553711 0.97973633 C-1.29010986 0.65642334 -0.65468262 0.33311035 0 0 Z " fill="#FD8696" transform="translate(573,299)"/>
<path d="M0 0 C-9.37268984 6.75743323 -18.83620484 13.37882553 -28.32763672 19.96826172 C-34.81119973 24.47152942 -41.27440443 29.00182091 -47.71801758 33.56201172 C-53.13281918 37.39267174 -58.5640411 41.19943332 -64 45 C-70.17686004 49.3190293 -76.34562937 53.6489828 -82.5 58 C-91.13082265 64.10083589 -99.78989108 70.16098551 -108.45166016 76.21777344 C-112.63543058 79.14376732 -116.81766454 82.07195555 -121 85 C-126.03437511 88.52455566 -131.0691005 92.04860531 -136.10546875 95.5703125 C-151.45655305 106.30636494 -166.7711047 117.09118752 -182 128 C-182.33 127.34 -182.66 126.68 -183 126 C-165.4453125 100.921875 -165.4453125 100.921875 -163.71801758 98.4543457 C-162.56676951 96.80968224 -161.41556553 95.16498792 -160.2644043 93.52026367 C-157.28537319 89.26408813 -154.30551029 85.00849881 -151.32421875 80.75390625 C-150.7216626 79.89200684 -150.11910645 79.03010742 -149.49829102 78.14208984 C-148.29864974 76.43312265 -147.092174 74.72893111 -145.87866211 73.02978516 C-143.37074899 69.5023638 -140.94529618 66.04162897 -138.9296875 62.20703125 C-132.37650025 50.51274522 -121.02522364 47.4767587 -109 43 C-101.07971206 39.90388744 -93.23037748 36.6312755 -85.375 33.375 C-84.09473653 32.84478387 -82.81446293 32.3145922 -81.53417969 31.78442383 C-72.43856054 28.01659908 -63.34942966 24.23329253 -54.26391602 20.44116211 C-48.6212342 18.08722708 -42.97075163 15.75371178 -37.3125 13.4375 C-29.85250229 10.38168561 -22.44312382 7.21079917 -15.0402832 4.01928711 C-13.39344254 3.30967795 -11.74533966 2.60298742 -10.09570312 1.89990234 C-8.41465727 1.1780553 -6.74445578 0.43097662 -5.078125 -0.32421875 C-3 -1 -3 -1 0 0 Z " fill="#007A6D" transform="translate(514,170)"/>
<path d="M0 0 C7.92802174 4.88625013 15.52120409 10.16631242 23.06835938 15.61132812 C26.49086976 18.07179818 29.93208013 20.50570514 33.375 22.9375 C34.08342041 23.43805908 34.79184082 23.93861816 35.52172852 24.4543457 C41.13648104 28.41197303 46.78901378 32.31286943 52.47216797 36.17163086 C57.08304686 39.31696564 61.55792188 42.62090236 66 46 C63.09617514 52.68450817 60.19001828 59.36799775 57.28222656 66.05078125 C56.19397842 68.55383486 55.10808614 71.05788549 54.0234375 73.5625 C51.01762656 80.48878797 47.92539075 87.36311349 44.70556641 94.19262695 C41.93318221 100.09153201 39.29085753 106.04618361 36.66430664 112.01123047 C36.34582764 112.7332666 36.02734863 113.45530273 35.69921875 114.19921875 C35.41908936 114.83690186 35.13895996 115.47458496 34.8503418 116.1315918 C33.94825851 118.11368866 32.98490244 120.05790475 32 122 C31.84144531 121.319375 31.68289063 120.63875 31.51953125 119.9375 C29.92302226 113.30449027 28.0481897 106.79467975 25.984375 100.29492188 C24.37219749 95.21221853 22.81999114 90.11474242 21.3125 85 C21.11027832 84.31848877 20.90805664 83.63697754 20.69970703 82.93481445 C19.53080181 78.95362645 18.46666102 74.95828391 17.47583008 70.92919922 C15.44733085 62.70487859 13.18532977 54.54955627 10.75 46.4375 C8.25187364 38.086505 5.99666867 29.67124047 3.75 21.25 C3.57142456 20.58257782 3.39284912 19.91515564 3.2088623 19.22750854 C-1.25770668 2.51541336 -1.25770668 2.51541336 0 0 Z " fill="#DD707F" transform="translate(383,433)"/>
<path d="M0 0 C0.33 0.66 0.66 1.32 1 2 C2.11761719 2.44472656 2.11761719 2.44472656 3.2578125 2.8984375 C6.27861898 4.11192386 8.31827029 5.61225534 10.875 7.625 C16.78026763 12.17761623 22.87066306 16.44298232 29 20.6875 C29.98597168 21.37062256 30.97194336 22.05374512 31.98779297 22.75756836 C33.99815236 24.14989459 36.00873232 25.54190238 38.01953125 26.93359375 C42.68927844 30.17120353 47.34549351 33.4280331 52 36.6875 C53.20849609 37.53284302 53.20849609 37.53284302 54.44140625 38.39526367 C58.97881316 41.57231223 63.49790432 44.77309898 68 48 C64.29702741 51.94187404 60.43030879 54.94679145 55.9375 57.9375 C54.50847215 58.90399872 53.08011867 59.87149507 51.65234375 60.83984375 C50.89808105 61.35015137 50.14381836 61.86045898 49.36669922 62.38623047 C45.21585985 65.21654285 41.11023718 68.11119192 37 71 C30.1611268 75.79865842 23.30124896 80.56426983 16.40795898 85.28442383 C11.81481873 88.43103666 7.25636486 91.62359299 2.72265625 94.85546875 C1 96 1 96 0 96 C0 64.32 0 32.64 0 0 Z " fill="#934E5C" transform="translate(507,249)"/>
<path d="M0 0 C1.83190047 2.74785071 2.51644994 4.39571766 3.33203125 7.5078125 C3.57083008 8.40419434 3.80962891 9.30057617 4.05566406 10.22412109 C4.30541992 11.18141113 4.55517578 12.13870117 4.8125 13.125 C5.34362876 15.12017111 5.87619781 17.11495932 6.41015625 19.109375 C6.67586426 20.10259766 6.94157227 21.09582031 7.21533203 22.11914062 C8.51533954 26.89203689 9.92285244 31.6317337 11.35083008 36.36767578 C12.51213323 40.24332024 13.5576403 44.12984295 14.52197266 48.05761719 C17.87167276 61.66855385 21.85999092 75.11174482 26 88.5 C26.66666667 90.66666667 27.33333333 92.83333333 28 95 C28.21720703 95.69722168 28.43441406 96.39444336 28.65820312 97.11279297 C29.3637651 99.38523317 30.05766235 101.66099992 30.75 103.9375 C30.97300781 104.64777344 31.19601562 105.35804688 31.42578125 106.08984375 C33.94750998 114.46388634 32.83410542 119.23450197 29.16015625 126.8515625 C28.55958656 128.13273453 28.55958656 128.13273453 27.94688416 129.43978882 C26.66281172 132.17339997 25.36325224 134.89929217 24.0625 137.625 C22.80286334 140.29052236 21.54650635 142.95757309 20.29039001 145.62475586 C19.45281381 147.40256005 18.61391327 149.1797409 17.7736969 150.95629883 C13.71155081 159.56074455 9.8080467 168.23382738 5.92979431 176.92236328 C3.97460152 181.29126539 1.98740919 185.64567635 0 190 C-0.33 190 -0.66 190 -1 190 C-1.03374234 181.39585746 -1.05191583 172.79169896 -1.0625 164.1875 C-1.06335602 163.49701443 -1.06421204 162.80652885 -1.06509399 162.09511948 C-1.10290989 127.16640409 -0.79572107 92.23962034 -0.5 57.3125 C-0.49103943 56.2529848 -0.49103943 56.2529848 -0.48189783 55.17206526 C-0.32626256 36.78133275 -0.16565697 18.39064508 0 0 Z " fill="#FB7C89" transform="translate(382,437)"/>
<path d="M0 0 C6.93 0 13.86 0 21 0 C28.18078468 8.99340994 28.18078468 8.99340994 30.140625 13.24609375 C33.24341014 19.63751953 36.94372235 25.59359485 40.6875 31.625 C42.39209142 34.44031796 44.09237045 37.25819346 45.79174805 40.07666016 C46.85769844 41.93190389 46.85769844 41.93190389 48 43 C48.33 28.81 48.66 14.62 49 0 C54.28 0 59.56 0 65 0 C65 22.77 65 45.54 65 69 C44 69 44 69 39.59765625 65.21484375 C38.2409668 62.69799805 38.2409668 62.69799805 37.0625 59.9375 C36.07266748 58.0248211 35.08038256 56.1134098 34.0859375 54.203125 C33.59577148 53.19572266 33.10560547 52.18832031 32.60058594 51.15039062 C29.79619239 45.63057757 26.45407179 40.44166034 23.1875 35.1875 C21.145625 31.825625 19.10375 28.46375 17 25 C16.67 39.52 16.34 54.04 16 69 C10.72 69 5.44 69 0 69 C0 46.23 0 23.46 0 0 Z " fill="#000000" transform="translate(705,723)"/>
<path d="M0 0 C7.4711313 6.77441866 11.56483735 15.14618827 12.203125 25.19921875 C12.3688064 37.52867659 10.36019294 46.60087046 2 56 C-7.2840693 64.18169372 -17.90215262 65.74131436 -29.859375 65.35546875 C-39.66594333 64.73528167 -47.9527281 60.42114411 -54.625 53.3125 C-61.86308828 44.7132668 -63.82293207 35.02418438 -63 24 C-61.62820273 14.46034562 -58.29097528 6.49305441 -50.82421875 0.15234375 C-35.73428003 -10.45491887 -15.13279659 -11.20408979 0 0 Z M-39.046875 11.7734375 C-44.6193564 17.78342777 -46.52558998 23.24903684 -46.3046875 31.41015625 C-45.67629746 36.75147162 -43.97863621 41.10496814 -40.05859375 44.859375 C-33.58703394 49.86500138 -28.10680687 50.78739164 -20 50 C-14.05897808 48.25264061 -10.47822726 45.01273929 -7 40 C-4.20278134 34.14766309 -4.16627977 28.35988356 -5 22 C-7.13626055 16.29823696 -10.36227225 11.23578817 -16.0234375 8.6171875 C-24.06269488 6.10690555 -32.42413713 6.03541652 -39.046875 11.7734375 Z " fill="#000000" transform="translate(509,729)"/>
<path d="M0 0 C0.33 0 0.66 0 1 0 C1.32765751 16.77672587 1.57421067 33.5524078 1.72537041 50.33156395 C1.79743694 58.12333768 1.89559832 65.913119 2.05615234 73.70361328 C2.19609731 80.49736635 2.28610506 87.28967649 2.31723893 94.08483088 C2.33543087 97.68078209 2.3778667 101.27260744 2.48022079 104.86722946 C3.07842306 126.70547466 3.07842306 126.70547466 -0.36169624 132.15843582 C-4.0161316 135.98787857 -8.19195425 137.93763054 -13 140 C-14.67118239 141.1341039 -16.31984201 142.30414017 -17.91796875 143.5390625 C-18.98519165 144.31020386 -18.98519165 144.31020386 -20.07397461 145.09692383 C-21.12016968 145.85332153 -21.12016968 145.85332153 -22.1875 146.625 C-22.94361572 147.16987061 -23.69973145 147.71474121 -24.47875977 148.27612305 C-27.83244256 150.69534314 -31.17803239 153.12182655 -34.484375 155.60546875 C-35.45890625 156.33378906 -36.4334375 157.06210937 -37.4375 157.8125 C-38.26121094 158.43769531 -39.08492188 159.06289063 -39.93359375 159.70703125 C-42 161 -42 161 -45 161 C-43.15652362 153.0865404 -40.91288565 145.34671915 -38.453125 137.60546875 C-36.75407425 132.2515658 -35.12889654 126.8755784 -33.5 121.5 C-31.46184366 114.78390983 -29.41231526 108.07208798 -27.3125 101.375 C-26.92191406 100.12847656 -26.53132813 98.88195312 -26.12890625 97.59765625 C-25.3664414 95.16779422 -24.60340633 92.73811105 -23.83984375 90.30859375 C-23.48019531 89.15488281 -23.12054688 88.00117187 -22.75 86.8125 C-22.43546875 85.80832031 -22.1209375 84.80414062 -21.796875 83.76953125 C-20.98105381 81.09700764 -20.98105381 81.09700764 -20.56640625 78.69921875 C-19.72898407 74.70846891 -18.43781985 70.8782215 -17.1875 67 C-14.93293882 59.98335494 -14.93293882 59.98335494 -12.78515625 52.93359375 C-12.44355469 51.77988281 -12.10195313 50.62617188 -11.75 49.4375 C-11.45609375 48.42558594 -11.1621875 47.41367187 -10.859375 46.37109375 C-10 44 -10 44 -8 42 C-5.69 46.29 -3.38 50.58 -1 55 C-0.67 36.85 -0.34 18.7 0 0 Z " fill="#03110F" transform="translate(380,432)"/>
<path d="M0 0 C4.62 0 9.24 0 14 0 C21.01160114 15.49996075 27.94126531 31.0348005 34.72802734 46.63467407 C35.45090772 48.29465851 36.17568027 49.95382024 36.90234375 51.6121521 C37.9260295 53.95004249 38.94249468 56.29094 39.95703125 58.6328125 C40.2657869 59.334702 40.57454254 60.03659149 40.89265442 60.75975037 C42.14936942 63.68014712 43 65.78461215 43 69 C37.06 69 31.12 69 25 69 C20 57.25 20 57.25 20 55 C11.42 55.33 2.84 55.66 -6 56 C-7.65 60.29 -9.3 64.58 -11 69 C-16.94 69 -22.88 69 -29 69 C-27.11138641 63.13571666 -25.03334049 57.47503488 -22.55859375 51.8359375 C-22.234319 51.08862869 -21.91004425 50.34131989 -21.57594299 49.57136536 C-20.53337403 47.17100178 -19.48551699 44.77298923 -18.4375 42.375 C-17.71775118 40.72061024 -16.99835217 39.06606826 -16.27929688 37.41137695 C-14.85348011 34.1319018 -13.4255921 30.85334264 -11.99560547 27.57568359 C-10.23398672 23.53784779 -8.47719896 19.4979469 -6.72265625 15.45703125 C-4.48490956 10.30331604 -2.24381877 5.15107435 0 0 Z M6 23 C3.69 28.94 1.38 34.88 -1 41 C3.95 41 8.9 41 14 41 C13.04832179 38.37241047 12.08902879 35.74805507 11.125 33.125 C10.85558594 32.37863281 10.58617187 31.63226562 10.30859375 30.86328125 C8.76393439 26.56529918 8.76393439 26.56529918 6 23 Z " fill="#000000" transform="translate(660,723)"/>
<path d="M0 0 C38.54054054 0 38.54054054 0 46.4375 5.3125 C51.21656784 10.32469311 52.4168298 14.63991246 52.375 21.5 C52.38660156 23.40265625 52.38660156 23.40265625 52.3984375 25.34375 C51.82082216 30.64422019 50.08941878 33.85743884 46.4375 37.6875 C37.47905255 44.4280794 26.60158575 43.25241871 16 43 C16 51.58 16 60.16 16 69 C10.72 69 5.44 69 0 69 C0 46.23 0 23.46 0 0 Z M16 14 C16 18.95 16 23.9 16 29 C18.206875 29.0825 20.41375 29.165 22.6875 29.25 C23.92886719 29.29640625 25.17023438 29.3428125 26.44921875 29.390625 C30.57657064 28.93657089 32.11677544 27.9205997 35 25 C36.24401278 22.61391389 36.24401278 22.61391389 36 20 C33.88388365 16.67467431 32.77269733 15.25756578 29 14 C24.66328697 13.86498403 20.33988266 13.95703086 16 14 Z " fill="#000000" transform="translate(394,723)"/>
<path d="M0 0 C6.08551869 5.77932907 10.68409142 13.40759252 10.92578125 21.97265625 C11.31359456 39.25131146 11.31359456 39.25131146 6.6875 46.875 C6.26339844 47.58785156 5.83929688 48.30070313 5.40234375 49.03515625 C0.67453027 56.08078358 -6.46162751 61.0174856 -14.6015625 63.40234375 C-24.54578582 65.13613485 -34.34975354 64.82945486 -43.3125 59.875 C-44.8903125 59.00875 -44.8903125 59.00875 -46.5 58.125 C-54.89686423 51.40750861 -59.56400177 43.51586064 -61.3125 32.875 C-62.07180614 22.20939748 -60.04008524 13.88052633 -54.3125 4.875 C-53.4771875 3.5446875 -53.4771875 3.5446875 -52.625 2.1875 C-38.27183671 -12.16566329 -15.40059592 -12.85654468 0 0 Z M-45.68359375 11.44921875 C-49.88817213 17.71071317 -51.24322012 24.41631237 -50.3125 31.875 C-48.60418879 40.20301714 -44.4666506 47.14102674 -37.3125 51.875 C-30.46478163 55.26999022 -22.64306599 55.14219918 -15.40234375 53.0234375 C-8.49727122 49.96145964 -4.31324217 45.26532115 -1.20703125 38.44921875 C1.61474403 30.32891346 1.0038877 22.70996594 -2.3125 14.875 C-5.62043751 8.50415738 -10.82741771 4.50631512 -17.25 1.5 C-28.83913254 -0.86512909 -38.16045958 2.16308748 -45.68359375 11.44921875 Z " fill="#000000" transform="translate(256.3125,730.125)"/>
<path d="M0 0 C42.24070248 0 42.24070248 0 52.90234375 10.48828125 C60.84511716 19.99890192 61.82774947 30.03962 61 42 C59.38326989 50.2072223 55.43094914 56.65816322 49 62 C32.27611418 72.18441765 23.02620512 69 0 69 C0 46.23 0 23.46 0 0 Z M11 10 C11 26.5 11 43 11 60 C29.23936155 60.34978403 29.23936155 60.34978403 44.6328125 51.74609375 C50.06926247 44.8029705 50.96586298 37.63387269 50 29 C48.64383321 22.77206482 45.57083902 17.51162385 40.26171875 13.77734375 C30.47208085 7.9287164 23.79053251 10 11 10 Z " fill="#000000" transform="translate(273,723)"/>
<path d="M0 0 C14.85 0 29.7 0 45 0 C45 3.3 45 6.6 45 10 C33.45 10 21.9 10 10 10 C10 16.27 10 22.54 10 29 C20.56 29 31.12 29 42 29 C42 32.3 42 35.6 42 39 C31.44 39 20.88 39 10 39 C10 45.93 10 52.86 10 60 C21.88 60 33.76 60 46 60 C46 62.97 46 65.94 46 69 C30.82 69 15.64 69 0 69 C0 46.23 0 23.46 0 0 Z " fill="#000000" transform="translate(342,723)"/>
<path d="M0 0 C18.15 0 36.3 0 55 0 C55 4.62 55 9.24 55 14 C48.4 14 41.8 14 35 14 C35 32.15 35 50.3 35 69 C29.72 69 24.44 69 19 69 C19 50.85 19 32.7 19 14 C12.73 14 6.46 14 0 14 C0 9.38 0 4.76 0 0 Z " fill="#000000" transform="translate(590,723)"/>
<path d="M0 0 C2.60889062 2.16347027 4.58143073 4.38198101 6.5625 7.125 C3.9225 9.105 1.2825 11.085 -1.4375 13.125 C-2.12457031 12.70347656 -2.81164062 12.28195312 -3.51953125 11.84765625 C-4.42058594 11.29980469 -5.32164062 10.75195312 -6.25 10.1875 C-7.14332031 9.64222656 -8.03664062 9.09695313 -8.95703125 8.53515625 C-13.95105115 5.69603628 -18.91104436 5.38151129 -24.45703125 6.55078125 C-31.00954439 8.65740776 -36.46980309 12.56545839 -39.828125 18.640625 C-43.17908615 26.9000363 -43.81379685 34.88735618 -40.9375 43.375 C-38.27191001 49.33226162 -33.90160646 53.41588787 -28.078125 56.2890625 C-21.6631367 58.31984282 -13.9415479 58.26327118 -7.8125 55.375 C-5.01114222 53.7201895 -3.07670957 51.99361675 -1.4375 49.125 C1.99845166 50.65208963 4.68162454 52.72427045 7.5625 55.125 C4.98435097 61.15370203 -0.33903932 64.00082464 -5.9375 67 C-14.6846874 69.88691758 -26.01890079 69.34013318 -34.265625 65.3828125 C-44.35780347 59.53806166 -50.37288209 52.54464484 -53.7421875 41.26171875 C-56.09537378 30.64594018 -54.38432781 19.95526159 -48.9296875 10.515625 C-42.92533136 2.19330811 -35.0522325 -2.67232136 -25 -4.5 C-15.9659833 -5.45094913 -8.04359635 -4.38741619 0 0 Z " fill="#000000" transform="translate(186.4375,725.875)"/>
<path d="M0 0 C5.28 0 10.56 0 16 0 C16 18.15 16 36.3 16 55 C25.24 55 34.48 55 44 55 C44 59.62 44 64.24 44 69 C29.48 69 14.96 69 0 69 C0 46.23 0 23.46 0 0 Z " fill="#000000" transform="translate(526,723)"/>
<path d="M0 0 C5.28 0 10.56 0 16 0 C16 22.77 16 45.54 16 69 C10.72 69 5.44 69 0 69 C0 46.23 0 23.46 0 0 Z " fill="#000000" transform="translate(572,723)"/>
<path d="M0 0 C0.66 0 1.32 0 2 0 C2.14099121 0.53890869 2.28198242 1.07781738 2.42724609 1.63305664 C3.07569489 4.10974866 3.7253395 6.58612556 4.375 9.0625 C4.59671875 9.91005859 4.8184375 10.75761719 5.046875 11.63085938 C6.01093635 15.30279892 6.98980104 18.96453369 8.0390625 22.61328125 C9.31718109 27.11786995 10.41059838 31.6614854 11.5 36.21484375 C12.41494947 39.95327011 13.51755591 43.4520585 15 47 C15.4884237 48.88857164 15.9739573 50.77812067 16.42578125 52.67578125 C17.33014637 56.33630673 18.38098399 59.95602797 19.4140625 63.58203125 C20 66 20 66 20 69 C20.66 69 21.32 69 22 69 C20.67505846 72.97482462 18.87529157 73.64280413 15.375 75.875 C11.80927292 78.17574295 8.28384875 80.47225199 4.875 83 C2 85 2 85 0 85 C0 56.95 0 28.9 0 0 Z " fill="#824452" transform="translate(509,258)"/>
<path d="M0 0 C7.71340718 0.61048323 14.86548811 2.85263068 22.25 5.0625 C23.61119683 5.46483156 24.97260979 5.86643255 26.33422852 6.26733398 C28.43527381 6.88595124 30.53620167 7.50493046 32.63648987 8.12611389 C40.05653534 10.31950627 47.4957636 12.44408828 54.9375 14.5625 C56.15147461 14.90869385 57.36544922 15.2548877 58.61621094 15.61157227 C61.41062018 16.40837414 64.20520944 17.20453688 67 18 C66.15003927 23.07832297 64.15436106 26.7651203 61.625 31.1875 C61.22539062 31.91130859 60.82578125 32.63511719 60.4140625 33.38085938 C60.0221875 34.07373047 59.6303125 34.76660156 59.2265625 35.48046875 C58.87158691 36.10848389 58.51661133 36.73649902 58.15087891 37.38354492 C57 39 57 39 54 41 C54.00386719 40.28714844 54.00773437 39.57429688 54.01171875 38.83984375 C52.40654039 34.33418867 48.81607669 32.90880802 44.8125 30.5625 C43.07758164 29.50740336 41.34322958 28.4513751 39.609375 27.39453125 C38.69478516 26.84361816 37.78019531 26.29270508 36.83789062 25.72509766 C32.03408267 22.80495768 27.30020917 19.77579465 22.5625 16.75 C21.63526123 16.15872314 20.70802246 15.56744629 19.75268555 14.95825195 C17.1669441 13.30785261 14.58318118 11.65440279 12 10 C10.94256592 9.32517578 10.94256592 9.32517578 9.86376953 8.63671875 C8.11242782 7.51571771 6.36830615 6.383457 4.625 5.25 C3.70976562 4.65703125 2.79453125 4.0640625 1.8515625 3.453125 C1.24054688 2.97359375 0.62953125 2.4940625 0 2 C0 1.34 0 0.68 0 0 Z " fill="#00342B" transform="translate(353,312)"/>
<path d="M0 0 C0.04630573 9.59657342 0.0818602 19.19310848 0.10362434 28.78976917 C0.11406913 33.24570978 0.12824099 37.70157404 0.15087891 42.1574707 C0.17258254 46.45628804 0.18456339 50.75503187 0.18975449 55.05389977 C0.19345471 56.69538213 0.20068017 58.3368604 0.21146011 59.97831154 C0.22594217 62.27444838 0.22797934 64.57028004 0.22705078 66.86645508 C0.231492 68.17439529 0.23593323 69.48233551 0.24050903 70.82991028 C0 74 0 74 -2 77 C-2.33 51.92 -2.66 26.84 -3 1 C-1 0 -1 0 0 0 Z " fill="#19524A" transform="translate(519,166)"/>
<path d="M0 0 C-3.35109761 1.46545782 -6.70639178 2.9210581 -10.0625 4.375 C-11.00544922 4.7875 -11.94839844 5.2 -12.91992188 5.625 C-17.89682851 7.77530112 -22.74098526 9.67248172 -28 11 C-28 10.01 -28 9.02 -28 8 C-27.35417969 7.9071875 -26.70835937 7.814375 -26.04296875 7.71875 C-21.93525355 6.74850662 -18.19340992 5.13926475 -14.3125 3.5 C-13.54099609 3.17902344 -12.76949219 2.85804688 -11.97460938 2.52734375 C-3.4449844 -1.03349532 -3.4449844 -1.03349532 0 0 Z " fill="#E17989" transform="translate(415,420)"/>
<path d="M0 0 C1.21065165 3.63195496 0.62784815 5.06531629 -0.4375 8.6875 C-0.72496094 9.68136719 -1.01242187 10.67523438 -1.30859375 11.69921875 C-1.53675781 12.45847656 -1.76492188 13.21773438 -2 14 C-2.66 14 -3.32 14 -4 14 C-4.99 11.03 -5.98 8.06 -7 5 C-6.01 5.99 -5.02 6.98 -4 8 C-2.68 5.36 -1.36 2.72 0 0 Z " fill="#082824" transform="translate(374,459)"/>
<path d="M0 0 C0.66 0 1.32 0 2 0 C1.55088303 2.29349068 1.09042056 4.58476218 0.625 6.875 C0.36976563 8.15117188 0.11453125 9.42734375 -0.1484375 10.7421875 C-1 14 -1 14 -3 16 C-3 13.03 -3 10.06 -3 7 C-2.34 7 -1.68 7 -1 7 C-0.67 4.69 -0.34 2.38 0 0 Z " fill="#0A2622" transform="translate(337,579)"/>
<path d="M0 0 C0.66 0.33 1.32 0.66 2 1 C0.37982158 2.33918806 -1.24629343 3.6711969 -2.875 5 C-4.23238281 6.11375 -4.23238281 6.11375 -5.6171875 7.25 C-8 9 -8 9 -10 9 C-8.77946141 5.33838422 -7.63217696 4.83729526 -4.4375 2.8125 C-3.61121094 2.28269531 -2.78492188 1.75289063 -1.93359375 1.20703125 C-1.29550781 0.80871094 -0.65742188 0.41039062 0 0 Z " fill="#161614" transform="translate(393,422)"/>
</svg>
