<?xml version="1.0" encoding="UTF-8"?>
<svg version="1.1" xmlns="http://www.w3.org/2000/svg" width="794" height="201">
<path d="M0 0 C39.6 0 79.2 0 120 0 C120 65.67 120 131.34 120 199 C80.4 199 40.8 199 0 199 C0 133.33 0 67.66 0 0 Z " fill="#FBFBFC" transform="translate(674,2)"/>
<path d="M0 0 C39.6 0 79.2 0 120 0 C120 65.67 120 131.34 120 199 C80.4 199 40.8 199 0 199 C0 133.33 0 67.66 0 0 Z M15.734375 63.70703125 C5.72220904 76.96388062 2.98843061 89.61910209 4 106 C6.14838946 120.92154136 14.28644248 133.8096245 26 143 C39.69636462 152.82112632 54.48898577 156.10434639 71.13134766 153.69091797 C79.467995 152.13190319 86.41292257 149.35534751 93 144 C93.64920159 150.66719727 94.1928283 156.38509246 90 161.9375 C82.93500979 169.66926639 75.59344857 174.69389905 64.96484375 175.28125 C52.72905241 175.6713649 43.76769186 173.80270698 34 166 C30.97088788 162.83320097 28.69277433 159.53949414 26.4375 155.8125 C23.96059958 151.61494902 23.96059958 151.61494902 20 149 C15.25629873 148.72306075 11.93314766 149.39059745 7.9375 152 C5.7084439 155.4514417 5.14278292 157.42363429 5.3984375 161.48046875 C8.13413229 172.93841122 19.03939114 182.57384284 28.4375 188.875 C41.63860222 196.79192694 57.59493661 199.25469179 72.75 196.3125 C88.99315514 191.87973056 104.61337722 181.92431282 113.1875 167.0625 C115.8137524 161.95753747 116.12942841 156.98528471 116.17700195 151.3046875 C116.18357315 150.6518428 116.19014435 149.99899811 116.19691467 149.32637024 C116.21654391 147.17591203 116.22829145 145.02552356 116.23828125 142.875 C116.24235678 142.13456451 116.2464323 141.39412903 116.25063133 140.6312561 C116.27145523 136.70648483 116.28576872 132.78174806 116.29516602 128.85693359 C116.30617935 124.83706816 116.3405301 120.81776406 116.38033772 116.7980957 C116.4067075 113.67847795 116.41487604 110.55898937 116.41844749 107.43927002 C116.42326682 105.95953614 116.4347448 104.47980616 116.45348549 103.00018311 C116.66101226 85.51890604 111.97131061 71.02958671 99.8125 58.1875 C87.83762822 46.86520979 73.70396976 41.32222967 57.26269531 41.52709961 C40.42908003 42.23392756 26.3808717 50.98630329 15.734375 63.70703125 Z " fill="#2E3E50" transform="translate(674,2)"/>
<path d="M0 0 C2.81992717 1.82120296 4.50345478 3.00690956 6 6 C6.10182843 7.34932913 6.14370444 8.70345203 6.15390015 10.05657959 C6.16250061 10.90575455 6.17110107 11.7549295 6.17996216 12.62983704 C6.18422211 13.56377792 6.18848206 14.49771881 6.19287109 15.45996094 C6.20513733 16.93359352 6.20513733 16.93359352 6.21765137 18.43699646 C6.24254766 21.70278311 6.2590404 24.96852586 6.2734375 28.234375 C6.27876118 29.35142067 6.28408485 30.46846634 6.28956985 31.61936188 C6.31633142 37.54229547 6.33568877 43.46520787 6.35009766 49.38818359 C6.3666698 55.48077005 6.41137652 61.57280759 6.4624691 67.66518784 C6.49629744 72.36841378 6.50769266 77.07151262 6.51332474 81.77484894 C6.52000402 84.01851805 6.53513836 86.26217981 6.55921555 88.50572968 C6.75477755 107.84649219 4.08766583 123.46922116 -9.6875 138.1875 C-22.54114083 150.24862348 -36.81596135 155.39470041 -54.2734375 155.2109375 C-70.52756129 154.29089276 -83.91721585 146.57030008 -95.125 135 C-106.01967142 121.49060743 -109.19379502 105.9202172 -108 89 C-105.92390238 73.01404834 -96.99731084 61.09638058 -85 51 C-73.14378027 41.98506369 -58.63955605 39.05161887 -44 40 C-33.90450416 41.41671599 -25.46986469 44.35342354 -17 50 C-17.0314209 48.14652954 -17.0314209 48.14652954 -17.06347656 46.25561523 C-17.13613453 41.6505909 -17.1818934 37.04561678 -17.21972656 32.44018555 C-17.23978337 30.45084092 -17.26703585 28.46155482 -17.30175781 26.47241211 C-17.35053771 23.60515869 -17.37302827 20.73868789 -17.390625 17.87109375 C-17.41127014 16.98852402 -17.43191528 16.10595428 -17.45318604 15.19664001 C-17.45531395 9.27794527 -16.42935524 5.85822001 -13 1 C-8.95913698 -1.96063231 -4.64439998 -1.16730909 0 0 Z M-68 67 C-68.68449219 67.40089844 -69.36898437 67.80179687 -70.07421875 68.21484375 C-77.37430013 73.01204008 -82.19364935 80.81266509 -85 89 C-87.02293488 99.62040812 -85.64969484 108.57832376 -79.765625 117.67578125 C-74.40181139 124.73655359 -66.83826484 130.32916195 -58 132 C-46.84418425 132.80059384 -37.76785536 132.10422771 -28.8125 124.875 C-20.41920809 116.92435635 -16.10556192 109.08954432 -15.6875 97.625 C-15.93244903 87.20746174 -19.40015417 79.67871689 -26.6640625 72.3125 C-35.25074084 64.47078462 -43.80262009 62.4987481 -55.234375 62.72265625 C-60.27074531 63.09359224 -63.76163291 64.33325621 -68 67 Z " fill="#2D3E50" transform="translate(112,2)"/>
<path d="M0 0 C2.81992717 1.82120296 4.50345478 3.00690956 6 6 C6.10182843 7.34932913 6.14370444 8.70345203 6.15390015 10.05657959 C6.16250061 10.90575455 6.17110107 11.7549295 6.17996216 12.62983704 C6.18422211 13.56377792 6.18848206 14.49771881 6.19287109 15.45996094 C6.20513733 16.93359352 6.20513733 16.93359352 6.21765137 18.43699646 C6.24254766 21.70278311 6.2590404 24.96852586 6.2734375 28.234375 C6.27876118 29.35142067 6.28408485 30.46846634 6.28956985 31.61936188 C6.31633142 37.54229547 6.33568877 43.46520787 6.35009766 49.38818359 C6.3666698 55.48077005 6.41137652 61.57280759 6.4624691 67.66518784 C6.49629744 72.36841378 6.50769266 77.07151262 6.51332474 81.77484894 C6.52000402 84.01851805 6.53513836 86.26217981 6.55921555 88.50572968 C6.75895139 108.25927827 3.84970362 123.81942099 -10.25 138.75 C-22.76109024 150.5836708 -37.24312405 155.39020396 -54.2734375 155.2109375 C-70.53425119 154.29051408 -84.06122384 146.56053343 -95.1875 134.875 C-105.82436661 121.63935348 -109.35272146 105.58291578 -108 89 C-106.12677631 75.52839966 -99.45932825 65.47555352 -90 56 C-89.36191406 55.3503125 -88.72382813 54.700625 -88.06640625 54.03125 C-77.69417527 44.19811626 -64.08668985 40.07457521 -50 39.625 C-37.82899649 39.99824411 -27.10066819 43.2662212 -17 50 C-17.01571045 48.78940918 -17.0314209 47.57881836 -17.04760742 46.33154297 C-17.10204969 41.82526342 -17.13640207 37.31901276 -17.16479492 32.8125 C-17.17984899 30.86485906 -17.2002968 28.91725184 -17.22631836 26.96972656 C-17.26285053 24.16462872 -17.27976033 21.35998046 -17.29296875 18.5546875 C-17.30845261 17.68883026 -17.32393646 16.82297302 -17.33988953 15.93087769 C-17.34163805 9.60022475 -16.13619554 5.45034194 -11.875 0.5625 C-7.74027576 -1.68463274 -4.45532752 -1.28332804 0 0 Z M-76 73 C-83.40996336 82.85172271 -87.17472306 92.11131839 -85.4375 104.5 C-83.39141794 114.09355031 -77.9528549 121.400237 -70 127 C-60.78371082 132.49625973 -50.59159546 133.68251648 -40.07421875 131.3515625 C-30.04194955 127.70062783 -23.21439169 120.11435224 -18 111 C-14.55869 103.18440262 -14.95683723 93.38334966 -17.4375 85.375 C-21.46559105 75.58037861 -29.41372792 68.30112539 -39 64 C-52.62692048 60.3467302 -66.06239982 62.97189344 -76 73 Z " fill="#2D3E50" transform="translate(496,2)"/>
<path d="M0 0 C11.30350528 9.316949 20.36285113 22.31955979 22.19921875 37.1875 C22.25722656 38.033125 22.31523437 38.87875 22.375 39.75 C22.44332031 40.61625 22.51164062 41.4825 22.58203125 42.375 C23.17913483 57.59008384 18.31111067 71.74818853 8.1875 83.0625 C-2.03875055 93.9163732 -15.87097907 101.01003742 -30.8515625 101.953125 C-48.59055527 102.19780076 -62.33380294 96.67505514 -75.03125 84.43359375 C-86.19092855 72.88736007 -91.15720567 58.60866242 -90.9765625 42.68383789 C-90.42571155 26.70724752 -83.74568134 14.89032919 -72.625 3.75 C-72.06039063 3.17378906 -71.49578125 2.59757812 -70.9140625 2.00390625 C-51.43378 -16.28855414 -20.67118652 -15.2648762 0 0 Z M-59.625 22.75 C-67.01109176 32.85577671 -68.49689602 40.36654935 -67.625 52.75 C-65.6452953 62.08109223 -59.40858518 69.47709004 -51.5625 74.6875 C-43.19029077 79.37464417 -33.9618233 80.12613718 -24.62109375 78.09765625 C-14.77552421 74.90708921 -8.76853021 69.11777478 -3.8125 60.1484375 C0.18530359 52.0739263 0.77800704 42.75265135 -1.6875 34.0625 C-5.17117082 25.07658274 -12.14293227 18.06640675 -20.640625 13.71875 C-34.56418572 8.14932571 -49.77986192 11.64370787 -59.625 22.75 Z " fill="#2D3E50" transform="translate(363.625,55.25)"/>
<path d="M0 0 C3.59933879 1.91329414 5.7474771 4.62121566 8 8 C9.17755859 7.38511719 9.17755859 7.38511719 10.37890625 6.7578125 C11.42949219 6.21898437 12.48007812 5.68015625 13.5625 5.125 C14.59503906 4.59132813 15.62757813 4.05765625 16.69140625 3.5078125 C23.99398728 0.17983579 30.40928413 -0.33814314 38.3125 -0.3125 C39.29412109 -0.32861328 40.27574219 -0.34472656 41.28710938 -0.36132812 C56.62585983 -0.37147952 69.37404239 6.19569643 80.1953125 16.87109375 C91.32244771 28.68187168 94.46378655 42.83023862 94.50390625 58.58203125 C94.51356933 59.9682393 94.52366337 61.35444441 94.53416443 62.74064636 C94.5520002 65.62591659 94.55769748 68.51091888 94.5559082 71.39624023 C94.55560153 75.08650683 94.59679584 78.77506494 94.64822483 82.46492481 C94.68160383 85.31920748 94.68766576 88.17307472 94.68607903 91.02753258 C94.68960744 92.38830219 94.70281201 93.74908389 94.72607613 95.10965919 C94.88992226 105.66647456 94.88992226 105.66647456 92.70004272 108.94795227 C88.96826342 112.17922967 85.89824467 112.70023702 81.1875 112.4296875 C77.77780159 111.75992531 75.58484579 110.26174006 73 108 C72.00200096 105.00600287 71.86431507 102.9896566 71.84228516 99.86108398 C71.83202301 98.81246689 71.82176086 97.76384979 71.81118774 96.68345642 C71.80388641 95.54912674 71.79658508 94.41479706 71.7890625 93.24609375 C71.76097904 90.84048816 71.73231449 88.4348893 71.703125 86.02929688 C71.6619804 82.23983047 71.62509068 78.45048763 71.59863281 74.66088867 C71.5708723 71.00152624 71.52498398 67.3427336 71.4765625 63.68359375 C71.47330963 62.56343369 71.47005676 61.44327362 71.46670532 60.28916931 C71.30154708 49.6150773 69.18013906 40.18347726 62 32 C55.16523472 26.0032136 46.25281922 22.27405713 37.0625 22.71875 C27.19313184 24.06457293 19.90842412 28.09502365 13.6875 35.875 C7.89280466 43.54591475 7.56922629 51.31446988 7.59375 60.56640625 C7.58291382 61.75926743 7.57207764 62.9521286 7.56091309 64.18113708 C7.51523113 69.25833348 7.50357891 74.33547679 7.48876953 79.4128418 C7.47305247 83.13088011 7.44005133 86.84849544 7.40625 90.56640625 C7.40927124 91.70823868 7.41229248 92.85007111 7.41540527 94.02650452 C7.35818512 100.10891012 7.02324804 104.66237469 4 110 C0.50547345 112.61544606 -3.34897943 112.52577246 -7.5859375 112.45703125 C-10.3537402 111.93302977 -11.2611543 111.31013836 -13.0625 109.1875 C-16.13432212 104.13385716 -16.15354924 99.98513164 -16.16113281 94.23339844 C-16.16609772 93.33712234 -16.17106262 92.44084625 -16.17617798 91.51741028 C-16.19079947 88.5480574 -16.19760214 85.57875798 -16.203125 82.609375 C-16.20887714 80.54534911 -16.21463487 78.48132323 -16.22039795 76.41729736 C-16.23090837 72.08630118 -16.23675055 67.75532355 -16.24023438 63.42431641 C-16.24571445 57.88162515 -16.26973201 52.33918012 -16.29820633 46.79656601 C-16.31685568 42.53112071 -16.32203957 38.26573439 -16.32357025 34.00025177 C-16.32659289 31.95736599 -16.33460829 29.91448115 -16.34775543 27.87163544 C-16.36486125 25.00896136 -16.36292437 22.14688452 -16.35644531 19.28417969 C-16.37026749 18.02457176 -16.37026749 18.02457176 -16.3843689 16.73951721 C-16.34159677 10.68904017 -15.24830988 6.09063442 -11.61328125 1.09375 C-8.17948751 -1.23424576 -3.93226221 -0.66658877 0 0 Z " fill="#2D3E50" transform="translate(577,44)"/>
<path d="M0 0 C2.82584082 2.2047769 4.64034891 3.97327904 5.875 7.375 C6.11128698 11.77781413 5.34407036 15.47438491 3.3125 19.375 C0.66350274 21.54853622 -1.40694128 22.40728886 -4.84375 22.64453125 C-10.62496856 21.96147632 -15.61401632 18.41194959 -20.3125 15.1875 C-27.85131827 10.32915045 -37.02199529 10.26620983 -45.68359375 11.83984375 C-55.18634714 14.62314587 -60.57639712 20.33354045 -65.6796875 28.59375 C-70.42366303 37.72269751 -71.04039713 46.6070573 -68.125 56.375 C-64.19130138 65.95454664 -56.59976797 72.08088685 -47.3125 76.375 C-38.84818753 79.03421932 -29.35700636 78.28454922 -21.34765625 74.6640625 C-19.06261884 73.33882112 -17.19483339 71.83630241 -15.1875 70.125 C-11.1526769 66.90206204 -7.70711315 66.54269805 -2.62109375 66.8671875 C-0.125 67.375 -0.125 67.375 3 69.3125 C5.47482436 73.35471313 6.25266671 76.6499698 5.875 81.375 C2.41937657 90.01405857 -9.04726941 94.86755701 -17.1875 98.37109375 C-31.1219348 103.13326096 -46.72247058 102.37422745 -60.125 96.375 C-76.09383611 87.91832613 -85.94692247 76.37188821 -91.3984375 59.1640625 C-95.43096372 43.68436508 -93.06464871 28.14341647 -85.078125 14.3515625 C-76.44731009 1.19820058 -63.89690831 -7.60429165 -48.625 -11.5 C-30.88802599 -15.0473948 -14.45835321 -10.76292747 0 0 Z " fill="#2D3E50" transform="translate(262.125,55.625)"/>
<path d="M0 0 C7.94492271 4.80951571 15.37330361 11.88253241 18 21 C18.43142529 24.32376793 18.46512916 27.58934818 18.4375 30.9375 C18.45748047 31.79279297 18.47746094 32.64808594 18.49804688 33.52929688 C18.49032903 43.64739445 13.9942726 49.58753562 7.23828125 56.796875 C-0.17154464 64.09031619 -7.97606227 65.49378514 -18.02880859 65.50195312 C-27.59566998 65.24595765 -34.56905231 61.57454426 -41.5 55.0625 C-49.5224301 46.33956665 -50.55765535 37.98962395 -50.3359375 26.49609375 C-50.04785191 20.74271505 -48.41277207 16.63102323 -45 12 C-44.44183594 11.21238281 -43.88367188 10.42476562 -43.30859375 9.61328125 C-32.87646117 -3.56300312 -15.03001043 -7.65230738 0 0 Z " fill="#2E3F50" transform="translate(750,69)"/>
<path d="M0 0 C3.72412247 1.65516554 6.01464382 3.44858918 8 7 C8.45207467 10.15187591 8.40955426 13.28314902 8.38818359 16.46264648 C8.39344055 17.42080261 8.39869751 18.37895874 8.40411377 19.3661499 C8.41732138 22.53463018 8.40857212 25.70260832 8.3984375 28.87109375 C8.40045818 31.07300411 8.40336956 33.27491383 8.40713501 35.4768219 C8.41155954 40.09276701 8.40512364 44.70853801 8.39111328 49.32446289 C8.37403152 55.24064992 8.38385559 61.15642837 8.40183067 67.07260036 C8.41267349 71.6202146 8.40921967 76.16773204 8.4014473 80.7153492 C8.39944615 82.89663809 8.40190154 85.07793577 8.40888596 87.2592144 C8.41650732 90.30903247 8.40488571 93.35819007 8.38818359 96.40795898 C8.39729263 97.76015282 8.39729263 97.76015282 8.40658569 99.1396637 C8.35817394 103.91300531 8.11434612 107.12834966 5 111 C1.35148912 113.48796584 -2.27736568 113.52693433 -6.5859375 113.45703125 C-9.3537402 112.93302977 -10.2611543 112.31013836 -12.0625 110.1875 C-15.14963621 105.10866301 -15.15359423 100.92226851 -15.16113281 95.14160156 C-15.16609772 94.2355719 -15.17106262 93.32954224 -15.17617798 92.39605713 C-15.19080011 89.39423872 -15.19760224 86.39247319 -15.203125 83.390625 C-15.20887708 81.30417886 -15.2146348 79.21773273 -15.22039795 77.13128662 C-15.23090854 72.75321201 -15.23675061 68.37515577 -15.24023438 63.99707031 C-15.2457146 58.39384607 -15.26973241 52.79086538 -15.29820633 47.18771744 C-15.31685467 42.87594907 -15.32203952 38.56423906 -15.32357025 34.25243378 C-15.3265931 32.18721945 -15.3346092 30.12200606 -15.34775543 28.05683136 C-15.36485918 25.16302626 -15.36292486 22.26981206 -15.35644531 19.37597656 C-15.3656601 18.52688721 -15.37487488 17.67779785 -15.3843689 16.80297852 C-15.34197071 10.74134176 -14.4295016 5.78942776 -10.3125 1.0625 C-6.89297252 -0.50863425 -3.65664057 -0.5390267 0 0 Z " fill="#2D3E50" transform="translate(150,43)"/>
<path d="M0 0 C3.72412247 1.65516554 6.01464382 3.44858918 8 7 C8.45207467 10.15187591 8.40955426 13.28314902 8.38818359 16.46264648 C8.39344055 17.42080261 8.39869751 18.37895874 8.40411377 19.3661499 C8.41732138 22.53463018 8.40857212 25.70260832 8.3984375 28.87109375 C8.40045818 31.07300411 8.40336956 33.27491383 8.40713501 35.4768219 C8.41155954 40.09276701 8.40512364 44.70853801 8.39111328 49.32446289 C8.37403152 55.24064992 8.38385559 61.15642837 8.40183067 67.07260036 C8.41267349 71.6202146 8.40921967 76.16773204 8.4014473 80.7153492 C8.39944615 82.89663809 8.40190154 85.07793577 8.40888596 87.2592144 C8.41650732 90.30903247 8.40488571 93.35819007 8.38818359 96.40795898 C8.39729263 97.76015282 8.39729263 97.76015282 8.40658569 99.1396637 C8.35817394 103.91300531 8.11434612 107.12834966 5 111 C0.80328238 113.86179496 -4.11972811 113.91603809 -9 113 C-12.54264858 110.53136706 -14.20668345 107.17826604 -15 103 C-15.10504445 100.06811391 -15.1571995 97.15966523 -15.16113281 94.22753906 C-15.16609772 93.34247681 -15.17106262 92.45741455 -15.17617798 91.54553223 C-15.19077668 88.61888855 -15.19759821 85.6922991 -15.203125 82.765625 C-15.20887885 80.72784423 -15.21463656 78.69006347 -15.22039795 76.65228271 C-15.23090177 72.37853748 -15.23674832 68.10481102 -15.24023438 63.83105469 C-15.2457142 58.3658384 -15.26973403 52.90087185 -15.29820633 47.4357338 C-15.31686942 43.22515142 -15.32204029 39.01462872 -15.32357025 34.80400848 C-15.3265896 32.78985989 -15.3345938 30.77571216 -15.34775543 28.76160431 C-15.36489073 25.93755842 -15.36291729 23.11411645 -15.35644531 20.29003906 C-15.3656601 19.4648175 -15.37487488 18.63959595 -15.3843689 17.78936768 C-15.34042706 11.64037148 -14.41270661 5.85950413 -10.3125 1 C-6.88090222 -0.48393418 -3.63936799 -0.53648054 0 0 Z " fill="#2D3E50" transform="translate(534,43)"/>
<path d="M0 0 C5.61038961 3.22077922 5.61038961 3.22077922 7 6 C7.54016597 10.50728651 7.60322525 13.94994123 5.3125 17.9375 C1.93529968 20.94959758 -0.569031 21.8831862 -5.0625 22.25 C-8.05767549 21.99509145 -9.48159604 21.56522318 -12 20 C-14.57812813 16.56249582 -15.97663508 13.16824586 -16.0625 8.875 C-14.64229304 5.03208704 -12.86987838 2.93820882 -10 0 C-6.17208785 -1.27597072 -3.93193593 -0.86635876 0 0 Z " fill="#2D3E50" transform="translate(151,17)"/>
<path d="M0 0 C5.61038961 3.22077922 5.61038961 3.22077922 7 6 C7.54016597 10.50728651 7.60322525 13.94994123 5.3125 17.9375 C1.93529968 20.94959758 -0.569031 21.8831862 -5.0625 22.25 C-8.05598227 21.99523555 -9.47801642 21.554304 -12 20 C-14.4146476 16.99228106 -16.04398891 13.74070384 -15.9453125 9.8359375 C-15.02769435 5.5376209 -13.58208464 2.71370049 -10 0 C-6.17208785 -1.27597072 -3.93193593 -0.86635876 0 0 Z " fill="#2D3E50" transform="translate(535,17)"/>
</svg>
