<?xml version="1.0" encoding="UTF-8"?>
<svg version="1.1" xmlns="http://www.w3.org/2000/svg" width="1000" height="1000">
<path d="M0 0 C56.93501146 23.41060886 103.17816766 35.9165594 163.35571289 16.24023438 C164.68022461 15.81629395 164.68022461 15.81629395 166.03149414 15.38378906 C176.61230113 11.98164 186.9388068 8.03802024 197.23852539 3.87304688 C198.22054428 3.47658966 199.20256317 3.08013245 200.21434021 2.67166138 C205.18903207 0.66039558 210.1571787 -1.36518267 215.11669922 -3.41357422 C242.56761468 -14.65670329 269.95806832 -19.85852249 298.28149414 -8.17382812 C316.06731362 0.00719685 329.72500404 15.22118361 337.60571289 32.99023438 C342.34317131 45.8550659 344.51801005 59.44176585 344.48701477 73.10702515 C344.48913048 73.95224908 344.4912462 74.79747302 344.49342602 75.66830981 C344.49937487 78.4753384 344.49842957 81.28232138 344.49755859 84.08935547 C344.50059344 86.11221899 344.5041158 88.13508183 344.50808716 90.15794373 C344.51595065 94.50234426 344.52111139 98.84673667 344.52437782 103.19114304 C344.53030925 110.06712074 344.54686902 116.94304728 344.5657196 123.81900024 C344.5720562 126.17700002 344.57838184 128.53499982 344.58469677 130.89299965 C344.58786258 132.07352763 344.59102839 133.25405562 344.59429014 134.47035718 C344.63630466 150.46851044 344.669348 166.46663895 344.68164062 182.46484375 C344.69002844 193.27045049 344.71254204 204.07592943 344.75099629 214.88147223 C344.77072468 220.59327807 344.78317195 226.304893 344.778162 232.01673508 C344.77350601 237.38983221 344.78737317 242.76256732 344.8151741 248.13559151 C344.82206855 250.10151163 344.82223135 252.06746932 344.81497383 254.03338814 C344.78153797 264.11219619 344.75307895 273.00455312 349.35571289 282.24023438 C349.82605957 283.24844238 350.29640625 284.25665039 350.78100586 285.29541016 C351.21558105 286.08415527 351.65015625 286.87290039 352.09790039 287.68554688 C352.5995874 288.6044873 353.10127441 289.52342773 353.61816406 290.47021484 C354.41637573 291.90324951 354.41637573 291.90324951 355.23071289 293.36523438 C355.79443604 294.39148926 356.35815918 295.41774414 356.93896484 296.47509766 C358.73455117 299.73579734 360.5429896 302.98903368 362.35571289 306.24023438 C362.95335449 307.31337891 363.55099609 308.38652344 364.16674805 309.4921875 C367.6939014 315.81832004 371.23815563 322.13473292 374.7878418 328.44824219 C379.97445742 337.68432693 385.09804625 346.95551034 390.21118164 356.23242188 C390.55273788 356.85208328 390.89429413 357.47174469 391.24620056 358.11018372 C394.158256 363.39344252 394.158256 363.39344252 395.48104858 365.79415894 C399.3040148 372.73140567 403.13655785 379.66213901 407.04321289 386.55273438 C411.34662873 394.1440598 415.47589181 401.82869072 419.61230469 409.51196289 C422.60619845 415.05992696 425.66384332 420.55420368 428.85571289 425.99023438 C435.738398 437.89305979 439.65673091 448.39261735 438.35571289 462.24023438 C436.30648879 469.13224369 432.48916162 474.47703781 426.35571289 478.24023438 C392.3729852 495.92110284 341.53038605 486.4763559 306.66967773 475.97460938 C303.70486677 475.0336776 300.8127443 473.94001275 297.91821289 472.80273438 C294.06662464 471.34157629 291.3396624 470.60579355 287.35571289 472.24023438 C286.13880756 474.00553033 286.13880756 474.00553033 285.35571289 476.24023438 C282.63100977 480.1176965 279.43374278 482.94599161 275.85180664 485.98242188 C273.9398362 487.71187244 272.16491319 489.44794165 270.39086914 491.31054688 C257.105998 505.22376995 241.45090837 515.83148326 225.35571289 526.24023438 C224.48688477 526.80871094 223.61805664 527.3771875 222.72290039 527.96289062 C217.62886749 531.24023438 217.62886749 531.24023438 215.35571289 531.24023438 C215.81461914 531.84609375 216.27352539 532.45195313 216.74633789 533.07617188 C223.21740772 541.91271682 227.77230208 550.02994213 226.35571289 561.24023438 C224.66761516 570.29457674 220.72042833 578.13008327 213.16821289 583.61523438 C204.33592148 588.80506377 195.17544435 589.69607365 185.10961914 589.63867188 C183.41107033 589.64297714 183.41107033 589.64297714 181.6782074 589.64736938 C179.29913834 589.64939799 176.92005215 589.64395311 174.54101562 589.63134766 C170.93133647 589.61529275 167.32277942 589.63123089 163.71313477 589.65039062 C161.38696046 589.64840769 159.06078684 589.64456297 156.73461914 589.63867188 C155.67175186 589.64474457 154.60888458 589.65081726 153.5138092 589.65707397 C142.54364893 589.55583434 131.71481255 587.85298585 123.35571289 580.24023438 C118.35111632 574.41251337 114.35571289 567.06621296 114.35571289 559.24023438 C106.76571289 559.24023438 99.17571289 559.24023438 91.35571289 559.24023438 C91.02571289 561.88023437 90.69571289 564.52023437 90.35571289 567.24023438 C87.81142604 575.05482971 83.16182243 580.72819399 76.35571289 585.24023438 C67.84970007 588.81818327 59.73479169 589.82219998 50.59008789 589.70117188 C48.85181732 589.69979721 48.85181732 589.69979721 47.07843018 589.69839478 C44.65160983 589.69240227 42.22479535 589.67678953 39.7980957 589.65185547 C36.10087626 589.61518641 32.40465846 589.61083815 28.70727539 589.61132812 C26.33487097 589.60150032 23.96247327 589.58984479 21.59008789 589.57617188 C20.49613708 589.57394623 19.40218628 589.57172058 18.27508545 589.56942749 C7.38926598 589.43567457 -2.23460243 587.91666124 -10.62475586 580.48632812 C-18.17667027 572.51575747 -20.503193 564.02501761 -20.23803711 553.14257812 C-18.98990145 544.93937076 -14.75973123 537.70930371 -9.64428711 531.24023438 C-10.29268555 531.01464844 -10.94108398 530.7890625 -11.60913086 530.55664062 C-15.70310497 528.78100449 -19.40906056 526.51100413 -23.20678711 524.17773438 C-24.40452759 523.44345215 -24.40452759 523.44345215 -25.62646484 522.69433594 C-32.27470623 518.56705626 -38.49575333 514.08509407 -44.64428711 509.24023438 C-45.42932617 508.64726563 -46.21436523 508.05429687 -47.02319336 507.44335938 C-55.80736536 500.78266547 -63.71454666 493.25539512 -71.51928711 485.49023438 C-72.1620459 484.85214844 -72.80480469 484.2140625 -73.46704102 483.55664062 C-76.75591729 480.2565218 -79.7392108 476.88846974 -82.64428711 473.24023438 C-86.55248908 471.28613339 -91.60982556 472.67666626 -95.69604492 473.80859375 C-97.73401013 474.50249903 -99.75137045 475.24010037 -101.76928711 475.99023438 C-134.69972442 487.49827664 -183.64285996 494.54557404 -216.64428711 480.24023438 C-223.6879895 476.74510435 -227.95297287 472.16144857 -231.64428711 465.24023438 C-235.74005417 452.95293319 -230.62985136 440.96082037 -225.26928711 429.99023438 C-221.23648558 421.98330447 -216.63344248 414.30615198 -212.06958008 406.59448242 C-207.95487753 399.60299836 -204.09701145 392.52012347 -200.39428711 385.30273438 C-196.6895662 378.0816989 -192.83428687 371.03079016 -188.64331055 364.08227539 C-184.57236222 357.26335662 -180.86548461 350.25358443 -177.14428711 343.24023438 C-172.6317412 334.7365923 -168.03164262 326.317433 -163.07446289 318.06323242 C-159.81940399 312.61834459 -156.84074277 307.05185714 -153.91210938 301.42578125 C-150.87407546 295.60644869 -147.62045878 289.93741285 -144.27319336 284.29101562 C-141.1279088 278.40020689 -140.35160042 273.26970482 -140.37927246 266.65396118 C-140.37489119 265.80257769 -140.37050992 264.9511942 -140.36599588 264.07401121 C-140.35369785 261.22783517 -140.35548256 258.38184402 -140.35717773 255.53564453 C-140.35115173 253.49177783 -140.34422703 251.44791361 -140.33647156 249.40405273 C-140.32158732 245.0039459 -140.31283434 240.60388441 -140.3087616 236.20375443 C-140.30203803 229.23420958 -140.28026857 222.26476122 -140.25622559 215.29525757 C-140.20725791 200.4852725 -140.17497865 185.67526687 -140.14428711 170.86523438 C-140.11116531 154.9096407 -140.07505085 138.95408478 -140.02015638 122.99854887 C-139.9969276 116.08352949 -139.98309641 109.16857665 -139.97666168 102.25352216 C-139.97068132 97.93048793 -139.95654826 93.60750685 -139.94031715 89.28450012 C-139.93448973 87.29487684 -139.93195871 85.30524043 -139.93315697 83.31560898 C-139.93933133 68.9622579 -139.76925468 54.38715881 -135.45678711 40.55273438 C-135.24030518 39.84979248 -135.02382324 39.14685059 -134.80078125 38.42260742 C-128.38335906 18.57567625 -113.98889148 2.19058073 -95.64428711 -7.63476562 C-62.25702026 -22.87443743 -31.83117333 -13.0901974 0 0 Z " fill="#78C701" transform="translate(397.644287109375,36.759765625)"/>
<path d="M0 0 C2.16796875 1.48828125 2.16796875 1.48828125 4.1875 3.3125 C5.19876953 4.20388672 5.19876953 4.20388672 6.23046875 5.11328125 C7.98945379 6.98875536 8.98885967 8.65104323 10 11 C10.66 11 11.32 11 12 11 C13.7265625 12.6796875 13.7265625 12.6796875 15.625 14.875 C16.57246094 15.95394531 16.57246094 15.95394531 17.5390625 17.0546875 C19 19 19 19 19 21 C19.66 21 20.32 21 21 21 C22.33984375 22.328125 22.33984375 22.328125 23.9375 24.25 C26.20679462 26.93276779 28.50670994 29.56655115 30.90625 32.1328125 C31.65660522 32.9367041 31.65660522 32.9367041 32.42211914 33.75683594 C33.4256602 34.82844383 34.4326231 35.8968583 35.44311523 36.96191406 C39 40.77930131 39 40.77930131 39 43 C39.66 43 40.32 43 41 43 C42.29370117 44.30834961 42.29370117 44.30834961 43.85546875 46.21484375 C48.52729159 51.70335969 53.5760701 56.79820983 58.65991211 61.90014648 C60.30597326 63.55593469 61.94102082 65.22211807 63.57617188 66.88867188 C71.97838289 75.37531051 80.57952309 82.91585594 92 87 C92.79921875 87.2990625 93.5984375 87.598125 94.421875 87.90625 C101.44265397 90.09770702 108.33188791 90.28227189 115.625 90.3125 C116.59066895 90.31797852 117.55633789 90.32345703 118.55126953 90.32910156 C138.76619657 90.12912446 155.78261058 82.13717848 170 68 C171.30855975 66.71741323 172.61715658 65.43486429 173.92578125 64.15234375 C179.95319428 58.20378373 185.87708685 52.24666891 191.41235352 45.83276367 C193.5162626 43.40403147 195.6946987 41.0476578 197.875 38.6875 C201.18336914 35.06476095 204.36012358 31.38307109 207.4375 27.5625 C211.56726871 22.4459724 215.94662028 17.61962047 220.41796875 12.8046875 C223.17841615 9.8061985 225.84213753 6.74016892 228.46484375 3.62109375 C231.20013004 0.73268711 233.04277935 -0.90232442 237.0625 -1.3125 C240 -1 240 -1 243 1 C243 1.66 243 2.32 243 3 C243.66 3 244.32 3 245 3 C248.87345905 11.29221087 251.12127494 18.89773474 252 28 C252.38983624 32.31569947 252.38983624 32.31569947 254.5625 35.875 C255.2740625 36.431875 255.2740625 36.431875 256 37 C259.81915388 35.49961812 261.49946383 33.16734582 264 30 C264.66 30 265.32 30 266 30 C266.24234375 29.41605469 266.4846875 28.83210938 266.734375 28.23046875 C269.57480851 23.22464303 274.97666161 19.77820707 280.25 17.75 C283.41222058 18.0374746 284.6339933 18.95515271 286.79150391 21.22998047 C289.31733741 24.92943358 290.05036354 29.38231558 291.0625 33.6875 C295.93277164 53.64606416 304.88810525 70.36558731 318.1875 85.9375 C334.49917161 106.1376105 334.18727578 132.32909677 334.18530273 156.94873047 C334.18747643 159.96726879 334.20566704 162.98543274 334.22460938 166.00390625 C334.34811307 208.68539511 334.34811307 208.68539511 326 226 C325.38511719 227.35544922 325.38511719 227.35544922 324.7578125 228.73828125 C321.33717079 236.01407862 317.18845738 241.89332948 312 248 C311.46761719 248.7528125 310.93523437 249.505625 310.38671875 250.28125 C309.92910156 250.8484375 309.47148438 251.415625 309 252 C308.34 252 307.68 252 307 252 C306.67 252.99 306.34 253.98 306 255 C305.34 255 304.68 255 304 255 C304 255.66 304 256.32 304 257 C302.1627657 258.64191371 300.33425744 260.14000393 298.375 261.625 C297.79177979 262.0686792 297.20855957 262.5123584 296.60766602 262.96948242 C285.41856975 271.29899373 272.08090737 279.61951889 258 281 C257.00355469 281.33 256.00710938 281.66 254.98046875 282 C250.08049863 283.43299192 245.19570143 283.34067524 240.125 283.3125 C239.11356934 283.30903564 238.10213867 283.30557129 237.06005859 283.30200195 C228.11949086 283.17419886 219.68630632 282.06770807 211 280 C210.18144531 279.80664062 209.36289062 279.61328125 208.51953125 279.4140625 C185.49667198 272.76205438 168.61817323 256.6794445 155.22338867 237.59057617 C153.9329438 235.91281758 152.52591873 234.46405343 151 233 C152 230 152 230 154.28515625 228.83203125 C155.20167969 228.49558594 156.11820313 228.15914062 157.0625 227.8125 C157.98160156 227.46832031 158.90070313 227.12414062 159.84765625 226.76953125 C160.55792969 226.51558594 161.26820313 226.26164063 162 226 C162.81883133 219.77688187 160.06632293 215.20319386 157 210 C155.69694744 208.30955344 154.37639625 206.63128444 153 205 C153 204.34 153 203.68 153 203 C152.34 203 151.68 203 151 203 C149.84574153 201.81179275 148.69173455 200.62334005 147.5390625 199.43359375 C138.42953265 190.94832102 127.06048487 189.03915742 115 189 C103.27682832 189.51393051 92.13324271 193.70547399 83.5 201.8125 C79.61400314 206.09043216 76.71403704 210.91766313 74 216 C73.6184375 216.6909375 73.236875 217.381875 72.84375 218.09375 C71.66466365 220.75761176 71.86937247 223.12619442 72 226 C77.3599996 228.41250727 77.3599996 228.41250727 83 230 C81.79967259 240.15661656 70.25636641 251.0316935 63 258 C62.34 258 61.68 258 61 258 C61 258.66 61 259.32 61 260 C48.50504392 270.31261786 33.71509495 277.34979457 18 281 C16.57300781 281.33644531 16.57300781 281.33644531 15.1171875 281.6796875 C10.64965903 282.65320863 6.58711407 283.10667707 2 283 C1.25363281 283.16886719 0.50726563 283.33773438 -0.26171875 283.51171875 C-19.69661398 286.97728495 -43.36832907 277.06338779 -59.25244141 266.26806641 C-70.79716995 257.89096106 -81.36571566 246.64660453 -88 234 C-88 233.01 -88 232.02 -88 231 C-88.66 230.67 -89.32 230.34 -90 230 C-91.07477411 227.46353309 -92.0054684 224.98304219 -92.875 222.375 C-93.26981567 221.19272827 -93.26981567 221.19272827 -93.67260742 219.98657227 C-98.5657084 204.56367328 -101.10436091 187.69863335 -101.203125 171.51171875 C-101.21018463 170.7349176 -101.21724426 169.95811646 -101.22451782 169.15777588 C-101.46098764 135.50513916 -99.18109869 98.48095994 -74.328125 73.01123047 C-71.11041509 69.80248076 -67.92543998 66.68614764 -64.265625 63.97265625 C-60.64578825 60.82090183 -60.09174984 58.18488369 -59.7265625 53.46875 C-59.69304687 52.1590625 -59.65953125 50.849375 -59.625 49.5 C-59.11544398 38.56462654 -56.74807342 29.34325808 -49.87890625 20.609375 C-47.57789967 18.63845045 -45.99125239 18.28488118 -43 18 C-37.83079857 18.87986407 -35.86695542 21.07138014 -32.7890625 24.98046875 C-29.35276578 28.85943252 -25.11150612 31.87168013 -21 35 C-20.34 34.67 -19.68 34.34 -19 34 C-18.4555919 31.34675835 -18.01444057 28.73884412 -17.625 26.0625 C-16.00994064 16.08737791 -13.43192625 7.9552772 -7 0 C-4.2482255 -1.37588725 -2.92258076 -0.85296061 0 0 Z " fill="#8EDF01" transform="translate(383,64)"/>
<path d="M0 0 C0.928125 0.7425 1.85625 1.485 2.8125 2.25 C2.8125 2.91 2.8125 3.57 2.8125 4.25 C3.38097656 4.476875 3.94945312 4.70375 4.53515625 4.9375 C15.52703667 11.27244309 21.32529897 26.69437306 24.8125 38.25 C25.57643284 42.21338801 25.94189903 45.97144888 25.95776367 50.00488281 C25.96414352 51.11333557 25.97052338 52.22178833 25.97709656 53.36383057 C25.97876579 55.14053131 25.97876579 55.14053131 25.98046875 56.953125 C25.98379715 58.18609314 25.98712555 59.41906128 25.99055481 60.68939209 C25.99561042 63.29504016 25.99796356 65.90069469 25.99780273 68.50634766 C25.99998448 72.47178962 26.0181421 76.43695114 26.03710938 80.40234375 C26.0400446 82.94010322 26.04202853 85.47786401 26.04296875 88.015625 C26.05015427 89.19199524 26.05733978 90.36836548 26.06474304 91.5803833 C26.03824567 101.23548631 24.86026969 109.47983233 20.8125 118.25 C20.12413487 120.24263591 19.44968601 122.24041337 18.8125 124.25 C18.1525 124.25 17.4925 124.25 16.8125 124.25 C16.58304688 125.12398437 16.35359375 125.99796875 16.1171875 126.8984375 C14.62188919 130.73965292 12.7661105 132.89530645 9.9375 135.875 C9.07382812 136.79539062 8.21015625 137.71578125 7.3203125 138.6640625 C6.07894531 139.94410156 6.07894531 139.94410156 4.8125 141.25 C4.15378906 141.94867188 3.49507812 142.64734375 2.81640625 143.3671875 C-3.3348678 149.14674713 -11.31487942 153.31812751 -19.1875 156.25 C-19.93515625 156.5490625 -20.6828125 156.848125 -21.453125 157.15625 C-36.90636101 162.40451883 -54.94834927 160.13924389 -69.5 153.375 C-82.49189842 146.25577208 -94.96525064 136.62253845 -100.1875 122.25 C-100.5175 121.43660156 -100.8475 120.62320313 -101.1875 119.78515625 C-105.64447295 108.76459423 -107.34281689 99.67629099 -107.35546875 87.83203125 C-107.35879715 86.73839767 -107.36212555 85.6447641 -107.36555481 84.51799011 C-107.37060349 82.20918191 -107.37296377 79.90036645 -107.37280273 77.59155273 C-107.37498194 74.09150906 -107.39313992 70.59178458 -107.41210938 67.09179688 C-107.41504532 64.83854273 -107.41702877 62.58528711 -107.41796875 60.33203125 C-107.42874702 58.78452934 -107.42874702 58.78452934 -107.43974304 57.20576477 C-107.37938705 37.63610108 -101.27792701 20.0889456 -87.796875 5.703125 C-62.78986979 -17.80645475 -27.79319764 -18.88155111 0 0 Z " fill="#FAFCF8" transform="translate(657.1875,153.75)"/>
<path d="M0 0 C0 0.66 0 1.32 0 2 C0.58136719 2.26039063 1.16273438 2.52078125 1.76171875 2.7890625 C12.0032138 8.32983644 17.9636835 20.08568768 21.3125 30.75 C21.90075867 32.82620706 22.46224409 34.91014292 23 37 C23.50793091 38.68307251 23.50793091 38.68307251 24.02612305 40.40014648 C25.44934499 46.14138166 25.36341051 51.91504649 25.40625 57.80078125 C25.41765015 59.03177048 25.42905029 60.2627597 25.4407959 61.53105164 C25.4596392 64.13402911 25.47274127 66.73705368 25.48046875 69.34008789 C25.49975227 73.26211497 25.56179332 77.18198539 25.625 81.10351562 C25.74592299 95.63077428 25.03152331 108.61187592 19 122 C18.34 122.66 17.68 123.32 17 124 C16.855625 124.639375 16.71125 125.27875 16.5625 125.9375 C15.8749104 128.45866187 14.8486336 129.17291224 13 131 C11.86988021 132.51703272 10.74548962 134.03834054 9.625 135.5625 C6.2666718 139.79610412 2.69072756 143.15558296 -1.5625 146.4375 C-2.09214355 146.85008057 -2.62178711 147.26266113 -3.16748047 147.68774414 C-8.50144623 151.6664656 -14.42750824 153.85675374 -20.625 156.125 C-21.97464844 156.62386719 -21.97464844 156.62386719 -23.3515625 157.1328125 C-38.89410431 162.22196336 -56.56406303 159.43738127 -71.125 152.8125 C-81.80912417 147.0311236 -89.36087676 140.11236827 -96 130 C-96.97518308 128.74688974 -97.9537791 127.49641909 -98.9375 126.25 C-101.3094639 122.51235992 -101.7342923 120.33989246 -102 116 C-102.66 116 -103.32 116 -104 116 C-108.20369285 102.24085406 -108.18866341 88.07690743 -108.1875 73.8125 C-108.18840637 73.09460297 -108.18931274 72.37670593 -108.19024658 71.63705444 C-108.18823317 57.51676155 -108.04126968 43.64881647 -104 30 C-103.34 30 -102.68 30 -102 30 C-101.814375 28.72125 -101.62875 27.4425 -101.4375 26.125 C-100.09617697 20.07477695 -96.79077436 15.79166488 -93 11 C-92.43152344 10.278125 -91.86304688 9.55625 -91.27734375 8.8125 C-89.91591798 7.15336687 -88.4656099 5.56786176 -87 4 C-86.34 4 -85.68 4 -85 4 C-85 3.34 -85 2.68 -85 2 C-82.98949238 0.44475931 -81.0096048 -0.94518543 -78.875 -2.3125 C-78.25061035 -2.71404297 -77.6262207 -3.11558594 -76.98291016 -3.52929688 C-51.59977743 -19.25324899 -24.2937001 -14.76552162 0 0 Z " fill="#FAFCF8" transform="translate(425,154)"/>
<path d="M0 0 C2.73615007 2.45503877 2.99903492 3.99108721 3.3984375 7.6796875 C3.40636814 9.07812433 3.39809068 10.47673132 3.375 11.875 C3.38660156 12.56980469 3.39820313 13.26460937 3.41015625 13.98046875 C3.36499648 21.97374735 -0.01444542 26.34366407 -5.37890625 31.77734375 C-9.51234883 37.44464213 -9.13687628 43.59847587 -8.875 50.25 C-8.66535799 62.58453043 -11.72516113 70.72647368 -20 80 C-20.66 80.66 -21.32 81.32 -22 82 C-22.6425235 84.06874034 -22.6425235 84.06874034 -23 86 C-22.42121094 86.26683594 -21.84242188 86.53367187 -21.24609375 86.80859375 C-13.93086578 90.68884511 -9.27905127 96.52276945 -6 104 C-5.6803125 104.71414063 -5.360625 105.42828125 -5.03125 106.1640625 C-0.41693504 118.59707781 -2.0022468 134.00539231 -7 146 C-13.58258575 158.77412681 -23.00655421 167.48477093 -36.67578125 172.29296875 C-57.34534993 178.33887215 -82.80082893 179.31046572 -102.20703125 168.80859375 C-114.97170105 160.54280058 -123.20701044 149.08991523 -126.48828125 134.2578125 C-128.50525889 121.41690141 -127.23681057 108.97747602 -119.9921875 97.94140625 C-118.0832078 95.51467744 -116.13268831 93.23084551 -114 91 C-113.46632813 90.41734375 -112.93265625 89.8346875 -112.3828125 89.234375 C-111 88 -111 88 -109 88 C-108.16003899 85.25146929 -108.16003899 85.25146929 -108 82 C-109.46828115 79.25744503 -109.46828115 79.25744503 -111.6875 76.75 C-118.85911092 67.43442848 -121.32724016 58.81991457 -121 47 C-119.45798677 35.66006203 -114.42472829 25.77423138 -106 18 C-93.75093796 8.78027589 -80.77502178 4.61645921 -65.5625 4.75 C-64.68529297 4.74226562 -63.80808594 4.73453125 -62.90429688 4.7265625 C-57.52224449 4.74242706 -52.62348516 5.38632539 -47.37329102 6.53710938 C-43.80315355 7.23343492 -40.31753064 7.38322057 -36.6875 7.375 C-35.96256348 7.37411377 -35.23762695 7.37322754 -34.49072266 7.37231445 C-26.15418226 7.19180242 -18.69831533 4.77755147 -11.1875 1.25 C-7.03140632 -0.37984066 -4.44144181 -0.51816821 0 0 Z M-78.9375 39.3125 C-83.04386467 44.6632176 -84.57409239 48.75239339 -84.3515625 55.46875 C-83.61178731 60.79513139 -81.39126776 64.60873224 -77.625 68.375 C-72.01396122 71.8485002 -66.50425338 72.89144589 -60 72 C-54.69592805 70.26939451 -51.02611267 67.7719469 -48 63 C-45.35285057 57.29328293 -44.67076113 50.91586586 -46.72265625 44.87109375 C-49.26773974 40.10035021 -52.24731931 36.89974353 -57.4140625 35.2109375 C-65.53420329 33.31242571 -72.29029389 34.07959306 -78.9375 39.3125 Z M-83 108 C-89.02551238 114.19524513 -90.30895868 118.37519972 -90.21484375 127.0546875 C-89.84617122 132.10885277 -87.97528429 134.86216832 -84.75 138.625 C-77.39552192 144.97659471 -70.88132468 146.36692892 -61.328125 146.28125 C-53.89491897 145.65309174 -48.24778191 142.12283473 -43 137 C-39.22743204 131.66636944 -38.18151875 126.51226386 -39 120 C-40.97884998 113.3828265 -45.39629681 108.86102455 -51 105 C-61.21787117 100.09942231 -74.17641353 100.74505113 -83 108 Z " fill="#7AC703" transform="translate(839,802)"/>
<path d="M0 0 C1.27810547 -0.05607422 1.27810547 -0.05607422 2.58203125 -0.11328125 C6.14318511 0.46867643 7.6474276 1.77126819 10.1875 4.3125 C10.80832577 7.26106262 10.80832577 7.26106262 10.80223083 10.76489258 C10.80791409 11.41068929 10.81359735 12.056486 10.81945282 12.7218523 C10.83236459 14.88423577 10.80956269 17.04475021 10.78686523 19.20703125 C10.78872919 20.75776563 10.7927656 22.3084987 10.79881287 23.85922241 C10.80879697 28.07012013 10.78760211 32.28034592 10.76033282 36.49114609 C10.73651842 40.89618393 10.73944789 45.30120808 10.73902893 49.70629883 C10.73439927 57.10411975 10.71074716 64.50168349 10.67456055 71.89941406 C10.63282613 80.45410388 10.61524576 89.00856204 10.6119408 97.56334782 C10.60834157 106.66781935 10.58946613 115.77220742 10.56482053 124.87664413 C10.55859045 127.50139144 10.55495503 130.12613239 10.55178642 132.75088501 C10.54588656 136.87460654 10.52957548 140.99816243 10.50518227 145.12181473 C10.49774027 146.6359288 10.4936702 148.15006373 10.49320221 149.66419601 C10.49194484 151.72967075 10.47840271 153.79470853 10.46165466 155.86010742 C10.45700416 157.01637131 10.45235365 158.17263519 10.44756222 159.36393738 C10.19271631 162.25335797 9.75423938 163.90142586 8.1875 166.3125 C4.74450743 168.86286487 1.34425451 168.67084091 -2.8125 168.3125 C-5.85410027 167.14763181 -8.22692283 165.80568077 -10.71875 163.70703125 C-12.69632445 162.0451081 -14.55610848 160.5729062 -16.8125 159.3125 C-21.18869723 159.71033611 -24.21871537 161.52667614 -27.9375 163.6875 C-41.38328911 171.26480925 -57.86040985 172.82674028 -72.875 169.1875 C-74.5409002 168.6181417 -76.18802369 167.99107871 -77.8125 167.3125 C-79.28203125 166.70921875 -79.28203125 166.70921875 -80.78125 166.09375 C-88.32367652 162.66537431 -94.01802447 158.18527925 -99.8125 152.3125 C-100.534375 151.6009375 -101.25625 150.889375 -102 150.15625 C-113.57105352 138.0592395 -117.33957076 122.87760272 -117.1640625 106.50048828 C-116.64128472 90.5521357 -109.91827994 76.6806212 -98.8125 65.3125 C-84.17946771 52.60886012 -67.17816805 48.02026127 -48.125 49.08349609 C-40.67118173 49.82163815 -33.69961911 52.49157668 -26.8125 55.3125 C-26.83570312 54.53648437 -26.85890625 53.76046875 -26.8828125 52.9609375 C-27.14996945 36.96968597 -25.33041235 21.0296122 -14.8125 8.3125 C-6.62771499 0.18879548 -6.62771499 0.18879548 0 0 Z M-72.8125 89.3125 C-79.76360328 97.86770404 -79.80858337 107.80668873 -78.8125 118.3125 C-77.45092798 124.62916006 -74.08192451 128.86441441 -69.08984375 132.87109375 C-62.48472612 137.05169136 -55.12422501 138.2185133 -47.4765625 136.9140625 C-40.43128437 135.24487353 -35.38329762 131.93523271 -30.8125 126.3125 C-26.31804516 118.41388934 -25.18362858 109.27948817 -27.578125 100.5078125 C-30.61506196 92.38521128 -34.87282963 86.98310138 -42.8125 83.3125 C-54.10179177 79.73502638 -63.81807537 81.58722731 -72.8125 89.3125 Z " fill="#7AC703" transform="translate(143.8125,755.6875)"/>
<path d="M0 0 C11.47886087 10.93758126 18.69815049 26.77242533 19.11865234 42.60961914 C19.16794713 60.68753446 13.5739812 75.22987855 1.10546875 88.5546875 C-2.7125093 92.21846611 -6.79485125 95.13639432 -11.3125 97.875 C-12.09238281 98.34808594 -12.87226563 98.82117188 -13.67578125 99.30859375 C-28.16409917 107.29969545 -47.31579245 108.29178999 -63.16796875 103.96484375 C-79.83677736 98.18770387 -92.51246039 87.71470481 -101 72.1875 C-107.8377536 57.65175928 -108.65940946 40.3375825 -103.6328125 25.1171875 C-96.41487565 7.39266801 -83.71647122 -4.67874396 -66.3125 -12.125 C-43.53110247 -20.04629456 -18.60568731 -15.48106806 0 0 Z M-60.30078125 23.11328125 C-67.07456115 29.04527102 -68.82450589 36.60466358 -69.625 45.25 C-68.87613551 53.93682808 -66.87603348 60.63671422 -60.69140625 66.9921875 C-55.65853113 70.97551395 -50.07880465 72.47981362 -43.8125 73.375 C-36.22554112 72.29114873 -29.12742326 70.10607716 -24.3125 63.875 C-18.36619746 55.36329264 -17.27591056 48.34229986 -18.3125 37.875 C-19.97218465 33.06315309 -22.50456034 29.08690949 -25.3125 24.875 C-25.9725 24.875 -26.6325 24.875 -27.3125 24.875 C-27.3125 24.215 -27.3125 23.555 -27.3125 22.875 C-37.23874802 14.29013685 -50.22512007 15.85106821 -60.30078125 23.11328125 Z " fill="#7AC703" transform="translate(418.3125,820.125)"/>
<path d="M0 0 C12.2891677 11.797601 20.43864113 26.27288825 21.0390625 43.56835938 C21.22816161 60.16180611 16.50369058 74.42563698 4.8828125 86.44921875 C4.15835938 87.18785156 3.43390625 87.92648437 2.6875 88.6875 C1.91019531 89.62529297 1.91019531 89.62529297 1.1171875 90.58203125 C-7.06071075 100.06582425 -22.23385119 105.8669002 -34.41748047 106.85888672 C-52.12564725 107.91648393 -69.59854406 104.92342588 -83.50390625 93.05859375 C-95.84214553 81.81993407 -103.44963344 67.31166148 -104.6875 50.48828125 C-105.36263489 35.04808708 -101.0964486 21.34816334 -92.3125 8.6875 C-90.68763442 6.9800553 -89.02616421 5.30580483 -87.3125 3.6875 C-86.57 2.883125 -85.8275 2.07875 -85.0625 1.25 C-61.96394277 -20.2736556 -23.8351618 -20.6667415 0 0 Z M-63.12890625 28.83203125 C-68.1076857 36.63704855 -68.19875176 44.62046273 -67.3125 53.6875 C-66.40296754 57.02245236 -65.14339562 59.76572232 -63.3125 62.6875 C-62.755625 63.595 -62.19875 64.5025 -61.625 65.4375 C-56.04994036 70.86188236 -49.73303094 73.34745916 -42.0625 73.9375 C-34.74420535 73.44961369 -27.55122012 71.00786252 -22.3125 65.6875 C-16.9176476 57.30826117 -16.38801216 48.39342166 -17.3125 38.6875 C-18.90748716 32.12573935 -21.69241865 26.20825297 -27.33203125 22.28125 C-39.57145651 15.16300591 -54.45906203 17.31317306 -63.12890625 28.83203125 Z " fill="#7AC703" transform="translate(952.3125,819.3125)"/>
<path d="M0 0 C12.16359684 9.18870846 18.74719495 21.42107565 21.64624023 36.3215332 C23.20296437 47.93253428 23.33872511 59.48074086 23.31567383 71.18481445 C23.3124763 74.58771755 23.33619091 77.98977953 23.36132812 81.39257812 C23.3635982 83.57551975 23.36430597 85.75846369 23.36328125 87.94140625 C23.372491 88.94877335 23.38170074 89.95614044 23.39118958 90.99403381 C23.35332122 96.76272831 22.83794745 100.93057637 20 106 C15.15279641 109.57700265 10.2874542 109.45600636 4.5 109.375 C3.67113281 109.38660156 2.84226562 109.39820313 1.98828125 109.41015625 C-3.02619179 109.38623984 -6.79070676 109.0048268 -11 106 C-14.76378767 100.46984626 -14.44070018 95.01443813 -14.44140625 88.57421875 C-14.46121803 86.92097343 -14.46121803 86.92097343 -14.48143005 85.23432922 C-14.52223308 81.7186939 -14.54395894 78.20331804 -14.5625 74.6875 C-14.58637324 71.18247447 -14.61466082 67.6776902 -14.65428162 64.17280579 C-14.67841736 61.99579754 -14.69345515 59.81866278 -14.69789124 57.64152527 C-14.80170847 47.43967279 -15.9674172 38.81398088 -23 31 C-27.61599402 27.31512924 -32.57837625 26.29019324 -38.41015625 26.55078125 C-44.40571651 27.59073514 -49.91085362 30.39267162 -54 34.9375 C-60.21668847 44.45680422 -59.04503155 56.76193758 -59.2109375 67.71875 C-59.22537903 68.67217285 -59.23982056 69.6255957 -59.25469971 70.60791016 C-59.3119188 74.58459593 -59.36685166 78.56112999 -59.40136719 82.53808594 C-59.4289267 85.47364891 -59.47472194 88.40847212 -59.5234375 91.34375 C-59.52669037 92.23960815 -59.52994324 93.13546631 -59.53329468 94.05847168 C-59.6525758 100.09634426 -60.61471577 103.61471577 -65 108 C-69.36029208 109.44003325 -73.83134043 109.22229476 -78.375 109.25 C-79.21289062 109.270625 -80.05078125 109.29125 -80.9140625 109.3125 C-85.96911479 109.34429278 -89.79856521 109.12251649 -94 106 C-97.08568162 100.32894757 -97.43622074 95.57586474 -97.40405273 89.19677734 C-97.41091599 88.23818314 -97.41777924 87.27958893 -97.42485046 86.29194641 C-97.44307512 83.13979062 -97.4392883 79.98813439 -97.43359375 76.8359375 C-97.43815644 74.63831419 -97.44346228 72.44069232 -97.44947815 70.24307251 C-97.45839984 65.64506214 -97.45599536 61.04722557 -97.44604492 56.44921875 C-97.43453526 50.55657489 -97.45480249 44.6645285 -97.48396206 38.77196312 C-97.50230054 34.23721509 -97.50203663 29.70261103 -97.49632454 25.16783524 C-97.49617115 22.99491155 -97.50222989 20.82197821 -97.51461601 18.64908981 C-97.52948566 15.61382128 -97.51887944 12.57966713 -97.50170898 9.54443359 C-97.51137695 8.64768417 -97.52104492 7.75093475 -97.53100586 6.82701111 C-97.4819281 2.68605969 -97.34407886 0.54761238 -95.09364319 -3.0340271 C-92.02406781 -5.91641988 -89.59707835 -6.5625 -85.34765625 -6.5625 C-81.25807505 -5.58263362 -78.58833197 -2.67651285 -75.58984375 0.15234375 C-72.21934328 2.5569391 -70.14056823 2.98682746 -66 3 C-63.18708993 2.06643115 -60.70000257 0.70454609 -58.125 -0.75 C-56.71710343 -1.50034911 -55.30695662 -2.24649213 -53.89453125 -2.98828125 C-53.22373535 -3.34229004 -52.55293945 -3.69629883 -51.86181641 -4.06103516 C-35.02447492 -12.55256615 -15.41663791 -10.33795046 0 0 Z " fill="#7AC703" transform="translate(675,813)"/>
<path d="M0 0 C0.82435547 -0.01160156 1.64871094 -0.02320313 2.49804688 -0.03515625 C7.53360121 -0.01100491 11.10934739 0.53402464 15.4375 3.375 C17.60273353 6.62285029 17.69362202 7.55779278 17.72460938 11.31445312 C17.73802368 12.31980103 17.75143799 13.32514893 17.76525879 14.36096191 C17.77053589 15.44840698 17.77581299 16.53585205 17.78125 17.65625 C17.7958728 18.78011108 17.81049561 19.90397217 17.82556152 21.06188965 C17.87213108 24.66622328 17.90625269 28.27050293 17.9375 31.875 C17.97889426 36.59394613 18.03276888 41.31252093 18.09375 46.03125 C18.0990271 47.10250122 18.1043042 48.17375244 18.10974121 49.27746582 C18.23331614 58.77121188 18.54348142 68.56940783 24.4375 76.375 C30.30067327 80.84413207 36.18834499 82.06418023 43.4375 81.375 C48.37758699 80.40344956 51.63920073 79.1385906 55.3125 75.625 C61.49772262 66.16524775 61.56990738 56.96598046 61.6484375 46.05078125 C61.67648088 43.86652864 61.70514512 41.68228393 61.734375 39.49804688 C61.77575132 36.08129897 61.81267475 32.66470286 61.83886719 29.24780273 C61.86643891 25.93182723 61.91227561 22.61650531 61.9609375 19.30078125 C61.96419037 18.27986893 61.96744324 17.2589566 61.97079468 16.20710754 C62.12561319 7.28405553 62.12561319 7.28405553 65.4375 3.375 C70.33670229 0.03596035 74.71936354 -0.08492282 80.4375 0 C81.21867187 -0.01160156 81.99984375 -0.02320313 82.8046875 -0.03515625 C87.7007681 -0.01042857 91.31701259 0.46858478 95.4375 3.375 C98.86094841 8.59821743 98.86058157 13.14692803 98.80981445 19.17236328 C98.81346512 20.14217133 98.81711578 21.11197937 98.82087708 22.11117554 C98.82896109 25.30606782 98.81539201 28.50044958 98.80078125 31.6953125 C98.80026247 33.91917928 98.80078086 36.14304652 98.80229187 38.36691284 C98.80220225 43.02218492 98.79179151 47.67728346 98.77368164 52.33251953 C98.75096858 58.30248843 98.75045627 64.27220442 98.75719929 70.24220467 C98.76053849 74.83179985 98.75391051 79.42133725 98.74407005 84.01092148 C98.74021892 86.21257093 98.73906948 88.41422681 98.7406559 90.61587906 C98.74102627 93.6895196 98.72841491 96.76283416 98.7121582 99.83642578 C98.71463562 100.74769226 98.71711304 101.65895874 98.71966553 102.59783936 C98.71258072 103.43608246 98.70549591 104.27432556 98.69819641 105.13796997 C98.69511711 106.22690143 98.69511711 106.22690143 98.69197559 107.3378315 C98.3942327 109.7213703 97.6666983 111.32120653 96.4375 113.375 C93.43288149 115.68624501 90.17920549 115.79490849 86.453125 115.69140625 C82.52085002 115.07413053 79.77022089 112.66841813 76.98046875 109.9609375 C75.32020973 108.32906198 75.32020973 108.32906198 72.4375 106.375 C66.88322411 106.58046844 63.38876748 108.30834257 58.75 111.25 C47.30653194 118.13163773 35.23638892 120.01856482 22 117.8125 C11.67543265 115.08849053 2.15509679 109.69634738 -4.5625 101.375 C-5.17609375 100.62476563 -5.7896875 99.87453125 -6.421875 99.1015625 C-19.68227283 81.59103717 -19.83050287 59.95867071 -19.8125 38.9375 C-19.81160873 37.7896553 -19.81160873 37.7896553 -19.81069946 36.61862183 C-19.72626531 8.11158947 -19.72626531 8.11158947 -16.5625 3.375 C-11.05223714 0.23237266 -6.25486255 -0.08844268 0 0 Z " fill="#7AC703" transform="translate(195.5625,808.625)"/>
<path d="M0 0 C2.39945315 3.04850739 2.34431393 4.78135287 2.34503078 8.63638973 C2.35486492 9.93044231 2.36469906 11.2244949 2.3748312 12.55776119 C2.36545934 13.98986221 2.35568003 15.42196061 2.34553432 16.85405636 C2.34931777 18.36376099 2.35481803 19.87346214 2.36190701 21.38315487 C2.37587691 25.48244396 2.36468076 29.58131404 2.34819579 33.6805799 C2.33434997 37.97038815 2.34080493 42.26017195 2.34432888 46.54999447 C2.34703167 53.75525829 2.33355055 60.9603556 2.31037807 68.1655798 C2.28377795 76.49420923 2.28201775 84.82256006 2.29376644 93.1512174 C2.30454918 101.16348803 2.29835261 109.17565793 2.28421116 117.18792057 C2.27845463 120.59731141 2.27853144 124.00662847 2.28327656 127.41602039 C2.28805203 131.43226599 2.27792122 135.44820691 2.25632191 139.46439457 C2.25076123 140.93777724 2.25028216 142.41118923 2.25527477 143.88457394 C2.26123825 145.89698609 2.24687445 147.90942782 2.23150539 149.92179012 C2.2290755 151.04763484 2.2266456 152.17347956 2.22414207 153.33344078 C1.79204212 156.75230083 0.91588375 158.60804386 -1.15617466 161.34258175 C-6.14883956 164.14483729 -10.43337994 164.81625062 -16.15617466 164.71758175 C-17.1655106 164.73498409 -17.1655106 164.73498409 -18.19523716 164.752738 C-23.3106494 164.72311206 -26.7619795 163.80893148 -31.15617466 161.34258175 C-33.73280907 157.83629658 -34.53175579 155.35340027 -34.53712559 151.03188229 C-34.54558506 149.98072231 -34.55404453 148.92956234 -34.56276035 147.84654903 C-34.55668766 146.70361385 -34.55061497 145.56067867 -34.54435825 144.38310909 C-34.54961521 143.17109829 -34.55487217 141.95908749 -34.56028843 140.71034908 C-34.57122182 137.39163274 -34.56866826 134.07347838 -34.55915117 130.75479364 C-34.55153566 127.27124166 -34.55860638 123.78771308 -34.56330967 120.30416012 C-34.56876609 114.4482714 -34.56158321 108.59249619 -34.54728794 102.73662472 C-34.5310073 95.99006792 -34.53621677 89.24378379 -34.55276716 82.49723375 C-34.56644015 76.68891759 -34.56827209 70.88068294 -34.56045115 65.07235587 C-34.55580049 61.61068271 -34.55507623 58.14913704 -34.56506062 54.68747234 C-34.57544192 50.81768363 -34.56099859 46.94819254 -34.54435825 43.07842159 C-34.55043095 41.9476318 -34.55650364 40.816842 -34.56276035 39.65178585 C-34.45716554 26.31956123 -31.03531463 15.12716112 -21.65617466 5.46758175 C-15.71110806 -0.37281818 -7.88399761 -6.06030753 0 0 Z " fill="#78C601" transform="translate(489.156174659729,757.6574182510376)"/>
<path d="M0 0 C12.48939832 -0.54999185 23.88547388 3.18012222 33.62890625 10.84375 C34.43328125 11.606875 35.23765625 12.37 36.06640625 13.15625 C36.06640625 13.81625 36.06640625 14.47625 36.06640625 15.15625 C36.72640625 15.15625 37.38640625 15.15625 38.06640625 15.15625 C39.47530365 16.99662223 40.79480923 18.90596704 42.06640625 20.84375 C43.11828125 22.42736328 43.11828125 22.42736328 44.19140625 24.04296875 C47.00639962 28.71703066 48.90897404 32.61937598 48.06640625 38.15625 C44.70864474 41.02022305 41.38253589 41.65437446 37.06640625 42.15625 C37.14890625 43.22875 37.23140625 44.30125 37.31640625 45.40625 C37.31640625 53.4254222 34.19829421 61.99798444 29.06640625 68.15625 C28.40640625 68.15625 27.74640625 68.15625 27.06640625 68.15625 C26.57140625 69.64125 26.57140625 69.64125 26.06640625 71.15625 C17.78117373 77.06568082 8.23998026 80.06460482 -1.93359375 79.15625 C-12.12114268 77.12896183 -20.26159129 72.28854639 -26.42578125 63.859375 C-30.04967249 57.36265806 -32.28443671 49.62218815 -31.93359375 42.15625 C-33.78984375 42.0015625 -33.78984375 42.0015625 -35.68359375 41.84375 C-39.18938824 41.38376987 -41.58407808 40.9952481 -43.93359375 38.15625 C-44.62986707 30.27620435 -40.49266726 24.49646393 -35.84765625 18.43359375 C-27.42665424 8.63863878 -17.98603963 3.02916984 -5.30859375 0.40625 C-3.53873749 0.27514954 -1.76893905 0.14294457 0 0 Z " fill="#FBC200" transform="translate(497.93359375,251.84375)"/>
<path d="M0 0 C5.98255962 5.1396158 11.44511351 11.35045216 12.24723816 19.51724243 C12.24581314 20.40310028 12.24438812 21.28895813 12.24291992 22.20166016 C12.24753487 23.71815659 12.24753487 23.71815659 12.25224304 25.26528931 C12.24505753 26.34563446 12.23787201 27.42597961 12.23046875 28.5390625 C12.23001053 29.65687103 12.22955231 30.77467957 12.2290802 31.92636108 C12.22606358 34.28490259 12.21819498 36.6434422 12.20581055 39.00195312 C12.18753254 42.61856106 12.18530111 46.23491315 12.18554688 49.8515625 C12.18063222 52.14323139 12.17480414 54.43489854 12.16796875 56.7265625 C12.16685593 57.81095612 12.1657431 58.89534973 12.16459656 60.01260376 C12.15821671 61.01729706 12.15183685 62.02199036 12.14526367 63.05712891 C12.13954597 64.3835289 12.13954597 64.3835289 12.13371277 65.73672485 C12 68 12 68 11 71 C10.34 71 9.68 71 9 71 C8.855625 71.5775 8.71125 72.155 8.5625 72.75 C8.04166667 74.83333333 7.52083333 76.91666667 7 79 C6.34 79 5.68 79 5 79 C4.505 80.485 4.505 80.485 4 82 C3.34 82 2.68 82 2 82 C1.7215625 82.86625 1.7215625 82.86625 1.4375 83.75 C-0.90397562 87.41491836 -4.68312903 89.22770968 -8.7578125 90.5859375 C-18.53633941 92.39172818 -27.75130133 91.87475309 -36.44140625 86.828125 C-43.5745079 81.73149664 -47.73109231 75.45231924 -50 67 C-50.50308266 62.39651658 -50.61936823 57.84431865 -50.57641602 53.22070312 C-50.5623773 51.10652111 -50.59693164 48.99663408 -50.63476562 46.8828125 C-50.63571556 45.52864476 -50.63386476 44.1744715 -50.62890625 42.8203125 C-50.62963135 41.60617676 -50.63035645 40.39204102 -50.63110352 39.14111328 C-50 36 -50 36 -47.64868164 33.66699219 C-43.85134205 31.27707287 -39.84730412 29.54932224 -35.7421875 27.7578125 C-32.32140388 25.56500248 -31.38623175 23.78746709 -30 20 C-29.21124642 13.96137044 -29.88260401 8.69050172 -32 3 C-32.1875 -0.3125 -32.1875 -0.3125 -32 -3 C-25.27516327 -9.72483673 -6.43294687 -5.10287436 0 0 Z " fill="#4E4E4E" transform="translate(625,184)"/>
<path d="M0 0 C5.2933172 2.48838666 9.1335712 5.81081113 11.375 11.3125 C12.035 11.3125 12.695 11.3125 13.375 11.3125 C16.51613657 16.5620707 17.09291531 21.22555773 17.5625 27.1875 C17.68202026 28.57980835 17.68202026 28.57980835 17.80395508 30.00024414 C19.06718277 45.7817707 20.5528688 64.39585098 14.375 79.3125 C12.90234375 80.9453125 12.90234375 80.9453125 11.375 82.3125 C10.694375 83.199375 10.01375 84.08625 9.3125 85 C8.673125 85.763125 8.03375 86.52625 7.375 87.3125 C6.715 87.3125 6.055 87.3125 5.375 87.3125 C5.375 87.9725 5.375 88.6325 5.375 89.3125 C-3.31343728 94.4921453 -11.55525023 95.63500818 -21.625 94.3125 C-29.50584968 91.87960264 -34.48888531 88.3839219 -38.625 81.3125 C-39.12580078 80.83699707 -39.62660156 80.36149414 -40.14257812 79.87158203 C-46.28112941 73.41558919 -45.14144947 61.61288888 -45.125 53.4375 C-45.15335937 52.13296875 -45.18171875 50.8284375 -45.2109375 49.484375 C-45.21351563 48.23398438 -45.21609375 46.98359375 -45.21875 45.6953125 C-45.22583984 44.56496582 -45.23292969 43.43461914 -45.24023438 42.27001953 C-44.625 39.3125 -44.625 39.3125 -42.27148438 36.96801758 C-39.33949924 35.133904 -37.01318604 34.50164155 -33.625 33.875 C-28.36934534 32.69199286 -25.78991624 31.67790171 -22.625 27.3125 C-19.74708342 18.67875025 -21.16628536 8.52694726 -24.625 0.3125 C-17.96880095 -3.86852955 -7.07879379 -2.633226 0 0 Z " fill="#4F4F4F" transform="translate(407.625,180.6875)"/>
<path d="M0 0 C0 0.66 0 1.32 0 2 C0.89332031 2.34804688 0.89332031 2.34804688 1.8046875 2.703125 C6.68975961 5.58896831 9.07790121 11.9881481 11.375 17 C13.44105049 26.91704234 11.58381802 36.11204344 6.375 44.75 C0.5207162 52.89133816 -7.41509613 56.0998313 -17 58 C-21.08933565 58.38745499 -25.14050601 58.42185019 -29.24609375 58.3984375 C-30.94464256 58.40274277 -30.94464256 58.40274277 -32.67750549 58.40713501 C-35.05657455 58.40916361 -37.43566074 58.40371873 -39.81469727 58.39111328 C-43.42437642 58.37505837 -47.03293347 58.39099652 -50.64257812 58.41015625 C-52.96875243 58.40817331 -55.29492605 58.4043286 -57.62109375 58.3984375 C-59.21539467 58.40754654 -59.21539467 58.40754654 -60.84190369 58.4168396 C-71.81206396 58.31559997 -82.64090034 56.61275148 -91 49 C-96.39407918 42.71873675 -100 35.34436014 -100 27 C-98.77410156 26.84144531 -97.54820312 26.68289063 -96.28515625 26.51953125 C-65.95969661 22.47315037 -28.1505827 0 0 0 Z " fill="#F09203" transform="translate(612,568)"/>
<path d="M0 0 C4.44273496 1.3609026 8.59572194 3.11988204 12.82373047 5.02050781 C40.66960105 17.45309341 69.94662814 22.90702028 100 27 C99.21368253 36.48624771 96.93265844 43.50606085 90 50.375 C81.09397571 57.50461241 70.2882918 58.60723361 59.234375 58.4609375 C58.07552795 58.46002106 56.91668091 58.45910461 55.72271729 58.4581604 C53.29589694 58.4521679 50.86908246 58.43655516 48.44238281 58.41162109 C44.74516337 58.37495203 41.04894557 58.37060377 37.3515625 58.37109375 C34.97915808 58.36126594 32.60676038 58.34961042 30.234375 58.3359375 C29.14042419 58.33371185 28.04647339 58.33148621 26.91937256 58.32919312 C16.03355309 58.1954402 6.40968468 56.67642687 -1.98046875 49.24609375 C-9.53004617 41.27798965 -11.86600824 32.78322463 -11.58984375 21.90234375 C-10.32658736 13.54477332 -6.28354881 5.71358088 0 0 Z " fill="#F19203" transform="translate(389,568)"/>
<path d="M0 0 C0.78632812 -0.02900391 1.57265625 -0.05800781 2.3828125 -0.08789062 C8.17204292 -0.15039893 11.55013805 0.87196003 16.25 4.3125 C17.97902326 7.08448086 18.50197883 9.19193634 18.51742554 12.43563843 C18.52595551 13.24863907 18.53448547 14.06163971 18.54327393 14.89927673 C18.54236755 15.782491 18.54146118 16.66570526 18.54052734 17.57568359 C18.54724457 18.51272629 18.55396179 19.44976898 18.56088257 20.41520691 C18.57988529 23.51383767 18.58378791 26.61225209 18.5859375 29.7109375 C18.59236378 31.86561167 18.59909201 34.02028495 18.60610962 36.17495728 C18.61808803 40.69250512 18.62178985 45.20997646 18.62060547 49.72753906 C18.62040224 55.51365241 18.64770659 61.29927484 18.68214989 67.08527184 C18.70439721 71.53598276 18.70844367 75.98657513 18.70738602 80.43733597 C18.70974515 82.57036659 18.71858621 84.70340032 18.73405075 86.83637619 C18.75366667 89.82144207 18.74788968 92.805444 18.73583984 95.79052734 C18.74707886 96.66969315 18.75831787 97.54885895 18.76989746 98.45466614 C18.714269 103.88318295 17.88572715 107.01576986 14.25 111.3125 C9.96700495 113.96169658 5.20362993 113.6449638 0.3125 113.625 C-0.47318359 113.64111328 -1.25886719 113.65722656 -2.06835938 113.67382812 C-7.04412876 113.67799195 -10.42951888 113.03599347 -14.75 110.3125 C-19.09404846 105.51906722 -18.90300235 100.70797471 -18.91113281 94.5300293 C-18.91609772 93.63214691 -18.92106262 92.73426453 -18.92617798 91.80917358 C-18.940798 88.83501421 -18.94760148 85.86090818 -18.953125 82.88671875 C-18.95887674 80.82029722 -18.96463447 78.75387572 -18.97039795 76.68745422 C-18.98090759 72.35226187 -18.98675045 68.01708807 -18.99023438 63.68188477 C-18.99571789 58.13012727 -19.01974314 52.57861518 -19.04820633 47.02693462 C-19.06684143 42.75724067 -19.07203879 38.48760571 -19.07357025 34.21787453 C-19.07659551 32.17137117 -19.08461977 30.12486882 -19.09775543 28.07840538 C-19.11483336 25.21313248 -19.1129313 22.34845762 -19.10644531 19.4831543 C-19.1156601 18.6398204 -19.12487488 17.79648651 -19.1343689 16.92759705 C-19.0993069 11.97643675 -18.4655894 8.61637155 -15.75 4.3125 C-11.00755504 0.01465925 -6.13434836 0.07396722 0 0 Z " fill="#7BC804" transform="translate(534.75,808.6875)"/>
<path d="M0 0 C1.8203125 0.3046875 1.8203125 0.3046875 4.125 0.875 C8.0713775 1.80539596 11.97566012 2.47832631 16 3 C17.60488281 3.24169922 17.60488281 3.24169922 19.2421875 3.48828125 C22.99593854 3.99944693 26.72176176 4.35178029 30.5 4.625 C31.7478125 4.72039062 32.995625 4.81578125 34.28125 4.9140625 C37.9971794 4.99993482 41.34157547 4.61918508 45 4 C52.32183908 3.07024266 52.32183908 3.07024266 55.07421875 2.78515625 C59.28743529 2.32772131 63.03234935 1.48786899 67 0 C69.50009905 6.66693079 66.66787671 13.55950367 64.046875 19.72265625 C62.86446889 22.29483074 61.67748446 24.71252119 60 27 C59.34 27 58.68 27 58 27 C57.505 28.485 57.505 28.485 57 30 C48.71476748 35.90943082 39.17357401 38.90835482 29 38 C18.81245107 35.97271183 10.67200246 31.13229639 4.5078125 22.703125 C0.94967189 16.32428224 -1.55095081 8.36392796 -1 1 C-0.67 0.67 -0.34 0.34 0 0 Z " fill="#F19203" transform="translate(467,293)"/>
<path d="M0 0 C1.23137695 -0.00953201 2.46275391 -0.01906403 3.73144531 -0.02888489 C5.07617216 -0.02862349 6.42089903 -0.02768656 7.765625 -0.02612305 C9.14420704 -0.03001002 10.52278789 -0.03434469 11.90136719 -0.03910828 C14.78975305 -0.04656837 17.67801668 -0.04628048 20.56640625 -0.04101562 C24.26889115 -0.0352165 27.97087653 -0.05216305 31.67327881 -0.0753603 C34.51972379 -0.09008619 37.36604809 -0.09097102 40.21252441 -0.08785057 C41.57768749 -0.08836421 42.94285724 -0.09361002 44.3079834 -0.10366249 C46.21570017 -0.11598798 48.12351782 -0.10730631 50.03125 -0.09765625 C51.11696289 -0.09828568 52.20267578 -0.0989151 53.32128906 -0.0995636 C56.015625 0.2746582 56.015625 0.2746582 57.86230469 1.65730286 C59.58475441 4.07277516 59.48133791 5.34731992 59.015625 8.2746582 C55.78997898 14.72595024 52.4446928 19.72175231 46.015625 23.2746582 C45.355625 23.9346582 44.695625 24.5946582 44.015625 25.2746582 C37.80606152 28.6303314 32.09360043 31.04633641 25.015625 31.2746582 C24.06042969 31.32686523 24.06042969 31.32686523 23.0859375 31.38012695 C13.65103543 31.18430823 2.47523741 25.0799654 -4.296875 18.7121582 C-7.90600635 14.5441325 -10.07297849 10.62265074 -9.859375 4.9621582 C-8.18578229 -0.17816227 -4.77482173 0.0202627 0 0 Z " fill="#8DDE01" transform="translate(528.984375,423.725341796875)"/>
<path d="M0 0 C1.2113562 -0.00960754 2.4227124 -0.01921509 3.67077637 -0.02911377 C4.98018188 -0.03336365 6.2895874 -0.03761353 7.63867188 -0.04199219 C8.99483238 -0.04774527 10.35099286 -0.05350299 11.70715332 -0.05926514 C14.54842507 -0.06976248 17.38966862 -0.07561398 20.23095703 -0.07910156 C23.87287676 -0.08459542 27.51442433 -0.10864721 31.15622711 -0.13707352 C33.95633033 -0.15568564 36.75634344 -0.16090463 39.5565033 -0.16243744 C41.55240195 -0.16693858 43.54825238 -0.18558756 45.54406738 -0.20440674 C47.36110168 -0.19990509 47.36110168 -0.19990509 49.21484375 -0.1953125 C50.81676575 -0.20078094 50.81676575 -0.20078094 52.4510498 -0.20635986 C55.10742188 0.16113281 55.10742188 0.16113281 56.97180176 1.48419189 C58.10742188 3.16113281 58.10742188 3.16113281 58.16992188 6.34863281 C55.47096572 16.03312254 47.21627793 22.54993511 38.81445312 27.51660156 C31.32218688 31.18980112 22.21749356 32.44933161 14.10742188 30.16113281 C4.2094501 26.4493934 -5.22843938 20.08919646 -10.14257812 10.41113281 C-11.03447126 6.54626258 -10.72533121 4.66002507 -8.89257812 1.16113281 C-5.69120152 0.09400728 -3.36570997 0.02151891 0 0 Z " fill="#8DDE01" transform="translate(423.892578125,423.8388671875)"/>
<path d="M0 0 C1.84233719 -0.00956978 1.84233719 -0.00956978 3.72189331 -0.01933289 C5.06866415 -0.02086167 6.41543552 -0.02197557 7.76220703 -0.02270508 C9.13982173 -0.02591771 10.51743608 -0.02928178 11.89505005 -0.03279114 C14.78518464 -0.03878383 17.67528932 -0.04063093 20.56542969 -0.04003906 C24.26660895 -0.03993752 27.96759604 -0.05358122 31.66872978 -0.07081127 C34.51519652 -0.08193789 37.36161692 -0.08395806 40.20810318 -0.08342934 C41.57243639 -0.08460878 42.93677081 -0.0890286 44.30108261 -0.0967617 C46.21111323 -0.10657286 48.12120011 -0.10241638 50.03125 -0.09765625 C51.11775848 -0.09908127 52.20426697 -0.10050629 53.32369995 -0.10197449 C56.12103905 0.14316221 57.76856695 0.6987049 60.14501953 2.14526367 C59.83208942 9.65558632 56.47491849 13.96407865 51.13330078 19.06713867 C41.29231742 27.33568484 30.71597414 29.44079693 18.16943359 28.41577148 C8.39989994 27.11033935 0.64490044 21.6032532 -5.48779297 14.16479492 C-8.04860549 10.54747232 -8.86455573 8.74850508 -8.79248047 4.20776367 C-8.32841797 2.69182617 -8.32841797 2.69182617 -7.85498047 1.14526367 C-5.14988125 -0.20728594 -3.0286204 0.01064089 0 0 Z " fill="#8DDE01" transform="translate(474.85498046875,476.854736328125)"/>
<path d="M0 0 C4.98277736 4.93130239 8.11710735 8.60307399 8.25 15.8125 C8.15380466 21.34373227 7.130508 24.73033719 3.265625 28.84765625 C-1.45465896 33.30265294 -5.45895373 35.79929077 -12.12109375 36.09375 C-18.5997485 35.82427389 -23.1298874 33.14789149 -28 29 C-32.32542235 24.24203542 -33.25954071 19.28887115 -33 13 C-31.07363846 6.81536557 -28.14042865 2.1257963 -22.5625 -1.25 C-14.91875091 -5.00482411 -7.19287227 -4.7442349 0 0 Z " fill="#7AC803" transform="translate(547,759)"/>
<path d="M0 0 C0.66 0.33 1.32 0.66 2 1 C-3.28 6.28 -8.56 11.56 -14 17 C-14 12.95607032 -12.51908749 11.99868382 -9.8125 9.0625 C-9.03519531 8.20785156 -8.25789062 7.35320312 -7.45703125 6.47265625 C-5.09786332 4.09848566 -2.65532732 2.0327639 0 0 Z " fill="#E4F3C9" transform="translate(577,153)"/>
</svg>
